<svg xmlns="http://www.w3.org/2000/svg" width="40" height="30" viewBox="0 0 40 30" fill="none">
  <g clip-path="url(#clip0_61_214)">
    <path d="M34.375 3.28125H5.625C4.93359 3.28125 4.375 3.76203 4.375 4.35711V29.1019C4.375 29.697 4.93359 30.1778 5.625 30.1778H34.375C35.0664 30.1778 35.625 29.697 35.625 29.1019V4.35711C35.625 3.76203 35.0664 3.28125 34.375 3.28125ZM33.125 28.0261H25.9336V19.7621H29.9961L30.6055 15.7041H25.9336V13.1119C25.9336 11.9352 26.3125 11.135 28.2695 11.135H30.7656V7.50401C30.332 7.45358 28.8516 7.34263 27.125 7.34263C23.5234 7.34263 21.0586 9.23547 21.0586 12.7085V15.7007H16.9883V19.7587H21.0625V28.0261H6.875V5.43297H33.125V28.0261Z" fill="black"/>
  </g>
  <defs>
    <clipPath id="clip0_61_214">
      <rect width="40" height="30" fill="white"/>
    </clipPath>
  </defs>
</svg>