<svg width="434" height="373" viewBox="0 0 434 373" fill="none" xmlns="http://www.w3.org/2000/svg">
<g clip-path="url(#clip0_335_1393)">
<mask id="mask0_335_1393" style="mask-type:luminance" maskUnits="userSpaceOnUse" x="0" y="0" width="434" height="373">
<path d="M433.437 0H0.5V372.579H433.437V0Z" fill="white"/>
</mask>
<g mask="url(#mask0_335_1393)">
<path d="M166.146 249.072H239.171C239.171 250.734 238.78 252.381 238.018 253.917C237.258 255.453 236.142 256.848 234.736 258.024C233.33 259.2 231.66 260.132 229.823 260.768C227.985 261.404 226.016 261.732 224.028 261.732H181.289C179.3 261.732 177.331 261.404 175.494 260.768C173.657 260.132 171.987 259.2 170.581 258.024C169.175 256.848 168.059 255.453 167.298 253.917C166.537 252.381 166.146 250.734 166.146 249.072Z" fill="#ECF2FA"/>
<path d="M239.48 250.135C239.32 252.291 238.502 254.377 237.104 256.194C235.707 258.011 233.776 259.499 231.496 260.516C230.596 260.877 229.654 261.159 228.684 261.359L228.736 261.244C229.062 260.468 229.164 259.638 229.034 258.822C228.903 258.007 228.545 257.229 227.987 256.552C227.428 255.874 226.686 255.317 225.821 254.925C224.956 254.533 223.992 254.318 223.008 254.296L167.898 252.979C167.538 252.047 167.312 251.083 167.222 250.106C167.627 250.154 168.034 250.178 168.442 250.178H187.698V251.303H191.736V250.178H202.045C201.937 250.375 201.816 250.571 201.708 250.767L217 250.758V250.193H238.375C238.745 250.194 239.114 250.175 239.48 250.135Z" fill="#8BBACC"/>
<path d="M177.251 250.763H175.905V260.89H177.251V250.763Z" fill="#274B5B"/>
<path opacity="0.2" d="M178.26 250.763H176.914V259.482H178.26V250.763Z" fill="#274B5B"/>
<path opacity="0.2" d="M186.673 250.763H185.327V259.482H186.673V250.763Z" fill="#274B5B"/>
<path opacity="0.2" d="M203.5 250.763H202.154V259.482H203.5V250.763Z" fill="#274B5B"/>
<path opacity="0.2" d="M211.914 250.763H210.568V259.482H211.914V250.763Z" fill="#274B5B"/>
<path opacity="0.2" d="M220.328 250.763H218.982V259.482H220.328V250.763Z" fill="#274B5B"/>
<path opacity="0.3" d="M217.636 250.763H216.29V259.482H217.636V250.763Z" fill="white"/>
<path opacity="0.3" d="M209.56 250.763H208.214V259.482H209.56V250.763Z" fill="white"/>
<path opacity="0.3" d="M201.146 250.763H199.8V259.482H201.146V250.763Z" fill="white"/>
<path opacity="0.3" d="M192.733 250.763H191.387V259.482H192.733V250.763Z" fill="white"/>
<path opacity="0.3" d="M184.319 250.763H182.973V259.482H184.319V250.763Z" fill="white"/>
<path opacity="0.3" d="M175.906 250.763H174.56V259.482H175.906V250.763Z" fill="white"/>
<path opacity="0.2" d="M195.087 250.763H193.741V259.482H195.087V250.763Z" fill="#274B5B"/>
<path d="M185.608 250.763H184.262V260.89H185.608V250.763Z" fill="#274B5B"/>
<path d="M193.97 250.763H192.624V260.89H193.97V250.763Z" fill="#274B5B"/>
<path d="M202.326 250.763H200.98V260.89H202.326V250.763Z" fill="#274B5B"/>
<path d="M219.039 250.763H217.693V260.89H219.039V250.763Z" fill="#274B5B"/>
<path d="M227.396 250.763H226.05V260.89H227.396V250.763Z" fill="#274B5B"/>
<path d="M210.677 250.763H209.331V260.89H210.677V250.763Z" fill="#274B5B"/>
<path opacity="0.4" d="M427.549 155.386H345.136C345.03 154.074 344.9 152.761 344.747 151.446H377.056C378.617 151.446 380.115 150.927 381.219 150.004C382.323 149.081 382.943 147.829 382.943 146.523C382.943 145.218 382.323 143.966 381.219 143.043C380.115 142.12 378.617 141.601 377.056 141.601H343.006C341.339 134.831 338.693 128.491 334.626 123.133C326.659 112.637 314.225 107.418 301.979 106.327C289.734 105.235 277.466 107.835 265.415 110.636C249.378 114.385 230.506 117.761 218.415 105.369C211.261 98.0238 208.409 85.9911 210.969 75.505C211.648 72.9342 212.485 70.395 213.478 67.8965H255.947C257.509 67.8965 259.006 67.378 260.111 66.4548C261.215 65.5317 261.835 64.2795 261.835 62.9743C261.835 61.669 261.215 60.4169 260.111 59.4937C259.006 58.5706 257.509 58.052 255.947 58.052H216.582C216.879 56.5356 217.024 55.0015 217.017 53.4649C216.938 49.7656 215.888 46.1256 213.943 42.8022C211.997 39.4788 209.203 36.5528 205.757 34.2308C199.577 30.1656 192.343 28.7291 185.23 27.7045C169.342 25.3774 152.955 24.6735 137.479 29.208C122.834 15.9973 102.209 11.53 84.2135 17.7786C79.076 19.4928 74.4997 22.2041 70.8627 25.6886H105.972C107.491 25.6886 108.948 26.1931 110.022 27.0911C111.097 27.989 111.7 29.207 111.7 30.4768C111.7 31.7468 111.097 32.9647 110.022 33.8626C108.948 34.7606 107.491 35.265 105.972 35.265H64.7343C62.0882 42.4473 62.1111 50.8362 62.2428 58.7607C62.2428 59.6513 62.2714 60.5419 62.2886 61.4325H78.9099C80.4718 61.4325 81.9689 61.951 83.0732 62.8742C84.1775 63.7974 84.7977 65.0495 84.7977 66.3547C84.7977 67.66 84.1775 68.9121 83.0732 69.8353C81.9689 70.7584 80.4718 71.277 78.9099 71.277H62.5005L62.5922 76.6206H101.121C102.683 76.6206 104.18 77.1392 105.284 78.0624C106.389 78.9855 107.009 80.2376 107.009 81.5429C107.009 82.8481 106.389 84.1003 105.284 85.0234C104.18 85.9466 102.683 86.4651 101.121 86.4651H62.7468C62.7468 87.5904 62.7812 88.7347 62.8041 89.8743C62.9416 97.8706 63.0446 106.087 60.5589 113.576C52.8899 136.641 25.7014 142.209 11.0046 160.452H72.8616C74.4235 160.452 75.9207 160.971 77.0249 161.894C78.1292 162.817 78.7495 164.069 78.7495 165.375C78.7495 166.68 78.1292 167.932 77.0249 168.855C75.9207 169.778 74.4235 170.297 72.8616 170.297H5.00786C4.47329 171.49 3.98645 172.71 3.54735 173.955H47.2769C48.8385 173.955 50.3361 174.474 51.4402 175.397C52.5445 176.32 53.1648 177.572 53.1648 178.877C53.1648 180.182 52.5445 181.435 51.4402 182.358C50.3361 183.281 48.8385 183.799 47.2769 183.799H1.07306C-0.500302 194.419 1.02464 205.2 5.51761 215.22C15.5064 236.982 38.7372 248.014 60.5475 247.669C82.3578 247.324 103.172 237.542 122.743 226.687C137.531 218.476 153.012 209.306 169.473 210.604C186.261 211.925 200.631 223.848 215.82 231.969C240.557 245.194 269.373 248.569 296.006 241.368C307.781 238.184 319.454 232.749 328.08 223.211C336.448 213.927 341.201 201.664 343.544 188.607H366.093C367.612 188.607 369.069 188.102 370.143 187.204C371.217 186.307 371.821 185.088 371.821 183.819C371.821 182.549 371.217 181.331 370.143 180.433C369.069 179.535 367.612 179.03 366.093 179.03H344.896C345.319 174.625 345.514 170.191 345.526 165.805V165.24H427.549C429.111 165.24 430.608 164.722 431.713 163.799C432.817 162.876 433.437 161.624 433.437 160.318C433.437 159.013 432.817 157.761 431.713 156.838C430.608 155.914 429.111 155.396 427.549 155.396V155.386Z" fill="white"/>
<path d="M153.367 236.972C153.367 236.972 125.875 265.596 122.147 305.735C122.111 306.143 121.907 306.527 121.571 306.823C121.233 307.119 120.784 307.307 120.298 307.357C119.813 307.406 119.323 307.313 118.911 307.093C118.499 306.873 118.191 306.54 118.04 306.152C108.618 282.178 88.6121 212.864 151.019 170.579" fill="#26C8BC"/>
<path d="M121.74 308.12C121.881 308.496 122.169 308.822 122.559 309.044C122.289 309.195 121.98 309.293 121.657 309.328C121.333 309.362 121.005 309.333 120.697 309.244C120.389 309.154 120.111 309.006 119.883 308.811C119.656 308.616 119.486 308.379 119.386 308.12C109.965 284.145 89.9583 214.831 152.365 172.547L152.423 174.141C92.8106 216.555 112.439 284.447 121.74 308.12Z" fill="#F6DF9E"/>
<path opacity="0.8" d="M115.589 298.85C115.429 287.722 118.825 276.063 123.275 265.62C125.566 260.276 128.109 255.254 130.612 250.777C138.451 236.798 142.104 221.434 141.254 206.012C140.761 197.087 140.36 187.075 140.36 178.159C145.292 173.055 143.614 172.595 150.349 168.032L152.703 234.425C152.703 234.425 125.211 263.049 121.483 303.188C121.467 303.435 121.386 303.676 121.248 303.894C121.11 304.112 120.916 304.302 120.681 304.452" fill="#00A082"/>
<path d="M115.497 261.167C115.264 261.167 115.036 261.11 114.842 261.001C114.648 260.893 114.497 260.738 114.407 260.558C114.318 260.378 114.294 260.18 114.34 259.988C114.385 259.797 114.498 259.621 114.663 259.484C114.828 259.346 115.038 259.251 115.267 259.213C115.496 259.175 115.733 259.195 115.949 259.269C116.164 259.344 116.349 259.471 116.478 259.633C116.608 259.795 116.677 259.986 116.677 260.181C116.677 260.443 116.553 260.693 116.332 260.878C116.111 261.063 115.81 261.167 115.497 261.167ZM115.497 259.759C115.398 259.759 115.3 259.784 115.217 259.831C115.135 259.877 115.07 259.943 115.032 260.02C114.994 260.096 114.983 260.181 115.003 260.263C115.022 260.345 115.07 260.42 115.141 260.479C115.211 260.538 115.301 260.578 115.399 260.594C115.497 260.61 115.598 260.602 115.69 260.57C115.782 260.538 115.861 260.484 115.916 260.415C115.972 260.346 116.001 260.264 116.001 260.181C116 260.07 115.946 259.964 115.852 259.886C115.757 259.808 115.63 259.764 115.497 259.764V259.759Z" fill="#274B5B"/>
<path opacity="0.2" d="M115.497 262.015C115.064 262.015 114.641 261.907 114.282 261.707C113.921 261.506 113.641 261.22 113.476 260.885C113.31 260.551 113.267 260.184 113.351 259.829C113.436 259.474 113.644 259.148 113.95 258.892C114.256 258.636 114.646 258.462 115.07 258.392C115.495 258.321 115.935 258.357 116.334 258.496C116.734 258.634 117.076 258.869 117.316 259.169C117.557 259.47 117.685 259.824 117.685 260.185C117.685 260.67 117.455 261.136 117.044 261.479C116.634 261.822 116.077 262.015 115.497 262.015ZM115.497 259.482C115.33 259.482 115.168 259.523 115.029 259.6C114.891 259.678 114.783 259.788 114.719 259.916C114.656 260.045 114.638 260.186 114.671 260.323C114.704 260.459 114.784 260.585 114.902 260.683C115.019 260.782 115.169 260.849 115.333 260.876C115.496 260.903 115.665 260.889 115.819 260.836C115.973 260.782 116.105 260.692 116.197 260.577C116.29 260.461 116.339 260.325 116.339 260.185C116.339 260.093 116.317 260.002 116.275 259.916C116.232 259.831 116.171 259.753 116.092 259.688C116.014 259.622 115.921 259.571 115.819 259.535C115.717 259.5 115.608 259.482 115.497 259.482Z" fill="#274B5B"/>
<path d="M120.205 224.878C119.972 224.878 119.744 224.82 119.55 224.712C119.356 224.604 119.205 224.449 119.115 224.269C119.026 224.089 119.003 223.891 119.048 223.699C119.094 223.508 119.207 223.332 119.372 223.194C119.536 223.057 119.747 222.962 119.976 222.924C120.204 222.886 120.441 222.906 120.657 222.98C120.873 223.055 121.057 223.181 121.187 223.344C121.317 223.506 121.385 223.697 121.385 223.892C121.385 224.153 121.261 224.404 121.04 224.589C120.819 224.774 120.519 224.878 120.205 224.878ZM120.205 223.47C120.106 223.47 120.008 223.495 119.926 223.542C119.843 223.588 119.778 223.654 119.74 223.73C119.702 223.807 119.692 223.892 119.711 223.974C119.731 224.056 119.779 224.131 119.849 224.19C119.92 224.249 120.01 224.289 120.107 224.305C120.205 224.321 120.306 224.313 120.398 224.281C120.491 224.249 120.569 224.195 120.625 224.126C120.68 224.056 120.709 223.975 120.709 223.892C120.709 223.78 120.657 223.673 120.562 223.594C120.468 223.515 120.339 223.47 120.205 223.47Z" fill="#274B5B"/>
<path opacity="0.2" d="M120.205 225.72C119.773 225.72 119.35 225.612 118.99 225.412C118.63 225.211 118.35 224.925 118.184 224.591C118.019 224.256 117.975 223.889 118.06 223.534C118.144 223.179 118.352 222.853 118.658 222.597C118.964 222.342 119.354 222.167 119.779 222.097C120.203 222.026 120.643 222.062 121.043 222.201C121.442 222.339 121.784 222.574 122.024 222.874C122.265 223.175 122.393 223.529 122.393 223.891C122.393 224.376 122.163 224.841 121.752 225.184C121.342 225.527 120.786 225.72 120.205 225.72ZM120.205 223.187C120.039 223.187 119.876 223.228 119.737 223.305C119.599 223.383 119.491 223.493 119.428 223.621C119.364 223.75 119.347 223.891 119.379 224.028C119.412 224.164 119.492 224.29 119.61 224.388C119.728 224.487 119.878 224.554 120.041 224.581C120.205 224.608 120.374 224.594 120.528 224.541C120.681 224.488 120.813 224.398 120.905 224.282C120.998 224.166 121.047 224.03 121.047 223.891C121.047 223.798 121.026 223.707 120.983 223.621C120.941 223.536 120.879 223.459 120.801 223.393C120.723 223.328 120.63 223.276 120.528 223.24C120.425 223.205 120.316 223.187 120.205 223.187Z" fill="#274B5B"/>
<path d="M285.444 224.878C285.211 224.878 284.983 224.82 284.789 224.712C284.595 224.604 284.444 224.449 284.354 224.269C284.265 224.089 284.242 223.891 284.287 223.699C284.333 223.508 284.445 223.332 284.61 223.194C284.775 223.057 284.985 222.962 285.215 222.924C285.443 222.886 285.68 222.906 285.896 222.98C286.111 223.055 286.296 223.181 286.425 223.344C286.555 223.506 286.624 223.697 286.624 223.892C286.624 224.153 286.5 224.404 286.279 224.589C286.058 224.774 285.757 224.878 285.444 224.878ZM285.444 223.47C285.345 223.47 285.247 223.495 285.165 223.542C285.082 223.588 285.017 223.654 284.979 223.73C284.941 223.807 284.93 223.892 284.95 223.974C284.969 224.056 285.017 224.131 285.088 224.19C285.158 224.249 285.248 224.289 285.346 224.305C285.444 224.321 285.545 224.313 285.637 224.281C285.729 224.249 285.808 224.195 285.863 224.126C285.919 224.056 285.948 223.975 285.948 223.892C285.948 223.78 285.896 223.673 285.801 223.594C285.707 223.515 285.578 223.47 285.444 223.47Z" fill="#274B5B"/>
<path opacity="0.2" d="M285.444 225.72C285.012 225.72 284.588 225.612 284.229 225.412C283.869 225.211 283.588 224.925 283.423 224.591C283.257 224.256 283.214 223.889 283.299 223.534C283.383 223.179 283.591 222.853 283.897 222.597C284.203 222.342 284.593 222.167 285.017 222.097C285.442 222.026 285.882 222.062 286.281 222.201C286.681 222.339 287.023 222.574 287.263 222.874C287.504 223.175 287.632 223.529 287.632 223.891C287.632 224.376 287.402 224.841 286.991 225.184C286.581 225.527 286.024 225.72 285.444 225.72ZM285.444 223.187C285.277 223.187 285.115 223.228 284.977 223.305C284.838 223.383 284.73 223.493 284.666 223.621C284.603 223.75 284.586 223.891 284.618 224.028C284.651 224.164 284.731 224.29 284.849 224.388C284.966 224.487 285.117 224.554 285.28 224.581C285.444 224.608 285.612 224.594 285.767 224.541C285.92 224.488 286.052 224.398 286.144 224.282C286.237 224.166 286.286 224.03 286.286 223.891C286.286 223.798 286.264 223.707 286.222 223.621C286.18 223.536 286.118 223.459 286.04 223.393C285.961 223.328 285.869 223.276 285.767 223.24C285.664 223.205 285.555 223.187 285.444 223.187Z" fill="#274B5B"/>
<path d="M284.436 224.878C284.203 224.878 283.975 224.82 283.781 224.712C283.587 224.604 283.436 224.449 283.346 224.269C283.257 224.089 283.233 223.891 283.279 223.699C283.324 223.508 283.437 223.332 283.602 223.194C283.767 223.057 283.977 222.962 284.206 222.924C284.435 222.886 284.672 222.906 284.887 222.98C285.103 223.055 285.288 223.181 285.417 223.344C285.547 223.506 285.616 223.697 285.616 223.892C285.616 224.153 285.492 224.404 285.271 224.589C285.049 224.774 284.749 224.878 284.436 224.878ZM284.436 223.47C284.336 223.47 284.239 223.495 284.156 223.542C284.074 223.588 284.009 223.654 283.971 223.73C283.933 223.807 283.922 223.892 283.942 223.974C283.961 224.056 284.009 224.131 284.08 224.19C284.15 224.249 284.24 224.289 284.338 224.305C284.436 224.321 284.537 224.313 284.629 224.281C284.721 224.249 284.8 224.195 284.855 224.126C284.911 224.056 284.94 223.975 284.94 223.892C284.94 223.78 284.887 223.673 284.792 223.594C284.698 223.515 284.57 223.47 284.436 223.47Z" fill="#274B5B"/>
<path opacity="0.2" d="M284.436 225.72C284.003 225.72 283.58 225.612 283.22 225.412C282.861 225.211 282.58 224.925 282.415 224.591C282.249 224.256 282.206 223.889 282.29 223.534C282.374 223.179 282.583 222.853 282.889 222.597C283.195 222.342 283.585 222.167 284.009 222.097C284.434 222.026 284.873 222.062 285.273 222.201C285.673 222.339 286.015 222.574 286.255 222.874C286.495 223.175 286.624 223.529 286.624 223.891C286.624 224.376 286.393 224.841 285.983 225.184C285.573 225.527 285.017 225.72 284.436 225.72ZM284.436 223.187C284.27 223.187 284.106 223.228 283.968 223.305C283.83 223.383 283.722 223.493 283.658 223.621C283.594 223.75 283.578 223.891 283.61 224.028C283.643 224.164 283.723 224.29 283.841 224.388C283.959 224.487 284.108 224.554 284.272 224.581C284.435 224.608 284.604 224.594 284.758 224.541C284.912 224.488 285.044 224.398 285.136 224.282C285.229 224.166 285.278 224.03 285.278 223.891C285.278 223.798 285.256 223.707 285.214 223.621C285.172 223.536 285.109 223.459 285.031 223.393C284.953 223.328 284.86 223.276 284.758 223.24C284.656 223.205 284.546 223.187 284.436 223.187Z" fill="#274B5B"/>
<path d="M127.113 196.181H125.767V288.459H127.113V196.181Z" fill="#274B5B"/>
<path opacity="0.2" d="M128.459 193.931H127.113V288.46H128.459V193.931Z" fill="#274B5B"/>
<path opacity="0.3" d="M125.767 196.181H124.421V288.459H125.767V196.181Z" fill="white"/>
<path d="M134.85 184.082H133.504V267.358H134.85V184.082Z" fill="#274B5B"/>
<path opacity="0.2" d="M136.197 184.082H134.851V267.358H136.197V184.082Z" fill="#274B5B"/>
<path opacity="0.3" d="M133.505 184.082H132.159V267.358H133.505V184.082Z" fill="white"/>
<path opacity="0.2" d="M272.127 336.853C264.9 336.843 257.973 334.436 252.867 330.16C247.761 325.884 244.893 320.089 244.893 314.047V291.834H252.299V314.042C252.299 316.832 253.138 319.576 254.741 322.023C256.344 324.469 258.657 326.539 261.468 328.042C264.279 329.544 267.497 330.431 270.826 330.62C274.155 330.809 277.488 330.295 280.516 329.123C283.544 327.953 286.171 326.163 288.155 323.92C290.138 321.677 291.414 319.053 291.866 316.289C292.316 313.525 291.928 310.711 290.736 308.106C289.543 305.501 287.585 303.189 285.043 301.382L289.837 296.666C293.947 299.588 296.929 303.462 298.405 307.8C299.881 312.138 299.786 316.745 298.13 321.037C296.475 325.33 293.335 329.116 289.105 331.916C284.877 334.718 279.75 336.407 274.373 336.772C273.625 336.826 272.876 336.853 272.127 336.853Z" fill="#A7594E"/>
<path opacity="0.2" d="M269.04 327.216C268.239 327.215 267.439 327.165 266.646 327.067L267.723 320.943C269.159 321.118 270.625 320.994 271.99 320.581C273.355 320.169 274.578 319.482 275.55 318.58C276.521 317.679 277.212 316.591 277.56 315.413C277.909 314.235 277.905 313.003 277.548 311.827C277.191 310.651 276.493 309.566 275.515 308.67C274.537 307.773 273.31 307.092 271.941 306.687C270.573 306.281 269.107 306.164 267.671 306.346C266.237 306.527 264.877 307.002 263.714 307.728L259.292 302.762C261.351 301.482 263.744 300.628 266.274 300.271C268.805 299.913 271.401 300.063 273.848 300.707C276.296 301.351 278.526 302.471 280.355 303.975C282.185 305.48 283.562 307.326 284.372 309.361C285.183 311.397 285.404 313.564 285.019 315.684C284.633 317.806 283.651 319.82 282.154 321.562C280.656 323.304 278.686 324.724 276.404 325.707C274.123 326.689 271.595 327.204 269.029 327.211L269.04 327.216Z" fill="#F08778"/>
<path opacity="0.2" d="M271.481 288.46C274.454 288.46 276.864 286.445 276.864 283.959C276.864 281.473 274.454 279.458 271.481 279.458C268.507 279.458 266.097 281.473 266.097 283.959C266.097 286.445 268.507 288.46 271.481 288.46Z" fill="#F08778"/>
<path d="M282.07 308.967C281.93 309.344 281.641 309.67 281.251 309.891C281.522 310.043 281.831 310.14 282.155 310.175C282.478 310.21 282.806 310.181 283.114 310.091C283.422 310.002 283.701 309.853 283.928 309.659C284.155 309.463 284.325 309.227 284.424 308.967C293.846 284.993 313.852 215.679 251.445 173.394L251.388 174.989C311 217.383 291.378 285.289 282.07 308.967Z" fill="white"/>
<path d="M250.724 239.787C250.724 239.787 278.216 268.411 281.944 308.551C281.98 308.958 282.184 309.342 282.521 309.638C282.858 309.934 283.307 310.122 283.793 310.171C284.278 310.221 284.769 310.128 285.18 309.908C285.592 309.688 285.9 309.355 286.051 308.967C295.467 284.993 315.479 215.679 253.083 173.394" fill="#26C8BC"/>
<path opacity="0.8" d="M288.508 301.656C288.669 290.528 285.272 278.869 280.822 268.426C278.531 263.082 275.988 258.06 273.485 253.583C265.642 239.613 261.982 224.258 262.82 208.842C263.313 199.917 263.714 189.904 263.714 180.989C258.782 175.885 260.461 175.425 253.725 170.862L251.365 237.255C251.365 237.255 278.857 265.879 282.586 306.018C282.602 306.265 282.682 306.505 282.821 306.724C282.959 306.942 283.152 307.133 283.388 307.282" fill="#1B5A6E"/>
<path d="M288.474 261.435C288.241 261.435 288.012 261.377 287.819 261.269C287.624 261.16 287.473 261.006 287.384 260.826C287.294 260.646 287.271 260.447 287.317 260.256C287.362 260.064 287.474 259.889 287.639 259.751C287.804 259.613 288.014 259.519 288.244 259.481C288.473 259.443 288.71 259.462 288.925 259.537C289.141 259.612 289.325 259.738 289.455 259.9C289.584 260.062 289.654 260.253 289.654 260.448C289.654 260.71 289.529 260.961 289.308 261.146C289.087 261.331 288.786 261.435 288.474 261.435ZM288.474 260.027C288.374 260.027 288.277 260.052 288.194 260.098C288.111 260.144 288.046 260.21 288.008 260.287C287.97 260.364 287.96 260.449 287.979 260.531C287.999 260.612 288.047 260.687 288.118 260.746C288.188 260.805 288.278 260.845 288.375 260.862C288.473 260.878 288.575 260.87 288.667 260.838C288.759 260.806 288.837 260.752 288.893 260.682C288.948 260.613 288.978 260.532 288.978 260.448C288.973 260.339 288.918 260.236 288.824 260.16C288.73 260.083 288.604 260.041 288.474 260.041V260.027Z" fill="#274B5B"/>
<path opacity="0.2" d="M288.474 262.297C288.041 262.297 287.618 262.19 287.259 261.989C286.899 261.788 286.618 261.502 286.453 261.168C286.287 260.834 286.244 260.466 286.328 260.111C286.413 259.756 286.621 259.43 286.927 259.175C287.233 258.919 287.623 258.745 288.047 258.674C288.472 258.603 288.911 258.64 289.311 258.778C289.711 258.916 290.053 259.151 290.293 259.452C290.534 259.753 290.662 260.106 290.662 260.468C290.662 260.953 290.432 261.418 290.021 261.761C289.611 262.104 289.054 262.297 288.474 262.297ZM288.474 259.764C288.307 259.764 288.145 259.805 288.007 259.883C287.868 259.96 287.76 260.07 287.696 260.199C287.633 260.327 287.616 260.469 287.648 260.605C287.681 260.742 287.761 260.867 287.879 260.966C287.996 261.064 288.146 261.131 288.31 261.158C288.473 261.186 288.642 261.171 288.796 261.118C288.95 261.065 289.082 260.975 289.174 260.859C289.267 260.743 289.316 260.607 289.316 260.468C289.316 260.281 289.227 260.102 289.07 259.97C288.911 259.838 288.697 259.764 288.474 259.764Z" fill="#274B5B"/>
<path d="M278.21 195.899H276.864V290.992H278.21V195.899Z" fill="#274B5B"/>
<path opacity="0.2" d="M276.864 195.616H275.518V283.111H276.864V195.616Z" fill="#274B5B"/>
<path opacity="0.3" d="M279.556 198.716H278.21V290.994H279.556V198.716Z" fill="white"/>
<path d="M270.472 186.614H269.126V269.89H270.472V186.614Z" fill="#274B5B"/>
<path opacity="0.2" d="M269.126 186.614H267.78V267.075H269.126V186.614Z" fill="#274B5B"/>
<path opacity="0.3" d="M271.818 186.614H270.472V269.89H271.818V186.614Z" fill="white"/>
<path d="M284.069 310.323C283.878 310.323 283.687 310.313 283.497 310.294C282.429 310.195 281.436 309.785 280.693 309.137C279.95 308.488 279.503 307.642 279.43 306.746C275.822 267.708 249.028 239.424 248.759 239.141L252.694 236.498C252.98 236.795 259.825 243.968 267.196 256.197C273.811 267.167 282.048 284.366 284.287 304.696C288.869 292.669 295.513 270.432 293.978 246.19C292.031 215.469 277.712 190.848 251.486 173.064L254.664 169.784C269.177 179.504 280.678 192.003 288.193 206.223C294.465 218.126 298.108 231.495 299.024 245.965C300.673 272.041 293.113 295.81 288.457 307.656C288.161 308.433 287.575 309.11 286.786 309.59C285.997 310.07 285.045 310.326 284.069 310.323Z" fill="#00A082"/>
<path opacity="0.2" d="M54.0811 372.579H30.1916C29.2096 372.579 28.2677 372.253 27.5733 371.673C26.8789 371.092 26.4888 370.305 26.4888 369.484C26.4888 368.663 26.8789 367.875 27.5733 367.295C28.2677 366.715 29.2096 366.388 30.1916 366.388H54.0811C55.0631 366.388 56.0049 366.715 56.6993 367.295C57.3938 367.875 57.7839 368.663 57.7839 369.484C57.7839 370.305 57.3938 371.092 56.6993 371.673C56.0049 372.253 55.0631 372.579 54.0811 372.579Z" fill="#F08778"/>
<path opacity="0.2" d="M159.439 344.993C153.094 345.009 146.898 343.394 141.688 340.367C136.48 337.339 132.51 333.046 130.319 328.069C128.127 323.091 127.82 317.671 129.438 312.543C131.056 307.414 134.521 302.826 139.364 299.4L144.158 304.116C141.145 306.257 138.825 308.998 137.412 312.086C136 315.174 135.54 318.509 136.075 321.785C136.61 325.061 138.122 328.171 140.474 330.829C142.825 333.487 145.938 335.608 149.528 336.996C153.117 338.383 157.066 338.993 161.012 338.769C164.958 338.545 168.772 337.495 172.104 335.714C175.436 333.933 178.178 331.48 180.077 328.581C181.977 325.681 182.972 322.428 182.973 319.122V270.45H190.379V319.122C190.379 325.98 187.12 332.557 181.32 337.406C175.52 342.255 167.653 344.979 159.45 344.979L159.439 344.993Z" fill="#A7594E"/>
<path opacity="0.2" d="M216.107 356.836C211.517 356.829 207.118 355.301 203.874 352.587C200.63 349.872 198.807 346.193 198.804 342.356V294.378H206.209V342.356C206.211 343.748 206.631 345.118 207.432 346.34C208.232 347.561 209.388 348.594 210.791 349.343C212.196 350.093 213.802 350.536 215.464 350.63C217.127 350.724 218.79 350.467 220.302 349.882C221.814 349.298 223.126 348.404 224.116 347.285C225.106 346.165 225.744 344.855 225.969 343.475C226.195 342.095 226.002 340.69 225.407 339.389C224.812 338.088 223.836 336.933 222.567 336.031L227.361 331.314C229.973 333.17 231.869 335.632 232.807 338.388C233.746 341.145 233.685 344.072 232.634 346.8C231.583 349.527 229.587 351.933 226.9 353.713C224.213 355.492 220.955 356.566 217.538 356.797C217.057 356.823 216.58 356.836 216.107 356.836Z" fill="#F08778"/>
<path opacity="0.2" d="M205.522 270.735H198.117V285.645H205.522V270.735Z" fill="#F08778"/>
<path opacity="0.2" d="M161.352 332.563C160.55 332.562 159.75 332.513 158.958 332.415L160.034 326.291C161.471 326.465 162.937 326.341 164.302 325.929C165.667 325.517 166.89 324.83 167.861 323.928C168.832 323.026 169.523 321.938 169.872 320.761C170.22 319.583 170.216 318.351 169.859 317.175C169.503 315.999 168.804 314.914 167.826 314.018C166.848 313.121 165.621 312.44 164.253 312.034C162.885 311.629 161.418 311.512 159.983 311.693C158.548 311.875 157.188 312.35 156.025 313.075L151.604 308.11C153.663 306.829 156.055 305.976 158.586 305.618C161.116 305.261 163.712 305.411 166.159 306.055C168.607 306.699 170.838 307.819 172.667 309.323C174.496 310.827 175.873 312.673 176.684 314.709C177.494 316.744 177.716 318.911 177.33 321.032C176.945 323.153 175.963 325.168 174.465 326.91C172.968 328.652 170.997 330.072 168.716 331.054C166.434 332.036 163.907 332.551 161.34 332.559L161.352 332.563Z" fill="#F08778"/>
<path opacity="0.2" d="M223.696 324.19C221.367 324.19 219.09 323.613 217.154 322.531C215.217 321.449 213.708 319.911 212.816 318.113C211.925 316.314 211.692 314.335 212.146 312.425C212.601 310.515 213.722 308.761 215.369 307.384C217.016 306.008 219.114 305.07 221.398 304.69C223.683 304.31 226.051 304.505 228.202 305.25C230.354 305.996 232.193 307.257 233.487 308.876C234.781 310.495 235.471 312.398 235.471 314.345C235.467 316.955 234.225 319.457 232.018 321.302C229.81 323.148 226.818 324.186 223.696 324.19ZM223.696 310.687C222.83 310.687 221.984 310.902 221.265 311.304C220.545 311.705 219.984 312.277 219.653 312.946C219.322 313.614 219.235 314.35 219.404 315.059C219.573 315.769 219.99 316.42 220.602 316.932C221.214 317.444 221.993 317.792 222.842 317.933C223.691 318.074 224.571 318.002 225.37 317.725C226.17 317.448 226.853 316.979 227.334 316.378C227.815 315.776 228.071 315.069 228.071 314.345C228.07 313.376 227.609 312.446 226.788 311.76C225.968 311.074 224.856 310.688 223.696 310.687Z" fill="#F08778"/>
<path opacity="0.2" d="M165.453 299.151C163.125 299.147 160.851 298.567 158.917 297.483C156.984 296.399 155.478 294.861 154.59 293.062C153.702 291.263 153.472 289.284 153.928 287.376C154.385 285.468 155.508 283.715 157.155 282.34C158.802 280.965 160.9 280.029 163.183 279.65C165.466 279.272 167.833 279.467 169.983 280.212C172.134 280.957 173.972 282.218 175.266 283.836C176.559 285.454 177.25 287.356 177.251 289.302C177.248 291.915 176.004 294.422 173.791 296.268C171.579 298.116 168.579 299.152 165.453 299.151ZM165.453 285.648C164.587 285.648 163.741 285.863 163.021 286.265C162.302 286.667 161.741 287.238 161.41 287.907C161.079 288.575 160.992 289.311 161.161 290.02C161.33 290.73 161.746 291.382 162.359 291.893C162.97 292.405 163.75 292.753 164.599 292.895C165.448 293.035 166.328 292.963 167.127 292.686C167.927 292.41 168.61 291.94 169.091 291.339C169.572 290.738 169.829 290.03 169.829 289.306C169.829 288.336 169.367 287.405 168.547 286.718C167.727 286.031 166.614 285.645 165.453 285.643V285.648Z" fill="#F08778"/>
<path opacity="0.2" d="M325.325 299.151C322.996 299.151 320.719 298.574 318.783 297.492C316.846 296.41 315.336 294.873 314.445 293.074C313.554 291.275 313.321 289.296 313.775 287.386C314.23 285.476 315.351 283.722 316.998 282.345C318.645 280.969 320.743 280.031 323.027 279.651C325.312 279.271 327.679 279.466 329.831 280.211C331.983 280.957 333.822 282.218 335.116 283.837C336.41 285.456 337.1 287.359 337.1 289.306C337.096 291.916 335.854 294.418 333.647 296.263C331.439 298.109 328.447 299.147 325.325 299.151ZM325.325 285.648C324.459 285.648 323.613 285.863 322.894 286.265C322.174 286.667 321.613 287.238 321.282 287.907C320.951 288.575 320.864 289.311 321.033 290.02C321.202 290.73 321.619 291.381 322.231 291.893C322.843 292.405 323.622 292.753 324.471 292.895C325.32 293.035 326.2 292.963 326.999 292.686C327.799 292.409 328.482 291.94 328.963 291.339C329.444 290.737 329.7 290.03 329.7 289.306C329.7 288.336 329.24 287.405 328.419 286.718C327.599 286.031 326.486 285.645 325.325 285.643V285.648Z" fill="#F08778"/>
<path opacity="0.2" d="M94.8037 312.09C96.2906 312.09 97.4957 311.082 97.4957 309.84C97.4957 308.597 96.2906 307.589 94.8037 307.589C93.3169 307.589 92.1118 308.597 92.1118 309.84C92.1118 311.082 93.3169 312.09 94.8037 312.09Z" fill="#F08778"/>
<path opacity="0.2" d="M244.893 350.635C246.38 350.635 247.585 349.627 247.585 348.384C247.585 347.141 246.38 346.134 244.893 346.134C243.406 346.134 242.201 347.141 242.201 348.384C242.201 349.627 243.406 350.635 244.893 350.635Z" fill="#F08778"/>
<path opacity="0.2" d="M335.422 359.076H328.017C328.011 354.675 325.916 350.455 322.194 347.343C318.471 344.231 313.424 342.481 308.159 342.475H303.113V336.284H308.159C315.387 336.291 322.318 338.694 327.429 342.967C332.54 347.24 335.415 353.033 335.422 359.076Z" fill="#A7594E"/>
<path opacity="0.2" d="M65.8627 360.269H58.457C58.4742 348.392 64.125 337.005 74.171 328.607C84.2165 320.209 97.8371 315.485 112.044 315.471H122.731V321.662H112.049C99.8051 321.673 88.0666 325.744 79.4077 332.982C70.7494 340.22 65.8782 350.033 65.8627 360.269Z" fill="#F08778"/>
<path opacity="0.2" d="M388.825 359.077H381.448C381.436 346.394 375.405 334.233 364.679 325.262C353.953 316.293 339.408 311.247 324.236 311.233H311.189V305.057H324.236C341.363 305.078 357.781 310.777 369.89 320.904C381.998 331.031 388.807 344.758 388.825 359.077Z" fill="#F08778"/>
<path opacity="0.2" d="M102.209 359.075H94.8037C94.8129 353.034 97.6875 347.243 102.798 342.97C107.907 338.699 114.835 336.296 122.061 336.288H127.107V342.479H122.061C116.799 342.485 111.754 344.236 108.033 347.347C104.311 350.458 102.217 354.676 102.209 359.075Z" fill="#A7594E"/>
<path opacity="0.2" d="M348.206 372.579H66.5329C65.5512 372.579 64.609 372.253 63.9149 371.673C63.2201 371.092 62.8301 370.305 62.8301 369.484C62.8301 368.663 63.2201 367.875 63.9149 367.295C64.609 366.715 65.5512 366.388 66.5329 366.388H348.206C349.189 366.388 350.13 366.715 350.825 367.295C351.519 367.875 351.909 368.663 351.909 369.484C351.909 370.305 351.519 371.092 350.825 371.673C350.13 372.253 349.189 372.579 348.206 372.579Z" fill="#F08778"/>
<path opacity="0.2" d="M17.0642 372.578C16.8217 372.579 16.5799 372.558 16.3426 372.516C16.1056 372.477 15.8736 372.419 15.6495 372.344C15.4262 372.266 15.2116 372.171 15.008 372.061C14.803 371.947 14.6112 371.817 14.4353 371.673C14.0907 371.386 13.8181 371.045 13.6334 370.668C13.5435 370.481 13.4745 370.287 13.4273 370.088C13.3283 369.689 13.3283 369.277 13.4273 368.877C13.4745 368.679 13.5435 368.485 13.6334 368.298C13.7272 368.111 13.8403 367.932 13.9714 367.761C14.2423 367.422 14.5907 367.131 14.9966 366.905C15.2002 366.795 15.4148 366.7 15.6381 366.622C15.8622 366.547 16.0942 366.489 16.3311 366.45C16.8092 366.368 17.3021 366.368 17.7802 366.45C18.0171 366.489 18.2491 366.547 18.4732 366.622C18.6965 366.7 18.9111 366.795 19.1147 366.905C19.5206 367.131 19.869 367.422 20.1399 367.761C20.2711 367.932 20.3841 368.111 20.4778 368.298C20.5681 368.486 20.639 368.679 20.6897 368.877C20.7842 369.277 20.7842 369.689 20.6897 370.088C20.639 370.287 20.5681 370.48 20.4778 370.668C20.3841 370.854 20.2711 371.034 20.1399 371.205C20.0048 371.376 19.8495 371.537 19.676 371.683C19.5001 371.827 19.3083 371.957 19.1032 372.071C18.8997 372.18 18.685 372.275 18.4617 372.354C18.2376 372.429 18.0056 372.486 17.7687 372.526C17.5366 372.563 17.3006 372.581 17.0642 372.578Z" fill="#F08778"/>
<path opacity="0.2" d="M385.893 372.579H362.004C361.021 372.579 360.08 372.253 359.386 371.673C358.691 371.092 358.301 370.305 358.301 369.484C358.301 368.663 358.691 367.875 359.386 367.295C360.08 366.715 361.021 366.388 362.004 366.388H385.893C386.875 366.388 387.817 366.715 388.511 367.295C389.206 367.875 389.596 368.663 389.596 369.484C389.596 370.305 389.206 371.092 388.511 371.673C387.817 372.253 386.875 372.579 385.893 372.579Z" fill="#F08778"/>
<path opacity="0.2" d="M399.021 372.579C398.778 372.579 398.536 372.558 398.299 372.517C398.062 372.477 397.83 372.419 397.606 372.344C397.383 372.266 397.168 372.171 396.965 372.062C396.759 371.948 396.568 371.818 396.392 371.674C396.218 371.528 396.063 371.367 395.928 371.195C395.797 371.025 395.684 370.845 395.59 370.659C395.5 370.471 395.429 370.277 395.378 370.079C395.284 369.68 395.284 369.268 395.378 368.868C395.429 368.67 395.5 368.476 395.59 368.289C395.684 368.102 395.797 367.922 395.928 367.752C396.199 367.413 396.547 367.122 396.953 366.895C397.156 366.786 397.371 366.691 397.595 366.613C397.818 366.538 398.05 366.48 398.288 366.44C398.766 366.358 399.258 366.358 399.737 366.44C399.974 366.48 400.206 366.538 400.43 366.613C400.653 366.691 400.868 366.786 401.071 366.895C401.477 367.122 401.825 367.413 402.096 367.752C402.228 367.922 402.34 368.102 402.434 368.289C402.524 368.476 402.594 368.67 402.64 368.868C402.74 369.267 402.74 369.68 402.64 370.079C402.594 370.278 402.524 370.471 402.434 370.659C402.34 370.845 402.228 371.025 402.096 371.195C401.961 371.367 401.806 371.528 401.632 371.674C401.457 371.818 401.265 371.948 401.06 372.062C400.856 372.171 400.642 372.266 400.418 372.344C400.194 372.419 399.962 372.477 399.725 372.517C399.494 372.557 399.257 372.578 399.021 372.579Z" fill="#F08778"/>
<path d="M119.69 310.04C118.716 310.042 117.767 309.784 116.98 309.305C116.194 308.825 115.61 308.149 115.314 307.373C110.652 295.527 103.091 271.763 104.741 245.682C105.657 231.212 109.323 217.844 115.572 205.94C123.087 191.72 134.588 179.222 149.101 169.502L152.279 172.782C126.03 190.57 111.728 215.172 109.781 245.907C108.246 270.15 114.936 292.386 119.472 304.414C121.712 284.088 129.948 266.884 136.563 255.914C143.94 243.685 150.779 236.513 151.065 236.216L155 238.859C154.897 238.969 148.127 246.089 141.002 257.925C134.432 268.843 126.208 286.123 124.329 306.463C124.256 307.36 123.81 308.206 123.066 308.854C122.323 309.503 121.331 309.912 120.262 310.011C120.072 310.031 119.881 310.04 119.69 310.04Z" fill="#00A082"/>
<path d="M207.991 4.54914C207.289 3.88522 206.425 3.35361 205.459 2.98951C204.492 2.62542 203.444 2.43713 202.384 2.43713C201.323 2.43713 200.275 2.62542 199.308 2.98951C198.342 3.35361 197.478 3.88522 196.776 4.54914C180.619 19.8378 135.097 69.0079 135.097 137.733C135.097 205.002 152.548 235.211 159.353 244.428C160.807 246.396 163.975 247.665 167.428 247.665H237.344C240.815 247.665 243.977 246.406 245.42 244.428C252.224 235.211 269.693 205.002 269.693 137.733C269.693 69.0079 224.154 19.8378 207.991 4.54914Z" fill="#00A082"/>
<path d="M202.83 61.4233H201.484V247.105H202.83V61.4233Z" fill="#274B5B"/>
<path opacity="0.2" d="M201.484 61.4233H200.138V247.105H201.484V61.4233Z" fill="#274B5B"/>
<path opacity="0.3" d="M204.177 61.4233H202.831V247.105H204.177V61.4233Z" fill="white"/>
<path d="M246.915 59.7327H156.42C161.938 48.6336 168.414 37.8844 175.797 27.5704C176.442 26.6702 177.081 25.7908 177.715 24.9321C190.614 8.79112 200.494 0 200.494 0C200.494 0 214.24 12.2242 230.443 34.3217L230.678 34.6473C235.998 42.002 241.537 50.3909 246.915 59.7327Z" fill="#ECF2FA"/>
<path d="M246.239 58.9196L241.291 58.3259C233.118 48.3329 210.511 27.9399 179.354 25.1292C179.926 24.229 182.217 22.3903 182.79 21.5333C187.263 15.3852 191.335 11.253 194.663 7.31712C195.549 6.2629 196.722 5.39955 198.085 4.7981C199.448 4.19661 200.962 3.87421 202.503 3.85738C204.044 3.84055 205.568 4.12978 206.949 4.70128C208.33 5.27275 209.529 6.11021 210.448 7.14474C217.48 14.995 223.879 23.2282 229.601 31.7896C229.67 31.8949 230.414 32.005 230.489 32.1152C235.329 39.4698 244.223 44.009 246.239 58.9196Z" fill="#8BBACC"/>
<path d="M170.035 52.5398C169.743 52.5394 169.457 52.4757 169.204 52.355C168.951 52.2344 168.739 52.061 168.59 51.8518C168.441 51.6421 168.36 51.4041 168.354 51.1604C168.349 50.9167 168.418 50.6763 168.557 50.4618C170.195 47.9432 171.994 45.4104 173.786 42.9636C175.505 40.5695 177.269 38.1323 178.849 35.7191C179.072 35.4066 179.431 35.1784 179.851 35.0823C180.271 34.9862 180.719 35.0298 181.101 35.2038C181.484 35.3778 181.77 35.6688 181.901 36.0157C182.033 36.3626 181.998 36.7385 181.805 37.0646C180.195 39.5353 178.403 42.0156 176.65 44.4144C174.897 46.8133 173.099 49.3366 171.495 51.8025C171.353 52.0232 171.142 52.2075 170.885 52.3373C170.628 52.4671 170.335 52.537 170.035 52.5398Z" fill="white"/>
<g opacity="0.4">
<path opacity="0.4" d="M219.183 110.636C221.348 107.706 222.883 105.22 223.118 105.307C223.353 105.393 222.11 108.036 219.91 111.009C217.711 113.983 215.449 116.099 215.271 115.979C215.094 115.86 217.035 113.576 219.183 110.636Z" fill="#426270"/>
<path opacity="0.4" d="M223.069 113.281C224.471 111.304 225.442 109.62 225.238 109.519C225.034 109.417 223.732 110.938 222.33 112.915C220.928 114.891 219.956 116.575 220.16 116.677C220.364 116.778 221.667 115.257 223.069 113.281Z" fill="#426270"/>
<path opacity="0.4" d="M220.036 112.585C223.197 113.653 225.838 114.39 225.763 114.587C225.689 114.783 222.899 114.342 219.703 113.251C216.507 112.159 214.108 110.857 214.222 110.703C214.337 110.55 216.868 111.527 220.036 112.585Z" fill="#426270"/>
<path opacity="0.4" d="M223.025 111.866C225.889 112.991 228.312 113.699 228.243 113.896C228.175 114.092 225.597 113.661 222.665 112.517C219.732 111.372 217.676 109.984 217.808 109.84C217.939 109.696 220.162 110.759 223.025 111.866Z" fill="#426270"/>
</g>
<path d="M180.699 249.072H168.425C164.954 249.072 161.793 247.807 160.349 245.83C153.551 236.589 136.099 206.308 136.099 138.876C136.099 72.8422 177.91 24.8165 195.665 7.44971C179.76 23.2029 145.32 64.9082 145.32 130.626L165.51 106.944C165.092 107.863 124.318 207.017 180.699 249.072Z" fill="white"/>
<path d="M172.463 247.803H169.095C165.624 247.803 162.463 246.539 161.019 244.562C154.221 235.32 136.769 205.04 136.769 137.608C136.769 71.5739 178.58 23.5482 196.301 6.19104C187.269 15.1402 172.199 32.5261 160.905 57.9036C149.318 79.6372 140.125 106.633 140.125 137.579C140.125 205.016 157.577 235.297 164.376 244.533C165.836 246.539 168.998 247.803 172.463 247.803Z" fill="white"/>
<path opacity="0.8" d="M222.023 247.664H234.297C237.768 247.664 240.93 246.405 242.373 244.432C249.172 235.22 266.623 205.026 266.623 137.785C266.623 71.9522 224.812 24.0561 207.057 6.73718C222.962 22.4424 261.108 64.0182 261.108 129.559L243.633 105.944C244.028 106.863 278.41 205.729 222.023 247.664Z" fill="#1B5A6E"/>
<g opacity="0.9">
<path opacity="0.9" d="M159.502 81.969C160.076 80.0892 160.766 78.2352 161.569 76.4147C162.233 74.9251 162.998 73.4691 163.86 72.0527C165.344 69.6586 166.627 68.294 167.159 68.4807C167.692 68.6675 167.434 70.3529 166.707 72.9242C166.346 74.2122 165.888 75.7396 165.361 77.4011L163.66 82.8357L162.016 88.3086C161.524 89.9988 161.06 91.5023 160.647 92.7808C159.817 95.3329 159.107 96.9178 158.511 96.8699C157.915 96.822 157.566 95.1318 157.64 92.4169C157.696 90.8315 157.861 89.2504 158.133 87.6814C158.471 85.7589 158.928 83.8522 159.502 81.969Z" fill="white"/>
</g>
<g opacity="0.9">
<path opacity="0.9" d="M158.021 103.833C158.515 101.541 157.97 99.5392 156.803 99.3635C155.636 99.1873 154.288 100.903 153.793 103.196C153.298 105.489 153.843 107.49 155.011 107.666C156.178 107.842 157.525 106.126 158.021 103.833Z" fill="white"/>
</g>
<g opacity="0.2">
<path opacity="0.2" d="M192 17.5827C194.789 15.8925 197.384 14.4225 199.285 13.4122C201.187 12.4019 202.412 11.8177 202.481 11.9087C202.55 11.9997 201.444 12.7083 199.617 13.824L192.492 18.1333L185.384 22.505C183.552 23.6062 182.395 24.267 182.32 24.1952C182.246 24.1234 183.271 23.3189 185.012 22.1123C186.753 20.9057 189.21 19.2825 192 17.5827Z" fill="#426270"/>
<path opacity="0.2" d="M193.031 20.3222C199.165 18.3542 204.108 16.7023 204.205 16.8891C204.251 16.98 203.06 17.5115 201.118 18.2681C199.176 19.0246 196.404 20.0062 193.34 20.9925C190.276 21.9789 187.435 22.7881 185.373 23.31C183.311 23.8319 182.005 24.1001 181.971 24.0091C181.885 23.8176 186.902 22.2901 193.031 20.3222Z" fill="#426270"/>
</g>
<path d="M196.267 93.633C196.034 93.633 195.806 93.5751 195.611 93.4669C195.417 93.3582 195.266 93.204 195.177 93.0239C195.087 92.8439 195.064 92.6452 195.11 92.4541C195.155 92.2626 195.267 92.0869 195.433 91.949C195.598 91.8111 195.808 91.7172 196.036 91.6789C196.266 91.6411 196.503 91.6607 196.719 91.735C196.934 91.8097 197.118 91.9361 197.248 92.0984C197.377 92.2607 197.447 92.4513 197.447 92.6466C197.447 92.9081 197.322 93.159 197.101 93.3438C196.88 93.5291 196.58 93.633 196.267 93.633ZM196.267 92.2253C196.167 92.2253 196.07 92.2497 195.987 92.2961C195.904 92.3426 195.839 92.4082 195.801 92.4853C195.763 92.5624 195.753 92.6471 195.772 92.7285C195.792 92.8104 195.84 92.8856 195.91 92.9445C195.981 93.0034 196.071 93.0436 196.169 93.0599C196.266 93.0761 196.368 93.0675 196.46 93.0359C196.552 93.0038 196.63 92.9497 196.686 92.8808C196.742 92.8113 196.771 92.7299 196.771 92.6466C196.771 92.5346 196.718 92.4273 196.623 92.3483C196.528 92.2693 196.401 92.2253 196.267 92.2253Z" fill="#274B5B"/>
<path opacity="0.2" d="M196.267 94.4767C195.834 94.4767 195.411 94.3694 195.051 94.1683C194.691 93.9672 194.411 93.6818 194.245 93.3476C194.08 93.0134 194.036 92.6457 194.12 92.2909C194.205 91.9361 194.414 91.61 194.72 91.3543C195.025 91.0981 195.415 90.9243 195.84 90.8535C196.264 90.7831 196.704 90.8195 197.104 90.9578C197.504 91.0962 197.845 91.3304 198.086 91.6315C198.326 91.9322 198.454 92.2856 198.454 92.6476C198.454 93.1326 198.224 93.598 197.814 93.9409C197.403 94.2837 196.847 94.4767 196.267 94.4767ZM196.267 91.9437C196.1 91.9437 195.937 91.9849 195.799 92.0625C195.661 92.1396 195.552 92.2497 195.489 92.378C195.425 92.5068 195.409 92.6486 195.441 92.785C195.473 92.9215 195.553 93.0469 195.671 93.1451C195.789 93.2437 195.939 93.3108 196.102 93.3381C196.265 93.3649 196.435 93.351 196.589 93.2978C196.743 93.2447 196.874 93.1542 196.966 93.0388C197.059 92.9229 197.108 92.7869 197.108 92.6476C197.11 92.5542 197.09 92.4618 197.048 92.3751C197.006 92.289 196.944 92.2099 196.866 92.1434C196.788 92.0773 196.694 92.0246 196.591 91.9887C196.489 91.9528 196.378 91.9341 196.267 91.9341V91.9437Z" fill="#274B5B"/>
<path d="M196.267 74.3605C196.034 74.3605 195.806 74.3026 195.611 74.1944C195.417 74.0857 195.266 73.9315 195.177 73.7515C195.087 73.5714 195.064 73.3727 195.11 73.1817C195.155 72.9902 195.267 72.8144 195.433 72.6765C195.598 72.5386 195.808 72.4448 196.036 72.4065C196.266 72.3686 196.503 72.3883 196.719 72.4625C196.934 72.5372 197.118 72.6636 197.248 72.8259C197.377 72.9882 197.447 73.1788 197.447 73.3742C197.447 73.6356 197.322 73.8865 197.101 74.0713C196.88 74.2566 196.58 74.3605 196.267 74.3605ZM196.267 72.9528C196.167 72.9528 196.07 72.9772 195.987 73.0237C195.904 73.0701 195.839 73.1357 195.801 73.2128C195.763 73.2899 195.753 73.3746 195.772 73.456C195.792 73.5379 195.84 73.6131 195.91 73.672C195.981 73.7309 196.071 73.7711 196.169 73.7874C196.266 73.8037 196.368 73.7951 196.46 73.7634C196.552 73.7314 196.63 73.6773 196.686 73.6083C196.742 73.5389 196.771 73.4575 196.771 73.3742C196.77 73.2631 196.716 73.1573 196.621 73.0792C196.527 73.0012 196.4 72.9576 196.267 72.9576V72.9528Z" fill="#274B5B"/>
<path opacity="0.2" d="M196.267 75.2081C195.834 75.2081 195.411 75.1009 195.051 74.8998C194.691 74.6987 194.411 74.4133 194.245 74.0791C194.08 73.7449 194.036 73.3766 194.12 73.0218C194.205 72.667 194.414 72.3414 194.72 72.0857C195.025 71.8296 195.415 71.6553 195.84 71.5849C196.264 71.5145 196.704 71.5504 197.104 71.6888C197.504 71.8277 197.845 72.0618 198.086 72.3625C198.326 72.6637 198.454 73.017 198.454 73.379C198.454 73.8641 198.224 74.329 197.814 74.6723C197.403 75.0152 196.847 75.2081 196.267 75.2081ZM196.267 72.6752C196.1 72.6752 195.937 72.7163 195.799 72.7934C195.661 72.871 195.552 72.9811 195.489 73.1095C195.425 73.2383 195.409 73.3795 195.441 73.516C195.473 73.6529 195.553 73.7784 195.671 73.8765C195.789 73.9752 195.939 74.0422 196.102 74.069C196.265 74.0963 196.435 74.0824 196.589 74.0293C196.743 73.9761 196.874 73.8856 196.966 73.7697C197.059 73.6544 197.108 73.5179 197.108 73.379C197.108 73.1923 197.02 73.0132 196.862 72.8811C196.704 72.7494 196.49 72.6752 196.267 72.6752Z" fill="#274B5B"/>
<path d="M208.043 80.5513C207.809 80.5513 207.582 80.4938 207.387 80.3851C207.193 80.2769 207.042 80.1227 206.953 79.9427C206.863 79.7622 206.84 79.564 206.886 79.3724C206.931 79.1814 207.044 79.0057 207.209 78.8678C207.374 78.7299 207.584 78.6355 207.812 78.5977C208.041 78.5594 208.279 78.579 208.494 78.6537C208.71 78.7284 208.894 78.8548 209.024 79.0172C209.153 79.1795 209.222 79.37 209.222 79.5649C209.222 79.6947 209.192 79.823 209.133 79.9427C209.074 80.0624 208.986 80.1711 208.877 80.2626C208.768 80.354 208.638 80.4268 208.494 80.4766C208.351 80.5259 208.198 80.5513 208.043 80.5513ZM208.043 79.1436C207.943 79.1436 207.846 79.1685 207.763 79.2149C207.68 79.2609 207.615 79.3269 207.577 79.404C207.539 79.4807 207.529 79.5654 207.548 79.6473C207.568 79.7292 207.616 79.8043 207.686 79.8632C207.757 79.9221 207.847 79.9623 207.945 79.9781C208.042 79.9944 208.143 79.9863 208.236 79.9542C208.328 79.9226 208.406 79.8685 208.462 79.7991C208.517 79.7301 208.547 79.6482 208.547 79.5649C208.547 79.4534 208.494 79.3461 208.399 79.2671C208.305 79.1881 208.177 79.1436 208.043 79.1436Z" fill="#274B5B"/>
<path opacity="0.2" d="M208.042 81.3988C207.609 81.3988 207.187 81.2915 206.827 81.0909C206.467 80.8898 206.187 80.6039 206.021 80.2697C205.856 79.9355 205.812 79.5678 205.896 79.213C205.981 78.8582 206.19 78.5321 206.495 78.2764C206.801 78.0207 207.191 77.8464 207.616 77.776C208.04 77.7052 208.48 77.7416 208.88 77.8799C209.28 78.0183 209.622 78.2529 209.861 78.5536C210.102 78.8543 210.23 79.2082 210.23 79.5697C210.23 80.0547 210 80.5201 209.589 80.8635C209.179 81.2063 208.623 81.3988 208.042 81.3988ZM208.042 78.8658C207.876 78.8658 207.713 78.9075 207.574 78.9846C207.436 79.0621 207.328 79.1718 207.265 79.3006C207.201 79.4289 207.184 79.5706 207.217 79.7071C207.249 79.8436 207.329 79.969 207.447 80.0677C207.565 80.1658 207.715 80.2329 207.878 80.2601C208.041 80.2874 208.211 80.2736 208.365 80.2199C208.518 80.1668 208.65 80.0768 208.742 79.9609C208.835 79.845 208.884 79.709 208.884 79.5697C208.884 79.3834 208.796 79.2043 208.638 79.0722C208.48 78.94 208.266 78.8658 208.042 78.8658Z" fill="#274B5B"/>
<path d="M208.043 150.603C207.809 150.603 207.582 150.545 207.387 150.437C207.193 150.329 207.042 150.174 206.953 149.994C206.863 149.814 206.84 149.616 206.886 149.424C206.931 149.233 207.044 149.057 207.209 148.919C207.374 148.781 207.584 148.687 207.812 148.649C208.041 148.611 208.279 148.631 208.494 148.705C208.71 148.78 208.894 148.906 209.024 149.069C209.153 149.231 209.222 149.422 209.222 149.617C209.222 149.878 209.098 150.129 208.877 150.314C208.656 150.499 208.356 150.603 208.043 150.603ZM208.043 149.195C207.943 149.195 207.846 149.22 207.763 149.266C207.68 149.313 207.615 149.379 207.577 149.455C207.539 149.532 207.529 149.617 207.548 149.699C207.568 149.781 207.616 149.855 207.686 149.914C207.757 149.973 207.847 150.014 207.945 150.03C208.042 150.046 208.143 150.038 208.236 150.006C208.328 149.974 208.406 149.92 208.462 149.851C208.517 149.781 208.547 149.7 208.547 149.617C208.545 149.506 208.492 149.4 208.397 149.322C208.303 149.244 208.175 149.2 208.043 149.2V149.195Z" fill="#274B5B"/>
<path opacity="0.2" d="M208.042 151.45C207.609 151.45 207.187 151.343 206.827 151.142C206.467 150.941 206.187 150.656 206.021 150.321C205.856 149.987 205.812 149.619 205.896 149.265C205.981 148.91 206.19 148.584 206.495 148.328C206.801 148.072 207.191 147.898 207.616 147.828C208.04 147.757 208.48 147.793 208.88 147.932C209.28 148.07 209.622 148.305 209.861 148.605C210.102 148.906 210.23 149.26 210.23 149.621C210.23 150.106 210 150.572 209.589 150.915C209.179 151.258 208.623 151.45 208.042 151.45ZM208.042 148.917C207.876 148.917 207.713 148.959 207.574 149.036C207.436 149.113 207.328 149.223 207.265 149.352C207.201 149.481 207.184 149.622 207.217 149.759C207.249 149.895 207.329 150.021 207.447 150.119C207.565 150.217 207.715 150.284 207.878 150.312C208.041 150.339 208.211 150.325 208.365 150.272C208.518 150.218 208.65 150.128 208.742 150.013C208.835 149.897 208.884 149.761 208.884 149.621C208.885 149.528 208.864 149.437 208.822 149.351C208.78 149.265 208.718 149.187 208.64 149.12C208.561 149.055 208.469 149.003 208.366 148.967C208.263 148.931 208.154 148.913 208.042 148.913V148.917Z" fill="#274B5B"/>
<path d="M208.409 164.953C208.176 164.953 207.948 164.895 207.754 164.787C207.56 164.678 207.408 164.524 207.319 164.344C207.23 164.164 207.207 163.965 207.252 163.774C207.298 163.582 207.41 163.407 207.575 163.269C207.74 163.131 207.95 163.037 208.179 162.999C208.408 162.961 208.645 162.98 208.861 163.055C209.076 163.13 209.261 163.256 209.39 163.418C209.52 163.58 209.589 163.771 209.589 163.966C209.589 164.228 209.465 164.479 209.244 164.664C209.022 164.849 208.722 164.953 208.409 164.953ZM208.409 163.545C208.309 163.545 208.212 163.57 208.13 163.616C208.046 163.662 207.982 163.728 207.943 163.805C207.906 163.882 207.895 163.967 207.915 164.049C207.934 164.13 207.982 164.205 208.053 164.264C208.123 164.323 208.213 164.363 208.311 164.38C208.408 164.396 208.51 164.388 208.602 164.356C208.694 164.324 208.773 164.27 208.828 164.2C208.884 164.131 208.913 164.05 208.913 163.966C208.913 163.855 208.86 163.747 208.766 163.668C208.671 163.589 208.543 163.545 208.409 163.545Z" fill="#274B5B"/>
<path opacity="0.2" d="M208.409 165.796C207.977 165.796 207.553 165.689 207.194 165.488C206.834 165.287 206.553 165.002 206.388 164.667C206.222 164.333 206.179 163.965 206.263 163.611C206.348 163.256 206.556 162.93 206.862 162.674C207.168 162.418 207.558 162.244 207.982 162.173C208.407 162.103 208.847 162.139 209.246 162.278C209.646 162.416 209.988 162.651 210.228 162.951C210.469 163.252 210.597 163.606 210.597 163.967C210.597 164.452 210.367 164.918 209.956 165.261C209.546 165.604 208.989 165.796 208.409 165.796ZM208.409 163.263C208.242 163.263 208.08 163.305 207.942 163.382C207.803 163.459 207.695 163.569 207.631 163.698C207.568 163.827 207.551 163.968 207.583 164.105C207.616 164.241 207.696 164.367 207.814 164.465C207.931 164.563 208.081 164.63 208.245 164.658C208.408 164.685 208.577 164.671 208.731 164.618C208.885 164.564 209.017 164.474 209.109 164.358C209.202 164.243 209.251 164.107 209.251 163.967C209.246 163.783 209.156 163.608 208.998 163.479C208.841 163.35 208.629 163.278 208.409 163.278V163.263Z" fill="#274B5B"/>
<path d="M195.236 146.668C195.003 146.668 194.775 146.61 194.58 146.501C194.386 146.393 194.235 146.239 194.146 146.059C194.056 145.878 194.034 145.68 194.079 145.489C194.125 145.298 194.237 145.122 194.402 144.984C194.567 144.846 194.777 144.752 195.006 144.714C195.235 144.676 195.472 144.695 195.688 144.77C195.903 144.845 196.087 144.971 196.217 145.133C196.347 145.296 196.416 145.486 196.416 145.681C196.416 145.943 196.291 146.194 196.07 146.379C195.849 146.564 195.549 146.668 195.236 146.668ZM195.236 145.26C195.136 145.26 195.039 145.285 194.956 145.331C194.873 145.377 194.808 145.443 194.77 145.52C194.732 145.597 194.722 145.682 194.741 145.764C194.761 145.845 194.809 145.921 194.879 145.979C194.95 146.038 195.04 146.079 195.138 146.095C195.235 146.111 195.337 146.103 195.429 146.07C195.521 146.039 195.599 145.985 195.655 145.915C195.711 145.846 195.74 145.764 195.74 145.681C195.74 145.57 195.687 145.462 195.593 145.383C195.498 145.304 195.37 145.26 195.236 145.26Z" fill="#274B5B"/>
<path opacity="0.2" d="M195.236 147.51C194.803 147.51 194.38 147.403 194.02 147.201C193.661 147 193.38 146.715 193.214 146.381C193.049 146.046 193.005 145.678 193.09 145.323C193.174 144.969 193.383 144.643 193.689 144.387C193.994 144.131 194.385 143.957 194.809 143.887C195.233 143.816 195.673 143.852 196.073 143.99C196.473 144.129 196.815 144.363 197.055 144.664C197.295 144.965 197.424 145.319 197.424 145.681C197.424 146.166 197.193 146.631 196.783 146.974C196.373 147.317 195.816 147.51 195.236 147.51ZM195.236 144.977C195.069 144.977 194.906 145.018 194.768 145.095C194.63 145.173 194.521 145.283 194.458 145.411C194.394 145.54 194.378 145.681 194.41 145.818C194.442 145.955 194.523 146.08 194.641 146.178C194.758 146.277 194.908 146.344 195.071 146.371C195.235 146.398 195.404 146.384 195.558 146.331C195.712 146.278 195.843 146.187 195.936 146.071C196.028 145.956 196.078 145.82 196.078 145.681C196.078 145.494 195.989 145.315 195.831 145.183C195.673 145.051 195.459 144.977 195.236 144.977Z" fill="#274B5B"/>
<path d="M195.236 161.012C195.003 161.012 194.775 160.954 194.58 160.845C194.386 160.737 194.235 160.583 194.146 160.403C194.056 160.222 194.034 160.024 194.079 159.833C194.125 159.642 194.237 159.466 194.402 159.328C194.567 159.19 194.777 159.096 195.006 159.058C195.235 159.02 195.472 159.039 195.688 159.114C195.903 159.189 196.087 159.315 196.217 159.477C196.347 159.64 196.416 159.83 196.416 160.025C196.416 160.287 196.291 160.538 196.07 160.723C195.849 160.908 195.549 161.012 195.236 161.012ZM195.236 159.604C195.136 159.604 195.039 159.629 194.956 159.675C194.873 159.721 194.808 159.787 194.77 159.864C194.732 159.941 194.722 160.026 194.741 160.108C194.761 160.189 194.809 160.265 194.879 160.323C194.95 160.382 195.04 160.423 195.138 160.439C195.235 160.455 195.337 160.447 195.429 160.414C195.521 160.383 195.599 160.329 195.655 160.259C195.711 160.19 195.74 160.108 195.74 160.025C195.739 159.915 195.685 159.809 195.59 159.731C195.496 159.653 195.369 159.609 195.236 159.609V159.604Z" fill="#274B5B"/>
<path opacity="0.2" d="M195.236 161.84C194.803 161.84 194.38 161.733 194.02 161.532C193.661 161.331 193.38 161.045 193.214 160.711C193.049 160.377 193.005 160.009 193.09 159.654C193.174 159.3 193.383 158.974 193.689 158.718C193.994 158.462 194.385 158.288 194.809 158.218C195.233 158.147 195.673 158.183 196.073 158.321C196.473 158.46 196.815 158.694 197.055 158.995C197.295 159.296 197.424 159.65 197.424 160.011C197.424 160.496 197.193 160.962 196.783 161.305C196.373 161.648 195.816 161.84 195.236 161.84ZM195.236 159.307C195.069 159.307 194.906 159.349 194.768 159.426C194.63 159.504 194.521 159.613 194.458 159.742C194.394 159.87 194.378 160.012 194.41 160.149C194.442 160.285 194.523 160.411 194.641 160.509C194.758 160.607 194.908 160.674 195.071 160.702C195.235 160.729 195.404 160.715 195.558 160.661C195.712 160.608 195.843 160.518 195.936 160.402C196.028 160.287 196.078 160.151 196.078 160.011C196.072 159.828 195.98 159.654 195.823 159.526C195.666 159.398 195.455 159.326 195.236 159.326V159.307Z" fill="#274B5B"/>
<path d="M196.267 112.905C196.034 112.905 195.806 112.848 195.611 112.739C195.417 112.631 195.266 112.476 195.177 112.296C195.087 112.116 195.064 111.918 195.11 111.727C195.155 111.535 195.267 111.359 195.433 111.221C195.598 111.084 195.808 110.99 196.036 110.951C196.266 110.914 196.503 110.933 196.719 111.007C196.934 111.082 197.118 111.209 197.248 111.371C197.377 111.533 197.447 111.724 197.447 111.919C197.447 112.181 197.322 112.431 197.101 112.616C196.88 112.802 196.58 112.905 196.267 112.905ZM196.267 111.498C196.167 111.498 196.07 111.522 195.987 111.569C195.904 111.615 195.839 111.681 195.801 111.758C195.763 111.835 195.753 111.92 195.772 112.001C195.792 112.083 195.84 112.158 195.91 112.217C195.981 112.276 196.071 112.316 196.169 112.332C196.266 112.349 196.368 112.34 196.46 112.308C196.552 112.276 196.63 112.222 196.686 112.153C196.742 112.084 196.771 112.002 196.771 111.919C196.771 111.807 196.718 111.7 196.623 111.621C196.528 111.542 196.401 111.498 196.267 111.498Z" fill="#274B5B"/>
<path opacity="0.2" d="M196.267 113.749C195.834 113.749 195.411 113.642 195.051 113.441C194.691 113.24 194.411 112.954 194.245 112.62C194.08 112.286 194.036 111.918 194.12 111.563C194.205 111.209 194.414 110.882 194.72 110.627C195.025 110.371 195.415 110.197 195.84 110.126C196.264 110.056 196.704 110.092 197.104 110.23C197.504 110.369 197.845 110.603 198.086 110.904C198.326 111.205 198.454 111.558 198.454 111.92C198.454 112.405 198.224 112.871 197.814 113.213C197.403 113.556 196.847 113.749 196.267 113.749ZM196.267 111.216C196.1 111.216 195.937 111.257 195.799 111.335C195.661 111.412 195.552 111.522 195.489 111.65C195.425 111.779 195.409 111.921 195.441 112.057C195.473 112.194 195.553 112.319 195.671 112.418C195.789 112.516 195.939 112.583 196.102 112.611C196.265 112.637 196.435 112.623 196.589 112.57C196.743 112.517 196.874 112.427 196.966 112.311C197.059 112.195 197.108 112.059 197.108 111.92C197.108 111.733 197.02 111.554 196.862 111.422C196.704 111.29 196.49 111.216 196.267 111.216Z" fill="#274B5B"/>
<path d="M223.186 54.1061C222.953 54.1061 222.725 54.0482 222.53 53.94C222.336 53.8313 222.185 53.6776 222.096 53.4971C222.006 53.317 221.983 53.1188 222.029 52.9273C222.074 52.7357 222.186 52.56 222.352 52.4221C222.517 52.2842 222.727 52.1904 222.955 52.1521C223.185 52.1142 223.422 52.1339 223.638 52.2086C223.853 52.2833 224.037 52.4097 224.167 52.5715C224.296 52.7338 224.366 52.9244 224.366 53.1198C224.366 53.249 224.335 53.3774 224.276 53.4971C224.217 53.6168 224.13 53.7255 224.02 53.8174C223.911 53.9089 223.78 53.9816 223.638 54.031C223.494 54.0807 223.341 54.1061 223.186 54.1061ZM223.186 52.6984C223.086 52.6984 222.989 52.7233 222.906 52.7693C222.823 52.8157 222.758 52.8813 222.72 52.9584C222.682 53.0355 222.672 53.1202 222.691 53.2021C222.711 53.2835 222.759 53.3587 222.829 53.4176C222.9 53.4765 222.99 53.5167 223.088 53.533C223.185 53.5493 223.286 53.5411 223.379 53.509C223.471 53.477 223.549 53.4233 223.605 53.3539C223.66 53.2845 223.69 53.2031 223.69 53.1198C223.69 53.0082 223.637 52.9009 223.542 52.8219C223.447 52.7429 223.32 52.6984 223.186 52.6984Z" fill="#274B5B"/>
<path opacity="0.2" d="M223.186 54.9497C222.753 54.9497 222.33 54.8424 221.971 54.6413C221.611 54.4407 221.33 54.1549 221.165 53.8206C220.999 53.4864 220.956 53.1187 221.04 52.7639C221.125 52.4091 221.333 52.083 221.639 51.8273C221.945 51.5716 222.335 51.3973 222.759 51.3265C223.184 51.2561 223.624 51.2925 224.023 51.4309C224.423 51.5692 224.764 51.8039 225.005 52.1046C225.246 52.4053 225.374 52.7591 225.374 53.1206C225.374 53.6057 225.144 54.0711 224.733 54.4139C224.323 54.7572 223.766 54.9497 223.186 54.9497ZM223.186 52.4167C223.019 52.4167 222.857 52.4579 222.718 52.5355C222.58 52.6126 222.472 52.7227 222.408 52.8515C222.345 52.9798 222.328 53.1216 222.36 53.258C222.393 53.3945 222.473 53.5199 222.591 53.6186C222.708 53.7167 222.858 53.7838 223.022 53.8111C223.185 53.8384 223.354 53.824 223.508 53.7708C223.662 53.7177 223.794 53.6277 223.886 53.5118C223.979 53.3959 224.028 53.2599 224.028 53.1206C224.028 52.9339 223.939 52.7548 223.781 52.6231C223.624 52.491 223.409 52.4167 223.186 52.4167Z" fill="#274B5B"/>
<path d="M180.785 54.1061C180.552 54.1061 180.324 54.0482 180.129 53.94C179.936 53.8313 179.785 53.6776 179.695 53.4971C179.606 53.317 179.582 53.1188 179.628 52.9273C179.674 52.7357 179.786 52.56 179.951 52.4221C180.116 52.2842 180.326 52.1904 180.555 52.1521C180.784 52.1142 181.021 52.1339 181.237 52.2086C181.453 52.2833 181.636 52.4097 181.766 52.5715C181.896 52.7338 181.965 52.9244 181.965 53.1198C181.965 53.249 181.935 53.3774 181.875 53.4971C181.816 53.6168 181.729 53.7255 181.62 53.8174C181.51 53.9089 181.38 53.9816 181.237 54.031C181.093 54.0807 180.94 54.1061 180.785 54.1061ZM180.785 52.6984C180.686 52.6984 180.588 52.7233 180.505 52.7693C180.422 52.8157 180.358 52.8813 180.32 52.9584C180.281 53.0355 180.272 53.1202 180.291 53.2021C180.31 53.2835 180.359 53.3587 180.429 53.4176C180.499 53.4765 180.589 53.5167 180.687 53.533C180.785 53.5493 180.886 53.5411 180.978 53.509C181.07 53.477 181.149 53.4233 181.205 53.3539C181.26 53.2845 181.289 53.2031 181.289 53.1198C181.289 53.0082 181.236 52.9009 181.142 52.8219C181.047 52.7429 180.919 52.6984 180.785 52.6984Z" fill="#274B5B"/>
<path opacity="0.2" d="M180.785 54.9497C180.353 54.9497 179.929 54.8424 179.57 54.6413C179.21 54.4407 178.929 54.1549 178.764 53.8206C178.598 53.4864 178.555 53.1187 178.639 52.7639C178.724 52.4091 178.932 52.083 179.238 51.8273C179.544 51.5716 179.934 51.3973 180.358 51.3265C180.783 51.2561 181.223 51.2925 181.622 51.4309C182.022 51.5692 182.364 51.8039 182.604 52.1046C182.845 52.4053 182.973 52.7591 182.973 53.1206C182.973 53.6057 182.743 54.0711 182.332 54.4139C181.922 54.7572 181.365 54.9497 180.785 54.9497ZM180.785 52.4167C180.618 52.4167 180.456 52.4579 180.317 52.5355C180.179 52.6126 180.071 52.7227 180.007 52.8515C179.944 52.9798 179.927 53.1216 179.959 53.258C179.992 53.3945 180.072 53.5199 180.19 53.6186C180.307 53.7167 180.457 53.7838 180.621 53.8111C180.784 53.8384 180.953 53.824 181.107 53.7708C181.261 53.7177 181.393 53.6277 181.485 53.5118C181.578 53.3959 181.627 53.2599 181.627 53.1206C181.627 52.9339 181.538 52.7548 181.381 52.6231C181.223 52.491 181.008 52.4167 180.785 52.4167Z" fill="#274B5B"/>
<path d="M201.988 54.1061C201.755 54.1061 201.527 54.0482 201.333 53.94C201.139 53.8313 200.988 53.6776 200.898 53.4971C200.809 53.317 200.786 53.1188 200.831 52.9273C200.877 52.7357 200.989 52.56 201.154 52.4221C201.319 52.2842 201.529 52.1904 201.758 52.1521C201.987 52.1142 202.224 52.1339 202.44 52.2086C202.656 52.2833 202.84 52.4097 202.97 52.5715C203.099 52.7338 203.168 52.9244 203.168 53.1198C203.168 53.249 203.138 53.3774 203.078 53.4971C203.019 53.6168 202.932 53.7255 202.823 53.8174C202.713 53.9089 202.583 53.9816 202.44 54.031C202.297 54.0807 202.144 54.1061 201.988 54.1061ZM201.988 52.6984C201.889 52.6984 201.791 52.7233 201.708 52.7693C201.625 52.8157 201.561 52.8813 201.523 52.9584C201.484 53.0355 201.475 53.1202 201.494 53.2021C201.514 53.2835 201.562 53.3587 201.632 53.4176C201.703 53.4765 201.793 53.5167 201.89 53.533C201.988 53.5493 202.089 53.5411 202.181 53.509C202.274 53.477 202.352 53.4233 202.408 53.3539C202.463 53.2845 202.492 53.2031 202.492 53.1198C202.492 53.0082 202.439 52.9009 202.345 52.8219C202.25 52.7429 202.122 52.6984 201.988 52.6984Z" fill="#274B5B"/>
<path opacity="0.2" d="M201.989 54.9497C201.556 54.9497 201.133 54.8424 200.773 54.6413C200.413 54.4407 200.133 54.1549 199.967 53.8206C199.802 53.4864 199.758 53.1187 199.843 52.7639C199.927 52.4091 200.136 52.083 200.442 51.8273C200.747 51.5716 201.137 51.3973 201.562 51.3265C201.986 51.2561 202.426 51.2925 202.826 51.4309C203.226 51.5692 203.568 51.8039 203.808 52.1046C204.048 52.4053 204.176 52.7591 204.176 53.1206C204.176 53.6057 203.946 54.0711 203.536 54.4139C203.125 54.7572 202.569 54.9497 201.989 54.9497ZM201.989 52.4167C201.822 52.4167 201.659 52.4579 201.521 52.5355C201.383 52.6126 201.274 52.7227 201.211 52.8515C201.147 52.9798 201.131 53.1216 201.163 53.258C201.195 53.3945 201.275 53.5199 201.393 53.6186C201.511 53.7167 201.661 53.7838 201.824 53.8111C201.988 53.8384 202.157 53.824 202.311 53.7708C202.464 53.7177 202.596 53.6277 202.688 53.5118C202.781 53.3959 202.83 53.2599 202.83 53.1206C202.83 52.9339 202.742 52.7548 202.584 52.6231C202.426 52.491 202.212 52.4167 201.989 52.4167Z" fill="#274B5B"/>
<path d="M196.267 182.396C196.034 182.396 195.806 182.338 195.611 182.229C195.417 182.121 195.266 181.967 195.177 181.787C195.087 181.607 195.064 181.408 195.11 181.217C195.155 181.026 195.267 180.85 195.433 180.712C195.598 180.574 195.808 180.48 196.036 180.442C196.266 180.404 196.503 180.423 196.719 180.498C196.934 180.573 197.118 180.699 197.248 180.861C197.377 181.024 197.447 181.214 197.447 181.41C197.447 181.671 197.322 181.922 197.101 182.107C196.88 182.292 196.58 182.396 196.267 182.396ZM196.267 180.988C196.167 180.988 196.07 181.013 195.987 181.059C195.904 181.106 195.839 181.171 195.801 181.248C195.763 181.325 195.753 181.41 195.772 181.492C195.792 181.573 195.84 181.649 195.91 181.708C195.981 181.766 196.071 181.807 196.169 181.823C196.266 181.839 196.368 181.831 196.46 181.799C196.552 181.767 196.63 181.713 196.686 181.643C196.742 181.574 196.771 181.493 196.771 181.41C196.77 181.299 196.716 181.193 196.621 181.115C196.527 181.037 196.4 180.993 196.267 180.993V180.988Z" fill="#274B5B"/>
<path opacity="0.2" d="M196.267 183.24C195.834 183.24 195.411 183.132 195.051 182.931C194.691 182.73 194.411 182.445 194.245 182.111C194.08 181.776 194.036 181.409 194.12 181.054C194.205 180.699 194.414 180.373 194.72 180.117C195.025 179.861 195.415 179.687 195.84 179.616C196.264 179.546 196.704 179.582 197.104 179.721C197.504 179.859 197.845 180.093 198.086 180.394C198.326 180.695 198.454 181.049 198.454 181.411C198.454 181.896 198.224 182.361 197.814 182.704C197.403 183.047 196.847 183.24 196.267 183.24ZM196.267 180.707C196.1 180.707 195.937 180.748 195.799 180.826C195.661 180.903 195.552 181.013 195.489 181.141C195.425 181.27 195.409 181.411 195.441 181.548C195.473 181.685 195.553 181.81 195.671 181.908C195.789 182.007 195.939 182.074 196.102 182.101C196.265 182.128 196.435 182.114 196.589 182.061C196.743 182.008 196.874 181.917 196.966 181.801C197.059 181.686 197.108 181.55 197.108 181.411C197.108 181.224 197.02 181.045 196.862 180.913C196.704 180.781 196.49 180.707 196.267 180.707Z" fill="#274B5B"/>
<path d="M196.267 203.019C196.034 203.019 195.806 202.961 195.611 202.853C195.417 202.744 195.266 202.59 195.177 202.41C195.087 202.23 195.064 202.031 195.11 201.84C195.155 201.648 195.267 201.473 195.433 201.335C195.598 201.197 195.808 201.103 196.036 201.065C196.266 201.027 196.503 201.046 196.719 201.121C196.934 201.196 197.118 201.322 197.248 201.484C197.377 201.646 197.447 201.837 197.447 202.032C197.447 202.294 197.322 202.545 197.101 202.73C196.88 202.915 196.58 203.019 196.267 203.019ZM196.267 201.611C196.167 201.611 196.07 201.636 195.987 201.682C195.904 201.728 195.839 201.794 195.801 201.871C195.763 201.948 195.753 202.033 195.772 202.115C195.792 202.196 195.84 202.271 195.91 202.33C195.981 202.389 196.071 202.429 196.169 202.446C196.266 202.462 196.368 202.454 196.46 202.422C196.552 202.39 196.63 202.336 196.686 202.267C196.742 202.197 196.771 202.116 196.771 202.032C196.768 201.922 196.713 201.817 196.62 201.741C196.525 201.664 196.398 201.621 196.267 201.621V201.611Z" fill="#274B5B"/>
<path opacity="0.2" d="M196.267 203.872C195.834 203.872 195.411 203.765 195.051 203.564C194.691 203.362 194.411 203.077 194.245 202.742C194.08 202.408 194.036 202.04 194.12 201.686C194.205 201.331 194.414 201.005 194.72 200.749C195.025 200.493 195.415 200.319 195.84 200.249C196.264 200.178 196.704 200.214 197.104 200.353C197.504 200.491 197.845 200.726 198.086 201.026C198.326 201.328 198.454 201.681 198.454 202.043C198.454 202.528 198.224 202.993 197.814 203.336C197.403 203.679 196.847 203.872 196.267 203.872ZM196.267 201.339C196.1 201.339 195.937 201.38 195.799 201.457C195.661 201.535 195.552 201.644 195.489 201.773C195.425 201.902 195.409 202.043 195.441 202.18C195.473 202.317 195.553 202.442 195.671 202.54C195.789 202.639 195.939 202.706 196.102 202.733C196.265 202.76 196.435 202.746 196.589 202.693C196.743 202.639 196.874 202.549 196.966 202.434C197.059 202.318 197.108 202.182 197.108 202.043C197.108 201.856 197.02 201.677 196.862 201.545C196.704 201.413 196.49 201.339 196.267 201.339Z" fill="#274B5B"/>
<path d="M196.267 223.66C196.034 223.66 195.806 223.602 195.611 223.494C195.417 223.386 195.266 223.232 195.177 223.052C195.087 222.871 195.064 222.673 195.11 222.481C195.155 222.29 195.267 222.115 195.433 221.977C195.598 221.839 195.808 221.744 196.036 221.707C196.266 221.668 196.503 221.688 196.719 221.763C196.934 221.837 197.118 221.964 197.248 222.126C197.377 222.288 197.447 222.479 197.447 222.674C197.447 222.936 197.322 223.187 197.101 223.371C196.88 223.556 196.58 223.66 196.267 223.66ZM196.267 222.252C196.167 222.252 196.07 222.277 195.987 222.324C195.904 222.37 195.839 222.436 195.801 222.513C195.763 222.59 195.753 222.674 195.772 222.756C195.792 222.838 195.84 222.913 195.91 222.972C195.981 223.031 196.071 223.071 196.169 223.087C196.266 223.103 196.368 223.095 196.46 223.063C196.552 223.031 196.63 222.977 196.686 222.908C196.742 222.839 196.771 222.757 196.771 222.674C196.771 222.562 196.718 222.455 196.623 222.376C196.528 222.297 196.401 222.252 196.267 222.252Z" fill="#274B5B"/>
<path opacity="0.2" d="M196.267 224.504C195.834 224.504 195.411 224.397 195.051 224.196C194.691 223.995 194.411 223.709 194.245 223.375C194.08 223.04 194.036 222.673 194.12 222.318C194.205 221.963 194.414 221.638 194.72 221.381C195.025 221.126 195.415 220.951 195.84 220.881C196.264 220.81 196.704 220.847 197.104 220.985C197.504 221.123 197.845 221.358 198.086 221.659C198.326 221.959 198.454 222.313 198.454 222.675C198.454 223.16 198.224 223.625 197.814 223.968C197.403 224.311 196.847 224.504 196.267 224.504ZM196.267 221.971C196.1 221.971 195.937 222.012 195.799 222.09C195.661 222.167 195.552 222.277 195.489 222.406C195.425 222.534 195.409 222.676 195.441 222.812C195.473 222.949 195.553 223.074 195.671 223.173C195.789 223.271 195.939 223.338 196.102 223.365C196.265 223.392 196.435 223.379 196.589 223.325C196.743 223.272 196.874 223.182 196.966 223.066C197.059 222.95 197.108 222.814 197.108 222.675C197.108 222.488 197.02 222.309 196.862 222.177C196.704 222.045 196.49 221.971 196.267 221.971Z" fill="#274B5B"/>
<path d="M196.267 244.289C196.034 244.289 195.806 244.231 195.611 244.122C195.417 244.014 195.266 243.86 195.177 243.68C195.087 243.5 195.064 243.301 195.11 243.11C195.155 242.919 195.267 242.743 195.433 242.605C195.598 242.467 195.808 242.373 196.036 242.335C196.266 242.297 196.503 242.316 196.719 242.391C196.934 242.466 197.118 242.592 197.248 242.754C197.377 242.917 197.447 243.107 197.447 243.302C197.447 243.564 197.322 243.815 197.101 244C196.88 244.185 196.58 244.289 196.267 244.289ZM196.267 242.881C196.167 242.881 196.07 242.906 195.987 242.952C195.904 242.998 195.839 243.064 195.801 243.141C195.763 243.218 195.753 243.303 195.772 243.385C195.792 243.466 195.84 243.541 195.91 243.601C195.981 243.659 196.071 243.699 196.169 243.715C196.266 243.732 196.368 243.724 196.46 243.692C196.552 243.66 196.63 243.606 196.686 243.536C196.742 243.467 196.771 243.386 196.771 243.302C196.771 243.191 196.718 243.083 196.623 243.004C196.528 242.925 196.401 242.881 196.267 242.881Z" fill="#274B5B"/>
<path opacity="0.2" d="M196.267 245.155C195.834 245.155 195.411 245.048 195.051 244.847C194.691 244.646 194.411 244.36 194.245 244.026C194.08 243.692 194.036 243.324 194.12 242.969C194.205 242.614 194.414 242.288 194.72 242.032C195.025 241.777 195.415 241.603 195.84 241.532C196.264 241.461 196.704 241.498 197.104 241.636C197.504 241.774 197.845 242.009 198.086 242.31C198.326 242.61 198.454 242.964 198.454 243.326C198.454 243.811 198.224 244.276 197.814 244.62C197.403 244.962 196.847 245.155 196.267 245.155ZM196.267 242.622C196.1 242.622 195.937 242.664 195.799 242.741C195.661 242.818 195.552 242.928 195.489 243.057C195.425 243.185 195.409 243.327 195.441 243.463C195.473 243.6 195.553 243.725 195.671 243.824C195.789 243.922 195.939 243.989 196.102 244.016C196.265 244.044 196.435 244.03 196.589 243.976C196.743 243.923 196.874 243.833 196.966 243.717C197.059 243.601 197.108 243.465 197.108 243.326C197.111 243.232 197.092 243.139 197.051 243.051C197.01 242.963 196.949 242.883 196.87 242.816C196.792 242.748 196.698 242.695 196.594 242.658C196.49 242.622 196.379 242.603 196.267 242.603V242.622Z" fill="#274B5B"/>
<path opacity="0.6" d="M204.004 141.319C219.71 141.319 232.442 130.675 232.442 117.545C232.442 104.416 219.71 93.772 204.004 93.772C188.299 93.772 175.567 104.416 175.567 117.545C175.567 130.675 188.299 141.319 204.004 141.319Z" fill="#5C7869"/>
<path d="M204.342 132.599C220.048 132.599 232.779 121.955 232.779 108.825C232.779 95.6958 220.048 85.0521 204.342 85.0521C188.637 85.0521 175.905 95.6958 175.905 108.825C175.905 121.955 188.637 132.599 204.342 132.599Z" fill="#94E0F7"/>
<path opacity="0.2" d="M204.004 131.197C199.112 131.197 194.33 129.984 190.261 127.712C186.193 125.439 183.023 122.209 181.151 118.431C179.278 114.652 178.789 110.494 179.743 106.482C180.698 102.471 183.053 98.7856 186.513 95.8936C189.972 93.0015 194.38 91.0316 199.178 90.2339C203.977 89.4362 208.951 89.8456 213.471 91.4108C217.991 92.9761 221.855 95.6264 224.573 99.0274C227.291 102.428 228.742 106.427 228.742 110.517C228.736 116 226.128 121.257 221.489 125.134C216.852 129.012 210.564 131.192 204.004 131.197ZM204.004 91.249C199.445 91.249 194.988 92.3795 191.197 94.4968C187.406 96.6147 184.451 99.6245 182.706 103.146C180.962 106.668 180.505 110.543 181.395 114.281C182.284 118.02 184.479 121.454 187.703 124.149C190.927 126.844 195.035 128.68 199.507 129.424C203.979 130.167 208.614 129.786 212.827 128.327C217.039 126.868 220.639 124.398 223.173 121.229C225.706 118.06 227.058 114.333 227.058 110.521C227.053 105.411 224.623 100.51 220.301 96.8962C215.979 93.2821 210.118 91.2495 204.004 91.2442V91.249Z" fill="#274B5B"/>
<path d="M213.856 87.6239L197.63 133.183C193.488 132.254 189.653 130.55 186.415 128.199L201.221 86.6662C205.465 86.1888 209.783 86.5159 213.856 87.6239Z" fill="white"/>
<path d="M222.888 91.7475L207.876 133.884C206.925 133.964 205.969 134.005 205.013 134.003C203.864 134.004 202.717 133.946 201.576 133.831L217.573 88.9033C219.465 89.6838 221.248 90.6376 222.888 91.7475Z" fill="white"/>
<path opacity="0.8" d="M183.981 115.53C183.821 115.529 183.665 115.481 183.543 115.393C183.422 115.305 183.341 115.184 183.317 115.051C182.345 109.901 183.516 104.628 186.633 100.112C188.397 97.5838 190.47 96.066 192.801 95.6111C192.89 95.5876 192.984 95.5795 193.077 95.5871C193.17 95.5953 193.259 95.6192 193.34 95.6575C193.422 95.6958 193.492 95.748 193.548 95.8103C193.604 95.8725 193.644 95.9439 193.666 96.0195C193.687 96.0956 193.689 96.1742 193.672 96.2508C193.656 96.3274 193.62 96.4002 193.568 96.4648C193.516 96.5295 193.449 96.5845 193.37 96.6262C193.291 96.6678 193.203 96.6956 193.111 96.7076C191.158 97.0906 189.371 98.4313 187.801 100.682C184.84 104.974 183.728 109.985 184.651 114.879C184.665 114.953 184.661 115.028 184.64 115.1C184.618 115.172 184.579 115.241 184.526 115.3C184.473 115.36 184.406 115.41 184.329 115.448C184.252 115.486 184.167 115.51 184.078 115.52L183.981 115.53Z" fill="white"/>
<path d="M223.524 112.043C223.291 112.043 223.062 111.985 222.869 111.877C222.675 111.768 222.523 111.615 222.434 111.434C222.345 111.254 222.321 111.056 222.367 110.864C222.412 110.673 222.525 110.497 222.69 110.359C222.855 110.221 223.065 110.127 223.294 110.089C223.523 110.051 223.76 110.071 223.975 110.146C224.191 110.22 224.376 110.347 224.505 110.509C224.635 110.671 224.704 110.861 224.704 111.057C224.704 111.318 224.58 111.569 224.359 111.754C224.137 111.939 223.837 112.043 223.524 112.043ZM223.524 110.635C223.424 110.635 223.327 110.66 223.244 110.706C223.161 110.753 223.097 110.818 223.058 110.895C223.02 110.973 223.01 111.057 223.03 111.139C223.049 111.221 223.097 111.296 223.168 111.355C223.238 111.413 223.328 111.454 223.426 111.47C223.523 111.486 223.625 111.478 223.717 111.446C223.809 111.414 223.888 111.36 223.943 111.291C223.998 111.221 224.028 111.14 224.028 111.057C224.022 110.949 223.967 110.846 223.873 110.771C223.779 110.696 223.654 110.655 223.524 110.655V110.635Z" fill="#274B5B"/>
<path opacity="0.2" d="M223.524 112.905C223.091 112.905 222.668 112.798 222.308 112.597C221.949 112.397 221.668 112.111 221.502 111.776C221.337 111.442 221.293 111.074 221.378 110.72C221.462 110.365 221.671 110.039 221.977 109.783C222.283 109.527 222.673 109.353 223.097 109.283C223.521 109.212 223.961 109.248 224.361 109.387C224.761 109.525 225.103 109.76 225.343 110.06C225.583 110.361 225.712 110.715 225.712 111.076C225.712 111.561 225.481 112.027 225.071 112.37C224.661 112.713 224.104 112.905 223.524 112.905ZM223.524 110.373C223.358 110.373 223.194 110.414 223.056 110.491C222.918 110.568 222.809 110.679 222.746 110.807C222.682 110.936 222.666 111.077 222.698 111.214C222.73 111.35 222.811 111.476 222.929 111.574C223.046 111.673 223.196 111.74 223.36 111.767C223.523 111.794 223.692 111.78 223.846 111.727C224 111.673 224.131 111.583 224.224 111.468C224.316 111.352 224.366 111.216 224.366 111.076C224.366 110.984 224.344 110.893 224.301 110.807C224.26 110.722 224.197 110.644 224.119 110.579C224.041 110.513 223.948 110.462 223.846 110.426C223.744 110.391 223.634 110.373 223.524 110.373Z" fill="#274B5B"/>
<path d="M204.005 137.239C197.681 137.239 191.5 135.672 186.242 132.735C180.985 129.798 176.887 125.624 174.467 120.74C172.047 115.856 171.414 110.482 172.648 105.298C173.882 100.113 176.927 95.3501 181.398 91.6124C185.869 87.8743 191.566 85.3289 197.767 84.2975C203.969 83.2661 210.398 83.7957 216.24 85.8187C222.081 87.8412 227.074 91.2672 230.588 95.6627C234.1 100.058 235.976 105.225 235.976 110.511C235.966 117.598 232.595 124.392 226.601 129.403C220.608 134.414 212.481 137.232 204.005 137.239ZM204.005 89.6924C199.079 89.6924 194.264 90.9138 190.169 93.2011C186.074 95.4889 182.882 98.7401 180.997 102.544C179.112 106.349 178.619 110.535 179.58 114.573C180.541 118.612 182.912 122.321 186.395 125.233C189.878 128.144 194.315 130.127 199.146 130.931C203.977 131.734 208.984 131.322 213.535 129.746C218.085 128.17 221.975 125.502 224.711 122.078C227.447 118.654 228.908 114.629 228.908 110.511C228.899 104.993 226.272 99.7025 221.603 95.8006C216.935 91.8987 210.606 89.7038 204.005 89.6971V89.6924Z" fill="#274B5B"/>
<path d="M185.963 246.539V205.485C185.942 191.6 192.201 178.221 203.483 168.032C214.56 178.193 220.689 191.451 220.666 205.198V246.486" fill="#ECF2FA"/>
<path d="M205.86 173.524C195.877 183.246 190.391 195.637 190.396 208.45V248.795H186.358V208.45C186.358 194.758 192.627 181.586 203.878 171.638C204.554 172.257 205.215 172.886 205.86 173.524Z" fill="white"/>
<path d="M217.298 207.654V248.229L203.369 248.253C216.33 226.476 212.218 197.134 209.589 182.176C214.649 190.002 217.299 198.758 217.298 207.654Z" fill="#8BBACC"/>
<g opacity="0.4">
<path opacity="0.4" d="M172.406 173.659C174.571 170.728 176.106 168.243 176.34 168.329C176.575 168.416 175.332 171.059 173.133 174.032C170.934 177.006 168.671 179.122 168.494 179.002C168.316 178.882 170.258 176.594 172.406 173.659Z" fill="#426270"/>
<path opacity="0.4" d="M175.839 175.516C177.232 173.535 178.195 171.847 177.99 171.747C177.786 171.647 176.491 173.171 175.099 175.152C173.706 177.134 172.743 178.821 172.947 178.922C173.152 179.022 174.447 177.498 175.839 175.516Z" fill="#426270"/>
<path opacity="0.4" d="M173.259 175.603C176.421 176.67 179.061 177.408 178.987 177.604C178.912 177.8 176.123 177.36 172.927 176.268C169.731 175.176 167.331 173.874 167.446 173.721C167.56 173.568 170.092 174.544 173.259 175.603Z" fill="#426270"/>
<path opacity="0.4" d="M176.249 174.889C179.113 176.014 181.536 176.723 181.467 176.919C181.398 177.115 178.821 176.684 175.888 175.54C172.956 174.396 170.9 173.007 171.031 172.863C171.163 172.72 173.385 173.783 176.249 174.889Z" fill="#426270"/>
</g>
<path d="M196.605 195.618C196.372 195.618 196.143 195.56 195.949 195.451C195.755 195.343 195.604 195.189 195.515 195.009C195.425 194.828 195.402 194.63 195.448 194.439C195.493 194.247 195.605 194.071 195.77 193.934C195.936 193.796 196.146 193.702 196.374 193.664C196.603 193.626 196.841 193.645 197.056 193.72C197.272 193.795 197.456 193.921 197.586 194.083C197.715 194.245 197.784 194.436 197.784 194.631C197.784 194.893 197.66 195.144 197.439 195.329C197.217 195.514 196.917 195.618 196.605 195.618ZM196.605 194.21C196.505 194.21 196.408 194.234 196.325 194.281C196.241 194.327 196.177 194.393 196.139 194.47C196.101 194.547 196.091 194.632 196.11 194.714C196.13 194.795 196.178 194.87 196.248 194.929C196.319 194.988 196.409 195.028 196.506 195.044C196.604 195.061 196.705 195.052 196.798 195.021C196.89 194.988 196.968 194.934 197.024 194.865C197.079 194.796 197.109 194.715 197.109 194.631C197.107 194.52 197.054 194.414 196.959 194.336C196.865 194.258 196.737 194.215 196.605 194.215V194.21Z" fill="#274B5B"/>
<path opacity="0.2" d="M196.605 196.465C196.172 196.465 195.749 196.358 195.389 196.157C195.03 195.956 194.749 195.67 194.584 195.336C194.418 195.002 194.374 194.634 194.459 194.279C194.543 193.925 194.752 193.599 195.058 193.343C195.364 193.087 195.754 192.913 196.178 192.842C196.602 192.772 197.042 192.808 197.442 192.946C197.842 193.085 198.184 193.319 198.424 193.62C198.664 193.921 198.793 194.274 198.793 194.636C198.793 195.121 198.562 195.587 198.152 195.929C197.742 196.272 197.185 196.465 196.605 196.465ZM196.605 193.932C196.439 193.932 196.275 193.973 196.137 194.051C195.999 194.128 195.891 194.238 195.827 194.367C195.763 194.495 195.747 194.637 195.779 194.774C195.811 194.91 195.892 195.035 196.01 195.134C196.127 195.232 196.277 195.299 196.441 195.327C196.604 195.353 196.773 195.34 196.927 195.286C197.081 195.233 197.212 195.143 197.305 195.027C197.397 194.911 197.447 194.775 197.447 194.636C197.448 194.543 197.428 194.45 197.386 194.364C197.345 194.277 197.283 194.198 197.204 194.132C197.126 194.066 197.033 194.013 196.93 193.977C196.827 193.941 196.716 193.923 196.605 193.923V193.932Z" fill="#274B5B"/>
<path d="M196.605 236.695C196.372 236.695 196.143 236.637 195.949 236.529C195.755 236.42 195.604 236.267 195.515 236.086C195.425 235.906 195.402 235.708 195.448 235.516C195.493 235.325 195.605 235.149 195.77 235.011C195.936 234.873 196.146 234.779 196.374 234.742C196.603 234.703 196.841 234.723 197.056 234.798C197.272 234.872 197.456 234.999 197.586 235.16C197.715 235.323 197.784 235.514 197.784 235.709C197.784 235.97 197.66 236.221 197.439 236.406C197.217 236.591 196.917 236.695 196.605 236.695ZM196.605 235.287C196.505 235.287 196.408 235.312 196.325 235.358C196.241 235.405 196.177 235.47 196.139 235.547C196.101 235.624 196.091 235.709 196.11 235.791C196.13 235.872 196.178 235.948 196.248 236.007C196.319 236.065 196.409 236.106 196.506 236.122C196.604 236.138 196.705 236.13 196.798 236.098C196.89 236.066 196.968 236.012 197.024 235.943C197.079 235.873 197.109 235.792 197.109 235.709C197.109 235.597 197.055 235.49 196.961 235.411C196.866 235.332 196.738 235.287 196.605 235.287Z" fill="#274B5B"/>
<path opacity="0.2" d="M196.605 237.537C196.172 237.537 195.749 237.43 195.389 237.229C195.03 237.028 194.749 236.742 194.584 236.408C194.418 236.074 194.374 235.706 194.459 235.351C194.543 234.996 194.752 234.67 195.058 234.415C195.364 234.159 195.754 233.985 196.178 233.914C196.602 233.843 197.042 233.88 197.442 234.018C197.842 234.156 198.184 234.391 198.424 234.692C198.664 234.993 198.793 235.346 198.793 235.708C198.793 236.193 198.562 236.658 198.152 237.001C197.742 237.344 197.185 237.537 196.605 237.537ZM196.605 235.004C196.439 235.004 196.275 235.045 196.137 235.123C195.999 235.2 195.891 235.31 195.827 235.439C195.763 235.567 195.747 235.709 195.779 235.845C195.811 235.982 195.892 236.107 196.01 236.206C196.127 236.304 196.277 236.371 196.441 236.398C196.604 236.426 196.773 236.412 196.927 236.358C197.081 236.305 197.212 236.215 197.305 236.099C197.397 235.983 197.447 235.847 197.447 235.708C197.447 235.521 197.358 235.342 197.2 235.21C197.042 235.078 196.828 235.004 196.605 235.004Z" fill="#274B5B"/>
<path d="M196.605 216.158C196.372 216.158 196.143 216.1 195.949 215.992C195.755 215.884 195.604 215.729 195.515 215.549C195.425 215.369 195.402 215.171 195.448 214.979C195.493 214.788 195.605 214.612 195.77 214.474C195.936 214.337 196.146 214.242 196.374 214.204C196.603 214.166 196.841 214.186 197.056 214.26C197.272 214.335 197.456 214.462 197.586 214.624C197.715 214.786 197.784 214.977 197.784 215.172C197.784 215.434 197.66 215.684 197.439 215.869C197.217 216.054 196.917 216.158 196.605 216.158ZM196.605 214.75C196.505 214.75 196.408 214.775 196.325 214.822C196.241 214.868 196.177 214.934 196.139 215.011C196.101 215.087 196.091 215.172 196.11 215.254C196.13 215.336 196.178 215.411 196.248 215.47C196.319 215.529 196.409 215.569 196.506 215.585C196.604 215.601 196.705 215.593 196.798 215.561C196.89 215.529 196.968 215.475 197.024 215.406C197.079 215.336 197.109 215.255 197.109 215.172C197.109 215.06 197.055 214.953 196.961 214.874C196.866 214.795 196.738 214.75 196.605 214.75Z" fill="#274B5B"/>
<path opacity="0.2" d="M196.605 217C196.172 217 195.749 216.893 195.389 216.692C195.03 216.491 194.749 216.205 194.584 215.871C194.418 215.537 194.374 215.169 194.459 214.814C194.543 214.459 194.752 214.134 195.058 213.878C195.364 213.622 195.754 213.448 196.178 213.377C196.602 213.307 197.042 213.343 197.442 213.481C197.842 213.619 198.184 213.854 198.424 214.155C198.664 214.456 198.793 214.809 198.793 215.171C198.793 215.656 198.562 216.121 198.152 216.465C197.742 216.807 197.185 217 196.605 217ZM196.605 214.467C196.439 214.467 196.275 214.509 196.137 214.586C195.999 214.663 195.891 214.773 195.827 214.902C195.763 215.031 195.747 215.172 195.779 215.308C195.811 215.445 195.892 215.57 196.01 215.669C196.127 215.767 196.277 215.834 196.441 215.861C196.604 215.889 196.773 215.875 196.927 215.822C197.081 215.768 197.212 215.678 197.305 215.562C197.397 215.447 197.447 215.31 197.447 215.171C197.447 214.985 197.358 214.805 197.2 214.673C197.042 214.541 196.828 214.467 196.605 214.467Z" fill="#274B5B"/>
<path d="M207.372 195.618C207.139 195.618 206.911 195.56 206.717 195.451C206.523 195.343 206.372 195.189 206.282 195.009C206.193 194.828 206.169 194.63 206.215 194.439C206.26 194.247 206.373 194.071 206.538 193.934C206.703 193.796 206.913 193.702 207.142 193.664C207.371 193.626 207.608 193.645 207.824 193.72C208.039 193.795 208.224 193.921 208.353 194.083C208.483 194.245 208.552 194.436 208.552 194.631C208.552 194.893 208.428 195.144 208.207 195.329C207.986 195.514 207.685 195.618 207.372 195.618ZM207.372 194.21C207.273 194.21 207.175 194.234 207.092 194.281C207.01 194.327 206.945 194.393 206.907 194.47C206.869 194.547 206.858 194.632 206.878 194.714C206.897 194.795 206.945 194.87 207.016 194.929C207.086 194.988 207.176 195.028 207.274 195.044C207.372 195.061 207.473 195.052 207.565 195.021C207.657 194.988 207.736 194.934 207.791 194.865C207.847 194.796 207.876 194.715 207.876 194.631C207.875 194.52 207.821 194.414 207.727 194.336C207.632 194.258 207.505 194.215 207.372 194.215V194.21Z" fill="#274B5B"/>
<path opacity="0.2" d="M207.372 196.465C206.94 196.465 206.517 196.358 206.157 196.157C205.797 195.956 205.517 195.67 205.351 195.336C205.186 195.002 205.142 194.634 205.227 194.279C205.311 193.925 205.519 193.599 205.825 193.343C206.131 193.087 206.521 192.913 206.946 192.842C207.37 192.772 207.81 192.808 208.21 192.946C208.609 193.085 208.951 193.319 209.191 193.62C209.432 193.921 209.56 194.274 209.56 194.636C209.56 195.121 209.33 195.587 208.919 195.929C208.509 196.272 207.953 196.465 207.372 196.465ZM207.372 193.932C207.206 193.932 207.043 193.973 206.904 194.051C206.766 194.128 206.658 194.238 206.595 194.367C206.531 194.495 206.514 194.637 206.546 194.774C206.579 194.91 206.659 195.035 206.777 195.134C206.895 195.232 207.045 195.299 207.208 195.327C207.372 195.353 207.541 195.34 207.695 195.286C207.848 195.233 207.98 195.143 208.072 195.027C208.165 194.911 208.214 194.775 208.214 194.636C208.216 194.543 208.195 194.45 208.154 194.364C208.112 194.277 208.05 194.198 207.972 194.132C207.894 194.066 207.8 194.013 207.697 193.977C207.595 193.941 207.484 193.923 207.372 193.923V193.932Z" fill="#274B5B"/>
<path d="M207.372 236.695C207.139 236.695 206.911 236.637 206.717 236.529C206.523 236.42 206.372 236.267 206.282 236.086C206.193 235.906 206.169 235.708 206.215 235.516C206.26 235.325 206.373 235.149 206.538 235.011C206.703 234.873 206.913 234.779 207.142 234.742C207.371 234.703 207.608 234.723 207.824 234.798C208.039 234.872 208.224 234.999 208.353 235.16C208.483 235.323 208.552 235.514 208.552 235.709C208.552 235.97 208.428 236.221 208.207 236.406C207.986 236.591 207.685 236.695 207.372 236.695ZM207.372 235.287C207.273 235.287 207.175 235.312 207.092 235.358C207.01 235.405 206.945 235.47 206.907 235.547C206.869 235.624 206.858 235.709 206.878 235.791C206.897 235.872 206.945 235.948 207.016 236.007C207.086 236.065 207.176 236.106 207.274 236.122C207.372 236.138 207.473 236.13 207.565 236.098C207.657 236.066 207.736 236.012 207.791 235.943C207.847 235.873 207.876 235.792 207.876 235.709C207.876 235.597 207.824 235.49 207.729 235.411C207.634 235.332 207.506 235.287 207.372 235.287Z" fill="#274B5B"/>
<path opacity="0.2" d="M207.372 237.537C206.94 237.537 206.517 237.43 206.157 237.229C205.797 237.028 205.517 236.742 205.351 236.408C205.186 236.074 205.142 235.706 205.227 235.351C205.311 234.996 205.519 234.67 205.825 234.415C206.131 234.159 206.521 233.985 206.946 233.914C207.37 233.843 207.81 233.88 208.21 234.018C208.609 234.156 208.951 234.391 209.191 234.692C209.432 234.993 209.56 235.346 209.56 235.708C209.56 236.193 209.33 236.658 208.919 237.001C208.509 237.344 207.953 237.537 207.372 237.537ZM207.372 235.004C207.206 235.004 207.043 235.045 206.904 235.123C206.766 235.2 206.658 235.31 206.595 235.439C206.531 235.567 206.514 235.709 206.546 235.845C206.579 235.982 206.659 236.107 206.777 236.206C206.895 236.304 207.045 236.371 207.208 236.398C207.372 236.426 207.541 236.412 207.695 236.358C207.848 236.305 207.98 236.215 208.072 236.099C208.165 235.983 208.214 235.847 208.214 235.708C208.214 235.615 208.193 235.524 208.15 235.439C208.108 235.353 208.046 235.275 207.968 235.21C207.89 235.145 207.797 235.093 207.695 235.058C207.592 235.022 207.483 235.004 207.372 235.004Z" fill="#274B5B"/>
<path d="M207.372 216.158C207.139 216.158 206.911 216.1 206.717 215.992C206.523 215.884 206.372 215.729 206.282 215.549C206.193 215.369 206.169 215.171 206.215 214.979C206.26 214.788 206.373 214.612 206.538 214.474C206.703 214.337 206.913 214.242 207.142 214.204C207.371 214.166 207.608 214.186 207.824 214.26C208.039 214.335 208.224 214.462 208.353 214.624C208.483 214.786 208.552 214.977 208.552 215.172C208.552 215.434 208.428 215.684 208.207 215.869C207.986 216.054 207.685 216.158 207.372 216.158ZM207.372 214.75C207.273 214.75 207.175 214.775 207.092 214.822C207.01 214.868 206.945 214.934 206.907 215.011C206.869 215.087 206.858 215.172 206.878 215.254C206.897 215.336 206.945 215.411 207.016 215.47C207.086 215.529 207.176 215.569 207.274 215.585C207.372 215.601 207.473 215.593 207.565 215.561C207.657 215.529 207.736 215.475 207.791 215.406C207.847 215.336 207.876 215.255 207.876 215.172C207.876 215.06 207.824 214.953 207.729 214.874C207.634 214.795 207.506 214.75 207.372 214.75Z" fill="#274B5B"/>
<path opacity="0.2" d="M207.372 217C206.94 217 206.517 216.893 206.157 216.692C205.797 216.491 205.517 216.205 205.351 215.871C205.186 215.537 205.142 215.169 205.227 214.814C205.311 214.459 205.519 214.134 205.825 213.878C206.131 213.622 206.521 213.448 206.946 213.377C207.37 213.307 207.81 213.343 208.21 213.481C208.609 213.619 208.951 213.854 209.191 214.155C209.432 214.456 209.56 214.809 209.56 215.171C209.56 215.656 209.33 216.121 208.919 216.465C208.509 216.807 207.953 217 207.372 217ZM207.372 214.467C207.206 214.467 207.043 214.509 206.904 214.586C206.766 214.663 206.658 214.773 206.595 214.902C206.531 215.031 206.514 215.172 206.546 215.308C206.579 215.445 206.659 215.57 206.777 215.669C206.895 215.767 207.045 215.834 207.208 215.861C207.372 215.889 207.541 215.875 207.695 215.822C207.848 215.768 207.98 215.678 208.072 215.562C208.165 215.447 208.214 215.31 208.214 215.171C208.214 215.079 208.193 214.987 208.15 214.902C208.108 214.816 208.046 214.739 207.968 214.673C207.89 214.608 207.797 214.556 207.695 214.521C207.592 214.486 207.483 214.467 207.372 214.467Z" fill="#274B5B"/>
<path d="M202.83 170.862H201.484V247.104H202.83V170.862Z" fill="#274B5B"/>
<path opacity="0.2" d="M201.817 173.673H200.471V246.257H201.817V173.673Z" fill="#274B5B"/>
<path opacity="0.8" d="M204.509 173.673H203.163V245.975H204.509V173.673Z" fill="white"/>
<path d="M223.358 264.122H180.619C175.935 264.119 171.443 262.561 168.13 259.792C164.817 257.022 162.954 253.267 162.95 249.351V247.239H241.027V249.351C241.023 253.267 239.16 257.022 235.847 259.792C232.534 262.561 228.043 264.119 223.358 264.122ZM168.253 251.462C168.839 253.844 170.388 255.984 172.641 257.521C174.893 259.059 177.711 259.901 180.619 259.904H223.358C226.266 259.901 229.084 259.059 231.337 257.521C233.589 255.984 235.139 253.844 235.723 251.462H168.253Z" fill="#274B5B"/>
<path opacity="0.15" d="M237.889 76.0934C240.237 75.6203 242.714 75.9464 244.775 76.9998C246.836 78.0527 248.312 79.7473 248.88 81.7099L251.045 89.2083C251.61 91.1714 251.22 93.2418 249.96 94.9651C248.701 96.6879 246.675 97.9223 244.326 98.3968C241.978 98.8694 239.501 98.5438 237.44 97.4904C235.379 96.437 233.903 94.7429 233.335 92.7802L231.17 85.2819C230.605 83.3188 230.995 81.2479 232.254 79.5251C233.514 77.8023 235.541 76.5679 237.889 76.0934Z" fill="white"/>
<path opacity="0.15" d="M229.801 72.781C231.802 71.6486 234.259 71.2268 236.631 71.6084C239.004 71.99 241.098 73.144 242.453 74.816C243.808 76.4885 244.312 78.5422 243.856 80.5259C243.399 82.5092 242.02 84.2598 240.019 85.3931C238.018 86.5255 235.562 86.9469 233.189 86.5653C230.817 86.1837 228.723 85.0302 227.367 83.3581C226.013 81.6856 225.508 79.6315 225.965 77.6482C226.421 75.6645 227.801 73.9139 229.801 72.781Z" fill="white"/>
<g opacity="0.4">
<path opacity="0.4" d="M237.356 130.612C239.521 127.681 241.056 125.196 241.291 125.282C241.525 125.369 240.283 128.012 238.083 130.985C235.884 133.959 233.621 136.075 233.444 135.955C233.266 135.836 235.208 133.552 237.356 130.612Z" fill="#426270"/>
<path opacity="0.4" d="M240.788 132.473C242.18 130.491 243.144 128.804 242.939 128.704C242.735 128.603 241.44 130.128 240.047 132.109C238.654 134.09 237.691 135.778 237.896 135.878C238.101 135.979 239.395 134.454 240.788 132.473Z" fill="#426270"/>
<path opacity="0.4" d="M238.192 132.561C241.353 133.629 243.994 134.366 243.919 134.562C243.845 134.759 241.056 134.318 237.86 133.227C234.664 132.135 232.264 130.832 232.378 130.679C232.493 130.526 235.042 131.498 238.192 132.561Z" fill="#426270"/>
<path opacity="0.4" d="M241.199 131.842C244.063 132.967 246.485 133.676 246.417 133.872C246.348 134.068 243.77 133.637 240.838 132.493C237.906 131.349 235.849 129.96 235.981 129.816C236.113 129.673 238.335 130.717 241.199 131.842Z" fill="#426270"/>
</g>
<g opacity="0.4">
<path opacity="0.4" d="M210.099 43.9605C212.264 41.0301 213.798 38.545 214.033 38.6312C214.268 38.7174 213.025 41.3605 210.826 44.3339C208.627 47.3074 206.364 49.4236 206.187 49.3039C206.009 49.1842 207.945 46.9004 210.099 43.9605Z" fill="#426270"/>
<path opacity="0.4" d="M213.527 45.8254C214.92 43.8442 215.883 42.1566 215.678 42.0561C215.474 41.9556 214.179 43.4803 212.786 45.4615C211.394 47.4428 210.43 49.1306 210.635 49.2307C210.839 49.3312 212.134 47.8067 213.527 45.8254Z" fill="#426270"/>
<path opacity="0.4" d="M210.946 45.9098C214.108 46.9776 216.748 47.715 216.674 47.9111C216.599 48.1074 213.81 47.6671 210.614 46.5754C207.418 45.4837 205.018 44.1813 205.133 44.0281C205.247 43.8749 207.785 44.8469 210.946 45.9098Z" fill="#426270"/>
<path opacity="0.4" d="M213.943 45.1901C216.806 46.3153 219.229 47.024 219.16 47.2203C219.091 47.4166 216.514 46.9857 213.581 45.8413C210.649 44.6969 208.593 43.3083 208.724 43.1647C208.856 43.021 211.079 44.084 213.943 45.1901Z" fill="#426270"/>
</g>
<path d="M241.697 57.3444H157.566V58.7521H241.697V57.3444Z" fill="#8BBACC"/>
<path d="M249.172 62.496H155.183L156.329 58.2776H248.599L249.172 62.496Z" fill="#274B5B"/>
<path d="M236.674 249.776H166.736C162.366 249.776 158.448 248.153 156.512 245.538C149.106 235.483 131.884 204.887 131.884 137.66C131.884 71.775 173.403 23.5338 191.255 5.85102C192.54 4.5782 194.141 3.55519 195.948 2.85342C197.754 2.15166 199.722 1.78808 201.714 1.78809C203.706 1.78808 205.674 2.15166 207.48 2.85342C209.287 3.55519 210.888 4.5782 212.172 5.85102C230.019 23.5338 271.544 71.775 271.526 137.66C271.526 204.872 254.304 235.493 246.898 245.538C244.991 248.148 241.056 249.776 236.674 249.776ZM201.696 6.00903C199.662 6.00788 197.693 6.61023 196.141 7.70884C195.769 7.97137 195.424 8.25967 195.11 8.57071C177.618 25.8992 136.93 73.1635 136.93 137.66C136.93 166.49 140.126 191.604 146.426 212.308C151.621 229.373 157.663 239.065 160.808 243.321C161.793 244.657 164.181 245.553 166.736 245.553H236.674C239.246 245.553 241.623 244.657 242.597 243.326C245.741 239.06 251.761 229.364 256.984 212.304C263.284 191.599 266.48 166.485 266.48 137.656C266.48 73.1635 225.815 25.8992 208.312 8.57071C207.582 7.84463 206.687 7.24658 205.68 6.811C204.672 6.37547 203.572 6.11102 202.441 6.03297C202.193 6.01702 201.944 6.00903 201.696 6.00903Z" fill="#274B5B"/>
<path d="M187.137 247.157H182.091V206.811C182.061 192.575 188.58 178.874 200.299 168.544L202.149 166.911L203.981 168.554C215.491 178.852 221.884 192.425 221.863 206.519V247.095H216.817V206.529C216.833 194.294 211.616 182.457 202.109 173.155C192.422 182.494 187.1 194.446 187.125 206.807L187.137 247.157Z" fill="#274B5B"/>
<path d="M285.444 224.313C285.211 224.313 284.983 224.255 284.789 224.147C284.595 224.038 284.444 223.884 284.354 223.704C284.265 223.524 284.242 223.325 284.287 223.134C284.333 222.943 284.445 222.767 284.61 222.629C284.775 222.491 284.985 222.398 285.215 222.359C285.443 222.321 285.68 222.341 285.896 222.415C286.111 222.49 286.296 222.616 286.425 222.779C286.555 222.941 286.624 223.132 286.624 223.327C286.624 223.588 286.5 223.839 286.279 224.024C286.058 224.209 285.757 224.313 285.444 224.313ZM285.444 222.906C285.345 222.906 285.247 222.93 285.165 222.976C285.082 223.023 285.017 223.088 284.979 223.166C284.941 223.243 284.93 223.327 284.95 223.409C284.969 223.491 285.017 223.566 285.088 223.625C285.158 223.684 285.248 223.724 285.346 223.74C285.444 223.756 285.545 223.748 285.637 223.716C285.729 223.684 285.808 223.63 285.863 223.561C285.919 223.492 285.948 223.41 285.948 223.327C285.947 223.216 285.893 223.11 285.799 223.032C285.704 222.954 285.577 222.91 285.444 222.91V222.906Z" fill="#274B5B"/>
<path opacity="0.2" d="M285.444 225.161C285.012 225.161 284.588 225.054 284.229 224.852C283.869 224.651 283.588 224.365 283.423 224.031C283.257 223.697 283.214 223.329 283.299 222.974C283.383 222.62 283.591 222.294 283.897 222.038C284.203 221.782 284.593 221.608 285.017 221.538C285.442 221.467 285.882 221.503 286.281 221.641C286.681 221.78 287.023 222.014 287.263 222.315C287.504 222.616 287.632 222.97 287.632 223.332C287.632 223.817 287.402 224.282 286.991 224.625C286.581 224.968 286.024 225.161 285.444 225.161ZM285.444 222.628C285.277 222.628 285.115 222.669 284.977 222.746C284.838 222.824 284.73 222.933 284.666 223.062C284.603 223.191 284.586 223.332 284.618 223.469C284.651 223.606 284.731 223.731 284.849 223.829C284.966 223.928 285.117 223.995 285.28 224.022C285.444 224.049 285.612 224.035 285.767 223.982C285.92 223.928 286.052 223.838 286.144 223.722C286.237 223.607 286.286 223.471 286.286 223.332C286.286 223.145 286.197 222.966 286.04 222.834C285.882 222.702 285.667 222.628 285.444 222.628Z" fill="#274B5B"/>
</g>
</g>
<defs>
<clipPath id="clip0_335_1393">
<rect width="433" height="373" fill="white" transform="translate(0.5)"/>
</clipPath>
</defs>
</svg>
