<svg width="272" height="360" viewBox="0 0 272 360" fill="none" xmlns="http://www.w3.org/2000/svg">
<path d="M186.132 79.0486C191.3 75.2434 199.354 83.0086 202.915 87.3682C207.076 92.437 210.433 98.8882 213.014 105.53C224.735 135.684 230.895 171.558 221.264 204.231C218.02 215.293 212.96 225.262 206.448 233.417C202.787 237.978 195.252 242.28 194.154 249.257C193.918 250.989 194.011 252.772 194.426 254.444C195.881 260.838 200.274 265.269 203.63 269.924C219.746 292.32 208.094 327.038 190.862 342" stroke="#CCDDE2" stroke-width="4.72" stroke-miterlimit="10"/>
<path d="M59.7502 196.625C64.7822 189.551 71.2123 184.77 77.6778 180.371C84.679 175.608 91.5688 170.813 97.9336 164.628C101.809 160.871 105.475 156.75 108.903 152.298" stroke="#CCDDE2" stroke-width="4.72" stroke-miterlimit="10"/>
<path d="M51.5822 286.225C45.1521 264.24 43.5201 239.04 50.2276 217.08" stroke="#CCDDE2" stroke-width="4.72" stroke-miterlimit="10"/>
<path d="M135.84 58.9537V35.3881C135.84 33.7649 135.352 32.2083 134.485 31.0606C133.618 29.9128 132.442 29.2681 131.216 29.2681H72.2541C71.0277 29.2681 69.8516 29.9128 68.9844 31.0606C68.1173 32.2083 67.6301 33.7649 67.6301 35.3881V146.203C67.6353 147.822 68.1246 149.372 68.9912 150.514C69.8578 151.657 71.0312 152.298 72.2541 152.298H131.224C131.796 152.304 132.364 152.16 132.894 151.873" stroke="black" stroke-width="4.72" stroke-linecap="round" stroke-linejoin="round"/>
<path d="M129.344 33.0117H74.1364C71.6922 33.0117 69.7109 35.6341 69.7109 38.8688V142.718C69.7109 145.953 71.6922 148.575 74.1364 148.575H129.344C131.788 148.575 133.77 145.953 133.77 142.718V38.8688C133.77 35.6341 131.788 33.0117 129.344 33.0117Z" fill="#3FBDF1"/>
<path d="M128.485 41.9541H75.695C74.4721 41.9541 73.481 43.2659 73.481 44.8845V60.6597C73.481 62.2783 74.4721 63.5901 75.695 63.5901H128.485C129.708 63.5901 130.699 62.2783 130.699 60.6597V44.8845C130.699 43.2659 129.708 41.9541 128.485 41.9541Z" fill="#3FBDF1"/>
<path d="M101.739 51.0702C102.673 51.0702 103.431 50.0676 103.431 48.831C103.431 47.5944 102.673 46.5918 101.739 46.5918C100.805 46.5918 100.047 47.5944 100.047 48.831C100.047 50.0676 100.805 51.0702 101.739 51.0702Z" fill="#D7E8F0"/>
<path d="M97.0144 58.9539C97.0144 57.2954 97.5122 55.7049 98.3981 54.532C99.2842 53.3595 100.486 52.7007 101.739 52.7007C102.992 52.7007 104.194 53.3595 105.08 54.532C105.966 55.7049 106.464 57.2954 106.464 58.9539H97.0144Z" fill="#D7E8F0"/>
<path d="M102.084 86.7783C100.282 86.7769 98.5193 87.4832 97.0201 88.8076C95.5208 90.1324 94.352 92.0156 93.6617 94.2199C92.9713 96.4238 92.7905 98.8491 93.1419 101.189C93.4933 103.529 94.3612 105.679 95.6358 107.366C96.9104 109.053 98.5345 110.202 100.303 110.667C102.071 111.132 103.903 110.893 105.568 109.979C107.234 109.065 108.657 107.518 109.658 105.534C110.658 103.55 111.192 101.217 111.191 98.8311C111.19 95.6347 110.231 92.5696 108.523 90.3096C106.815 88.0495 104.5 86.779 102.084 86.7783ZM102.084 107.975C101.732 107.975 101.393 107.79 101.144 107.46C100.894 107.129 100.754 106.682 100.754 106.215C100.754 105.748 100.894 105.3 101.144 104.97C101.393 104.64 101.732 104.454 102.084 104.454C102.437 104.454 102.776 104.64 103.025 104.97C103.274 105.3 103.415 105.748 103.415 106.215C103.415 106.682 103.274 107.129 103.025 107.46C102.776 107.79 102.437 107.975 102.084 107.975ZM103.771 94.4211C103.485 97.0347 103.243 99.7887 102.664 102.341C102.522 102.946 101.655 102.946 101.513 102.341C101.097 100.43 100.777 98.4837 100.556 96.5163C100.379 95.0763 99.7398 92.7723 100.352 91.3755C100.879 90.1371 102.378 89.9823 103.243 90.6303C104.315 91.4403 103.904 93.1215 103.771 94.4211Z" fill="#D7E8F0"/>
<path d="M102.084 107.974C102.819 107.974 103.415 107.186 103.415 106.214C103.415 105.242 102.819 104.453 102.084 104.453C101.35 104.453 100.754 105.242 100.754 106.214C100.754 107.186 101.35 107.974 102.084 107.974Z" fill="white"/>
<path d="M103.771 94.4207C103.485 97.0343 103.243 99.7883 102.664 102.341C102.522 102.946 101.655 102.946 101.513 102.341C101.097 100.429 100.777 98.4837 100.556 96.5159C100.379 95.0759 99.7398 92.7719 100.352 91.3751C100.879 90.1367 102.378 89.9819 103.243 90.6299C104.315 91.4399 103.904 93.1211 103.771 94.4207Z" fill="white"/>
<path d="M79.2039 73.2529H123.692" stroke="white" stroke-width="4.72" stroke-miterlimit="10"/>
<path d="M79.2039 79.0454H123.692" stroke="white" stroke-width="4.72" stroke-miterlimit="10"/>
<path d="M79.2039 116.37H123.692" stroke="white" stroke-width="4.72" stroke-miterlimit="10"/>
<path d="M134.523 131.307C134.692 131.48 134.985 58.6951 134.985 58.6951L118.249 50.1343C118.249 50.1343 105.808 90.4939 106.561 90.9007L109.921 92.7007C109.921 92.7007 110.75 91.8331 112.673 98.1007C114.596 104.368 128.457 125.133 134.523 131.307Z" fill="white"/>
<path d="M89.5371 121.853H113.359" stroke="white" stroke-width="4.72" stroke-miterlimit="10"/>
<path d="M201.492 164.056C201.275 167.195 198.348 203.202 201.185 210.233C202.213 212.778 192.008 210.341 191.393 210.154C182.145 207.274 173.484 201.964 165.379 195.505C157.273 189.047 150.111 180.547 141.66 174.82C140.099 173.761 136.642 171.443 137.665 168.408C139.406 163.238 141.543 156.103 141.712 149.792L141.66 141.512C141.66 141.512 140.426 136.314 144.454 140.868C148.482 145.422 166.916 157.428 178.848 143.518C190.781 129.607 191.488 118.606 191.488 118.606C191.488 118.606 183.848 93.8593 162.096 108.997L169.78 82.7173C169.78 82.7173 168.727 80.9497 172.056 81.2773C175.386 81.6049 181.56 79.4269 182.324 71.3521C182.324 71.3521 182.384 68.7169 185.907 73.6993C189.429 78.6817 206.075 98.1397 201.492 164.056Z" fill="#2E2E2E"/>
<path d="M158.729 70.8367C160.595 69.0252 162.685 67.6572 164.906 66.7939" stroke="black" stroke-width="4.72" stroke-miterlimit="10"/>
<path d="M150.459 193.705L135.5 265.287L121.9 330.383L113.239 331.463C111.253 331.705 109.408 332.92 108.063 334.869C106.719 336.818 105.973 339.361 105.971 342H132.755L152.154 297.749L166.584 264.827L189.143 213.347C189.796 211.845 190.43 210.344 191.047 208.811C191.058 208.793 191.063 208.772 191.064 208.749" stroke="black" stroke-width="4.72" stroke-miterlimit="10"/>
<path d="M200.937 169.561C201.141 167.811 201.321 166.061 201.481 164.301C201.481 164.218 201.481 164.146 201.498 164.063C202.413 153.402 202.608 142.655 202.08 131.948C202.083 131.917 202.083 131.885 202.08 131.854C201.481 120.201 199.866 107.961 196.64 96.0271C195.703 92.5851 194.545 89.2558 193.177 86.0767C193.077 85.8139 192.962 85.5547 192.837 85.2955C192.407 84.3019 191.945 83.3335 191.477 82.3759C190.843 81.1123 190.172 79.8847 189.467 78.7147C188.417 76.9381 187.252 75.2853 185.986 73.7755C185.977 73.7715 185.97 73.7654 185.964 73.7575C185.958 73.7492 185.953 73.7395 185.95 73.7287C185.009 72.626 184.009 71.6155 182.958 70.7047C182.762 70.5283 182.566 70.3627 182.368 70.1971C182.337 70.1657 182.304 70.138 182.27 70.1143" stroke="black" stroke-width="4.72" stroke-miterlimit="10"/>
<path d="M166.584 264.827L187.62 342H157.265C157.265 339.492 157.953 337.071 159.2 335.184C160.448 333.298 162.171 332.075 164.049 331.743L170.656 330.573C170.656 330.573 161.772 315.093 152.16 297.745" stroke="black" stroke-width="4.72" stroke-miterlimit="10"/>
<path d="M170.316 80.8915L161.198 112.053C160.923 112.994 160.509 113.853 159.98 114.58C159.452 115.307 158.819 115.887 158.12 116.287C157.42 116.688 156.667 116.9 155.905 116.912C155.143 116.923 154.386 116.734 153.68 116.355L132.083 104.785C132.073 104.746 132.063 104.706 132.056 104.666C131.784 103.226 128.993 89.4235 125.61 89.4235C123.012 89.4235 124.25 96.2311 125.338 100.083C125.463 100.497 125.58 100.886 125.686 101.217L125.517 101.124L108.607 92.0011L119.272 54.7915L140.094 65.4367L170.316 80.8915Z" fill="#D7E8F0"/>
<path d="M125.681 101.218C124.546 97.7803 122.74 89.4247 125.613 89.4247C128.996 89.4247 131.784 103.238 132.059 104.667L132.086 104.786L153.68 116.36C154.388 116.738 155.145 116.927 155.908 116.914C156.671 116.901 157.425 116.687 158.125 116.285C158.825 115.883 159.457 115.301 159.985 114.572C160.513 113.843 160.927 112.982 161.201 112.04L171.36 77.2999L139.068 60.7795L118.249 50.1343L106.553 90.9007L125.681 101.218Z" stroke="black" stroke-width="4.72" stroke-miterlimit="10"/>
<path d="M192.617 100.343C193.264 115.283 190.743 134.395 176.351 145.645C155.062 162.306 126.885 124.56 116.454 106.243C114.73 103.235 113.275 99.9734 112.116 96.5231C111.764 95.5191 111.47 94.4819 111.234 93.4199" stroke="black" stroke-width="4.72" stroke-miterlimit="10"/>
<path d="M141.473 138.287C141.473 138.287 143.105 154.022 138.073 167.4L138.095 167.364C138.095 167.364 138.095 167.389 138.078 167.4C130.353 186.577 119.294 217.17 125.463 239.4C127.56 246.96 131.175 255.96 135.497 265.291" stroke="black" stroke-width="4.72" stroke-miterlimit="10"/>
<path d="M178.93 47.0992L178.946 47.2C179.077 49.3078 178.57 51.3979 177.537 53.0107C176.503 54.6235 175.028 55.6272 173.435 55.8004C172.416 55.9174 171.391 55.6805 170.462 55.1128C170.196 54.9634 169.941 54.7841 169.698 54.5764C169.599 54.4849 169.518 54.3629 169.462 54.2211C169.406 54.0789 169.376 53.9212 169.376 53.761C169.376 53.6008 169.406 53.4431 169.462 53.3013C169.518 53.1591 169.599 53.037 169.698 52.9456C170.868 51.8296 171.937 50.2744 172.241 48.4528C172.333 47.8926 172.34 47.3141 172.263 46.75C172.18 46.031 171.956 45.3539 171.613 44.7855C171.27 44.217 170.821 43.7771 170.31 43.51C170.15 43.4473 169.984 43.4121 169.818 43.4056C169.347 43.3552 168.73 43.4344 168.607 43.8952C169.208 41.6614 169.233 39.2271 168.678 36.9724C168.333 35.5774 167.752 34.3054 166.978 33.2536C167.013 33.6611 166.98 34.0739 166.881 34.4625C166.782 34.8511 166.619 35.206 166.405 35.502C166.19 35.798 165.929 36.0277 165.64 36.175C165.351 36.3219 165.04 36.3827 164.731 36.3532C162.335 36.2452 161.883 33.2212 161.883 33.2212C161.883 33.2212 161.883 33.2572 161.883 33.2788C160.839 36.724 157.803 36.8176 155.627 35.2876C154.856 34.7636 154.178 34.0271 153.639 33.1276C153.022 29.596 155.222 26.1832 157.76 25.6936C157.814 23.4472 159.052 21.0424 160.722 20.8588C161.304 20.793 161.888 20.935 162.415 21.2699C162.941 21.6049 163.39 22.1206 163.714 22.7632C163.76 22.8604 163.812 22.9648 163.853 23.0728C164.536 21.7624 165.653 20.326 166.845 20.1928C167.671 20.1161 168.495 20.3774 169.206 20.9415C169.916 21.5057 170.478 22.3452 170.816 23.3464C170.816 23.1916 171.863 22.558 171.969 22.5004C172.947 22.0083 174.021 21.9609 175.022 22.3656C176.023 22.7704 176.893 23.6043 177.496 24.736C177.557 25.0489 177.597 25.3681 177.616 25.69C177.676 26.6529 177.564 27.6208 177.29 28.516C177.676 28.6619 178.037 28.9065 178.353 29.236C179.036 29.8981 179.495 30.8904 179.629 31.9972C179.642 32.1088 179.651 32.2204 179.656 32.332C179.71 33.1755 179.574 34.0214 179.264 34.762C180.069 35.0661 180.799 35.6429 181.384 36.4353C181.968 37.2276 182.386 38.2083 182.596 39.28C182.663 39.6346 182.707 39.996 182.73 40.36C182.822 41.9026 182.488 43.4369 181.789 44.6771C181.09 45.9169 180.073 46.778 178.93 47.0992Z" fill="#3FBDF1"/>
<path d="M178.93 47.0984L178.946 47.1992C179.077 49.307 178.57 51.3971 177.537 53.0099C176.503 54.6227 175.028 55.6264 173.435 55.7996C172.416 55.9166 171.391 55.6797 170.462 55.112C171.632 53.996 172.701 52.4372 173.003 50.6156C173.11 49.9384 173.098 49.2375 172.969 48.5672C172.839 47.8969 172.595 47.2751 172.255 46.7492C172.172 46.0306 171.948 45.3531 171.605 44.7847C171.262 44.2162 170.813 43.7763 170.302 43.5092C170.142 43.4465 169.976 43.4113 169.81 43.4048C169.971 41.1533 169.571 38.8936 168.67 36.9716C168.325 35.5767 167.744 34.3047 166.97 33.2529C167.005 33.6604 166.972 34.0732 166.873 34.4618C166.774 34.8504 166.611 35.2053 166.397 35.5013C166.182 35.7973 165.921 36.0269 165.632 36.1742C165.343 36.3211 165.032 36.3823 164.723 36.3524C162.327 36.2444 161.875 33.2205 161.875 33.2205C161.875 33.2205 161.875 33.2565 161.875 33.2781C160.831 36.7232 157.795 36.8168 155.619 35.2869C154.848 34.7628 154.17 34.0264 153.631 33.1269C153.014 29.5953 155.214 26.1825 157.752 25.6929C157.806 23.4465 159.044 21.0417 160.714 20.8581C161.296 20.7923 161.88 20.9342 162.407 21.2692C162.933 21.6042 163.381 22.1199 163.706 22.7625C163.752 22.8597 163.804 22.9641 163.845 23.0721C164.527 21.7617 165.645 20.3253 166.837 20.1921C167.664 20.113 168.49 20.3733 169.203 20.9376C169.914 21.5018 170.478 22.3427 170.816 23.3457C170.816 23.1909 171.863 22.5573 171.969 22.4997C172.947 22.0076 174.021 21.9601 175.022 22.3649C176.023 22.7697 176.893 23.6036 177.496 24.7353C177.557 25.0481 177.597 25.3673 177.616 25.6893C177.676 26.6521 177.564 27.6201 177.29 28.5153C177.676 28.6612 178.038 28.9058 178.353 29.2353C178.303 29.7299 178.206 30.2138 178.062 30.6753C178.665 30.9091 179.208 31.3603 179.629 31.9785C179.642 32.0901 179.651 32.2017 179.656 32.3133C179.71 33.1568 179.574 34.0027 179.264 34.7433C179.669 34.8961 180.057 35.1188 180.418 35.4057C180.359 35.932 180.23 36.4402 180.037 36.9068C181.065 37.2898 181.967 38.1189 182.596 39.2612C182.663 39.6158 182.707 39.9772 182.73 40.3412C182.826 41.8867 182.493 43.4257 181.794 44.6695C181.094 45.9133 180.076 46.7769 178.93 47.0984Z" fill="#3FBDF1"/>
<path d="M157.793 39.8843C157.793 39.8843 161.242 39.9491 162.033 43.8011" stroke="black" stroke-width="4.72" stroke-miterlimit="10"/>
<path d="M156.903 51.4267C156.119 51.683 155.304 51.7356 154.504 51.5815C154.354 51.5473 154.212 51.4656 154.091 51.3432C153.97 51.2204 153.873 51.0609 153.808 50.878C153.744 50.6952 153.714 50.4943 153.721 50.2927C153.728 50.0911 153.772 49.8945 153.849 49.7203C154.567 48.1111 155.307 46.5199 156.112 44.9899C156.238 44.7951 156.316 44.5539 156.335 44.2987C156.335 44.2987 156.003 39.5359 156.729 35.8818" stroke="black" stroke-width="4.72" stroke-miterlimit="10"/>
<path d="M159.617 43.9374C159.69 43.1699 159.349 42.4812 158.856 42.3992C158.363 42.3171 157.904 42.8726 157.831 43.6397C157.758 44.4072 158.099 45.0959 158.592 45.178C159.085 45.2601 159.544 44.7046 159.617 43.9374Z" fill="black"/>
<path d="M175.913 54.7886C175.987 55.7426 179.221 62.3486 182.145 69.6422C182.143 69.6541 182.143 69.6663 182.145 69.6782C182.199 69.833 182.254 69.9986 182.316 70.1642" stroke="black" stroke-width="4.72" stroke-linecap="round" stroke-linejoin="round"/>
<path d="M164.247 61.7725L165.265 71.3557" stroke="black" stroke-width="4.72" stroke-miterlimit="10"/>
<path d="M155.657 51.667C155.657 51.667 157.132 61.1566 160.757 62.593C164.383 64.0294 167.53 58.0426 167.53 58.0426" stroke="black" stroke-width="4.72" stroke-linecap="round" stroke-linejoin="round"/>
<path d="M156.648 55.9478C157.129 56.3204 157.674 56.5281 158.231 56.5518C158.789 56.5756 159.342 56.415 159.841 56.0846" stroke="black" stroke-width="4.72" stroke-linecap="round" stroke-linejoin="round"/>
<path d="M163.456 22.6404C163.413 21.9042 163.225 21.1957 162.912 20.5848C162.513 19.7752 161.921 19.1658 161.23 18.8541C160.539 18.5423 159.789 18.5462 159.1 18.865C158.411 19.1838 157.822 19.7992 157.429 20.6128C157.035 21.4264 156.858 22.3913 156.928 23.3532" stroke="black" stroke-width="4.72" stroke-miterlimit="10" stroke-linecap="round"/>
<path d="M162.052 29.1929C161.984 28.153 161.725 27.1508 161.299 26.2727C160.872 25.3947 160.291 24.6671 159.604 24.1529C156.147 21.5933 151.716 26.5649 152.954 31.4897C153.389 33.2033 154.425 34.4489 155.606 35.2769C157.782 36.807 160.828 36.717 161.862 33.2681L161.878 33.2141C161.878 33.2141 162.33 36.2346 164.726 36.3462C165.036 36.375 165.346 36.3134 165.635 36.1662C165.925 36.0186 166.186 35.7886 166.401 35.4925C166.616 35.1964 166.779 34.8414 166.879 34.4527C166.979 34.064 167.013 33.651 166.978 33.2429C169.04 36.051 169.579 40.2486 168.61 43.8882C168.787 43.233 169.97 43.3518 170.313 43.503C171.787 44.1834 172.573 46.491 172.247 48.4494C171.94 50.2818 170.871 51.8298 169.706 52.953C169.607 53.0441 169.526 53.1657 169.47 53.3072C169.414 53.4491 169.385 53.6067 169.385 53.7666C169.385 53.9264 169.414 54.0841 169.47 54.2256C169.526 54.3674 169.607 54.4891 169.706 54.5802C170.815 55.523 172.128 55.9536 173.441 55.8042C175.033 55.6307 176.508 54.6277 177.541 53.0156C178.574 51.4035 179.082 49.3145 178.952 47.2074L178.935 47.1066C179.986 46.8153 180.933 46.0669 181.625 44.9804C182.317 43.8939 182.714 42.5321 182.753 41.1122C182.792 39.6924 182.471 38.2956 181.841 37.1454C181.211 35.9953 180.307 35.1575 179.275 34.7657C179.585 34.0251 179.721 33.1792 179.667 32.3357C179.592 31.1914 179.179 30.1328 178.516 29.3908C177.853 28.6489 176.996 28.284 176.131 28.3757" stroke="black" stroke-width="4.72" stroke-linecap="round" stroke-linejoin="round"/>
<path d="M163.317 20.4117C163.97 18.9717 164.691 18.1653 166.037 18.0177C166.872 17.9273 167.708 18.1849 168.428 18.7542C169.147 19.3235 169.714 20.1761 170.049 21.1929C170.003 21.0525 171.096 20.3937 171.208 20.3361C171.644 20.1155 172.102 19.982 172.568 19.9401C173.81 19.8516 175.03 20.4014 175.973 21.4746C176.916 22.5478 177.51 24.0616 177.63 25.7001C177.69 26.6629 177.578 27.6309 177.303 28.5261" stroke="black" stroke-width="4.72" stroke-linecap="square" stroke-linejoin="round"/>
<path d="M182.145 69.646C182.145 69.646 184.685 80.8276 170.161 81.4324" stroke="black" stroke-width="4.72" stroke-miterlimit="10"/>
<path d="M106.624 181.673C106.6 173.498 112.671 171.298 115.578 171.37C133.598 171.824 136.316 133.253 136.316 133.253" stroke="black" stroke-width="4.72" stroke-linecap="round" stroke-linejoin="round"/>
<path d="M200.937 169.56C200.937 169.56 198.81 197.33 200.937 206.676C203.064 216.022 190.833 208.688 190.833 208.688" stroke="black" stroke-width="4.72" stroke-miterlimit="10"/>
<path d="M79.0732 190.491H64.9319" stroke="black" stroke-width="4.72" stroke-linecap="round" stroke-linejoin="round"/>
<path d="M129.741 190.491H102.683" stroke="black" stroke-width="4.72" stroke-linecap="round" stroke-linejoin="round"/>
<path d="M98.8015 190.491H82.8269" stroke="black" stroke-width="4.72" stroke-linecap="round" stroke-linejoin="round"/>
<path d="M98.3907 181.673H82.5957" stroke="black" stroke-width="4.72" stroke-linecap="round" stroke-linejoin="round"/>
<path d="M110.976 181.673H102.449" stroke="black" stroke-width="4.72" stroke-linecap="round" stroke-linejoin="round"/>
<path d="M132.652 181.673H116.182" stroke="black" stroke-width="4.72" stroke-linecap="round" stroke-linejoin="round"/>
<path d="M78.6489 181.673H75.8555" stroke="black" stroke-width="4.72" stroke-linecap="round" stroke-linejoin="round"/>
<path d="M97.8684 180.882H101.521C101.521 180.882 105.707 186.113 101.521 192.099V196.283H97.8684" stroke="black" stroke-width="4.72" stroke-linecap="round" stroke-linejoin="round"/>
<path d="M81.7822 180.882C81.7822 180.882 85.9683 186.113 81.7822 192.099V196.283" stroke="black" stroke-width="4.72" stroke-linecap="round" stroke-linejoin="round"/>
<path d="M81.7824 196.283H78.1294V192.099C82.3182 186.113 78.1294 180.882 78.1294 180.882H81.7824" stroke="black" stroke-width="4.72" stroke-linecap="round" stroke-linejoin="round"/>
<path d="M97.8684 180.882C97.8684 180.882 102.057 186.113 97.8684 192.099V196.283" stroke="black" stroke-width="4.72" stroke-linecap="round" stroke-linejoin="round"/>
<path d="M78.1294 192.099H81.7824" stroke="black" stroke-width="4.72" stroke-linecap="round" stroke-linejoin="round"/>
<path d="M97.8684 192.099H101.521" stroke="black" stroke-width="4.72" stroke-linecap="round" stroke-linejoin="round"/>
<path d="M111.95 179.003C111.484 179.79 111.151 180.701 110.976 181.674C110.745 183.111 110.658 184.581 110.718 186.048C110.734 187.488 110.87 188.964 111.904 189.72C113.457 190.869 115.323 189.227 115.404 186.873C115.493 185.103 115.755 183.355 116.182 181.674C116.199 181.591 116.218 181.519 116.234 181.451" stroke="black" stroke-width="4.72" stroke-linecap="round" stroke-linejoin="round"/>
<path d="M116.234 181.44C117.529 181.08 119.457 180.141 120.439 177.718" stroke="black" stroke-width="4.72" stroke-linecap="round" stroke-linejoin="round"/>
<path d="M107.399 190.491C107.399 190.491 108.417 194.04 110.976 194.472C113.536 194.904 111.917 190.491 111.917 190.491C111.917 190.491 112.978 193.601 114.262 193.706C115.546 193.81 116.656 192.266 116.212 190.491C116.212 190.491 116.604 193.346 118.502 193.032C120.401 192.719 119.618 190.491 119.618 190.491" stroke="black" stroke-width="4.72" stroke-linecap="round" stroke-linejoin="round"/>
<g opacity="0.54">
<path opacity="0.54" d="M78.2028 241.052L76.3668 276.145C75.3713 278.528 74.2506 280.638 73.2524 281.941C73.1191 281.876 72.9804 281.811 72.8526 281.732C72.6077 281.62 72.3657 281.491 72.1345 281.372C68.4135 279.212 65.6065 275.191 64.7633 270.651C64.0234 266.659 64.6925 262.346 63.2564 258.595C61.5047 253.976 56.7284 251.078 56.1545 245.862C55.6105 240.984 58.9261 236.502 58.3903 231.728C57.7701 226.328 52.7599 223.117 51.8242 217.836C51.2394 214.552 51.7617 210.787 51.5522 207.396C51.3047 203.617 50.8214 199.873 50.1079 196.2C57.5036 195.48 65.0325 200.88 67.4289 208.609C69.3873 214.934 68.2068 222.325 71.2722 228.088C72.9369 231.21 75.7113 233.542 77.1447 236.811C77.5867 237.83 77.9069 238.932 78.094 240.08C78.1076 240.159 78.1076 240.242 78.1185 240.303C78.1321 240.433 78.1429 240.53 78.1538 240.627C78.1783 240.908 78.2028 241.052 78.2028 241.052Z" fill="#3FBDF1"/>
<path opacity="0.54" d="M78.2164 241.038H78.2028C78.2028 241.038 78.1783 240.894 78.1538 240.621C78.1769 240.731 78.1933 240.845 78.2028 240.959C78.2164 240.988 78.2164 241.02 78.2164 241.038Z" fill="#3FBDF1"/>
</g>
<path d="M102.65 227.355C101.676 231.909 96.4486 234.678 95.8148 239.347C95.2545 243.483 98.7089 247.346 98.1377 251.547C97.5311 256.058 92.5671 258.553 90.7447 262.545C89.2596 265.785 89.9532 269.497 89.1862 272.942C88.2995 276.855 85.3782 280.347 81.475 282.198C81.2329 282.313 81.0017 282.424 80.7569 282.522C80.6236 282.568 80.4849 282.633 80.3435 282.68C79.0542 281.28 77.5826 278.817 76.3777 276.16L78.2137 241.068H78.2273C79.6499 239.473 81.2791 238.008 82.4107 236.236C83.6401 234.321 84.2113 232.23 84.5867 230.041H84.5921V229.8C85.1361 226.336 85.1769 222.715 86.4063 219.432C88.8979 212.75 96.7179 208.099 104.418 208.711C103.692 211.865 103.195 215.104 102.933 218.384C102.71 221.286 103.259 224.536 102.65 227.355Z" fill="#3FBDF1"/>
<path d="M84.592 229.77V230.011H84.5566C84.5757 229.928 84.592 229.849 84.592 229.77Z" fill="#3FBDF1"/>
<path d="M84.5921 229.769C84.5921 229.848 84.5676 229.928 84.5567 230.01C84.1922 232.199 83.621 234.291 82.3807 236.206C81.2492 237.977 79.6199 239.446 78.1973 241.037C78.1973 241.037 78.1973 240.987 78.1837 240.972C78.1742 240.858 78.1579 240.745 78.1348 240.634C78.1348 240.537 78.113 240.44 78.0994 240.31C78.0994 240.249 78.0994 240.166 78.0749 240.087C77.8878 238.939 77.5677 237.836 77.1257 236.818C75.6922 233.549 72.9178 231.216 71.2532 228.095C71.2532 228.095 72.0066 211.643 78.366 206.635C84.4071 201.901 84.5921 227.029 84.5921 229.769Z" fill="#3FBDF1"/>
<path d="M84.592 229.77V230.011H84.5566C84.5757 229.928 84.592 229.849 84.592 229.77Z" fill="#3FBDF1"/>
<path d="M78.2028 240.973V241.052C78.2028 241.052 78.1783 240.908 78.1538 240.635C78.1769 240.746 78.1933 240.859 78.2028 240.973Z" fill="#3FBDF1"/>
<path d="M77.637 241.057C79.0541 239.458 80.697 237.975 81.8339 236.207C85.0218 231.225 83.7951 224.86 85.8405 219.399C88.3293 212.725 96.1765 208.073 103.858 208.685C103.125 211.838 102.626 215.078 102.367 218.359C102.139 221.278 102.685 224.533 102.095 227.359C101.116 231.909 95.8909 234.67 95.2544 239.343C94.6914 243.476 98.1539 247.339 97.58 251.54C96.9707 256.051 92.0122 258.542 90.1843 262.534C88.6965 265.774 89.3956 269.486 88.6231 272.938C87.6874 277.1 84.4424 280.779 80.1911 282.511C80.0551 282.572 79.9191 282.633 79.7722 282.68C78.4829 281.279 77.0114 278.821 75.8037 276.16" stroke="black" stroke-width="4.72" stroke-miterlimit="10"/>
<path d="M99.1578 213.919C87.6821 230.267 82.2938 264.737 80.1858 282.517C80.0144 284.018 79.8594 285.397 79.7261 286.628" stroke="black" stroke-width="4.72" stroke-miterlimit="10"/>
<path d="M100.216 296.64L94.9282 337.875C94.8034 339.005 94.3796 340.04 93.7319 340.796C93.0843 341.551 92.2553 341.978 91.3922 342H63.8223C62.9522 341.975 62.1174 341.539 61.4689 340.77C60.8205 340.002 60.4011 338.952 60.2863 337.81L55.4175 296.64H100.216Z" stroke="black" stroke-width="4.72" stroke-miterlimit="10"/>
<path d="M105.231 292.047C105.082 294.646 103.526 296.647 101.66 296.647H54.06C52.2131 296.647 50.6709 294.689 50.4941 292.119C50.2901 289.181 51.9465 286.636 54.06 286.636H101.66C103.754 286.636 105.403 289.131 105.231 292.047Z" stroke="black" stroke-width="4.72" stroke-miterlimit="10"/>
<path d="M72.6867 281.948C74.7294 279.262 77.2291 273.286 78.3389 268.401C79.2501 264.373 77.6426 260.229 77.2754 256.1C76.6987 249.62 79.1277 242.676 76.5682 236.815C75.1429 233.546 72.3685 231.22 70.7038 228.088C67.6357 222.328 68.8134 214.948 66.8523 208.623C64.4642 200.88 56.9352 195.498 49.5422 196.2C50.2489 199.877 50.7273 203.625 50.973 207.406C51.1933 210.787 50.6656 214.552 51.245 217.846C52.1834 223.128 57.199 226.324 57.8138 231.735C58.3578 236.52 55.0339 240.994 55.5806 245.865C56.1682 251.089 60.9254 253.976 62.6853 258.602C64.1133 262.36 63.4442 266.666 64.1867 270.655C65.117 275.637 68.4082 280.015 72.6867 281.948Z" stroke="black" stroke-width="4.72" stroke-miterlimit="10"/>
<path d="M54.0547 202.269C65.0707 221.205 70.255 261.129 72.2787 281.739C72.4528 283.539 72.6078 285.163 72.7302 286.628" stroke="black" stroke-width="4.72" stroke-miterlimit="10"/>
<path d="M70.7039 228.089C70.7039 228.089 71.46 211.637 77.8167 206.633C84.1733 201.629 84.0482 229.68 84.0482 229.68" stroke="black" stroke-width="4.72" stroke-miterlimit="10"/>
<path d="M77.637 241.056C77.637 241.056 76.3368 231.642 78.6134 222.39" stroke="black" stroke-width="4.72" stroke-miterlimit="10"/>
<path d="M223.946 190.491H200.149" stroke="black" stroke-width="4.72" stroke-linecap="round" stroke-linejoin="round"/>
<path d="M224.332 181.673H200.91" stroke="black" stroke-width="4.72" stroke-linecap="round" stroke-linejoin="round"/>
<path d="M57.3459 342H208.899" stroke="black" stroke-width="4.72" stroke-miterlimit="10"/>
</svg>
