<svg width="272" height="360" viewBox="0 0 272 360" fill="none" xmlns="http://www.w3.org/2000/svg">
<path d="M76.7041 142.262C76.7041 142.262 80.7079 155.629 93.9543 156.284" stroke="#CCDDE2" stroke-width="5.32" stroke-miterlimit="10"/>
<path d="M109.507 153.947C109.507 153.947 117.123 151.304 122.125 141.185" stroke="#CCDDE2" stroke-width="5.32" stroke-miterlimit="10"/>
<path d="M221.971 337.373C222.733 336.747 227.501 337.373 228.398 337.373C230.352 337.385 232.301 337.137 234.216 336.635C258.229 330.263 260.361 283.715 257.323 252.456C256.675 245.902 255.564 239.441 254.004 233.16C249.508 214.772 241.452 197.736 231.611 183.754C227.952 178.559 223.535 173.984 221.136 167.471C216.746 155.544 220.181 141.713 222.224 129.61C224.944 113.367 226.084 95.68 212.682 87.598C184.53 70.6132 153.386 101.094 153.386 101.094" stroke="#CCDDE2" stroke-width="5.32" stroke-miterlimit="10"/>
<path d="M33.6466 279.983C32.0635 290.34 31.9819 301.18 34.6747 311.08C37.0792 319.918 41.8283 328.997 48.0381 334.044C51.5975 336.908 55.7901 338.073 59.9191 337.345" stroke="#CCDDE2" stroke-width="5.32" stroke-miterlimit="10"/>
<path d="M93.949 180.37V145.713V144.691V136.429V133.351V116.596" stroke="#CCDDE2" stroke-width="5.32" stroke-miterlimit="10"/>
<path d="M111.218 174.124V157.093C111.219 156.397 111.054 155.718 110.747 155.154C110.44 154.589 110.006 154.166 109.507 153.946L102.044 150.652V116.596" stroke="#CCDDE2" stroke-width="5.32" stroke-miterlimit="10"/>
<path d="M93.949 145.714C96.0896 146.517 99.7915 147.59 102.038 146.964" stroke="#CCDDE2" stroke-width="5.32" stroke-miterlimit="10"/>
<path d="M93.949 136.44C96.6119 136.721 99.933 137.027 102.044 137.754" stroke="#CCDDE2" stroke-width="5.32" stroke-miterlimit="10"/>
<path d="M93.949 144.691C96.3426 144.244 99.8351 143.272 102.044 142.009" stroke="#CCDDE2" stroke-width="5.32" stroke-miterlimit="10"/>
<path d="M93.949 133.352C98.6083 131.642 100.915 129.532 102.044 127.772" stroke="#CCDDE2" stroke-width="5.32" stroke-miterlimit="10"/>
<path d="M53.5407 124.858L43.4304 125.945" stroke="#CCDDE2" stroke-width="5.32" stroke-miterlimit="10"/>
<path d="M52.2675 118.958L42.2524 120.031" stroke="#CCDDE2" stroke-width="5.32" stroke-miterlimit="10"/>
<path d="M162.24 107.161L206.062 102.449C206.663 102.386 207.258 102.64 207.717 103.157C208.176 103.674 208.462 104.411 208.51 105.207C208.51 105.282 208.51 105.361 208.51 105.451C208.511 106.208 208.296 106.937 207.908 107.494C207.52 108.05 206.988 108.392 206.418 108.45L164.054 112.997" stroke="#CCDDE2" stroke-width="5.32" stroke-miterlimit="10"/>
<path d="M95.1457 120.401L85.6692 121.409" stroke="#CCDDE2" stroke-width="5.32" stroke-miterlimit="10"/>
<path d="M120.104 117.72L101.271 119.739" stroke="#CCDDE2" stroke-width="5.32" stroke-miterlimit="10"/>
<path d="M94.2861 114.452L87.3882 115.193" stroke="#CCDDE2" stroke-width="5.32" stroke-miterlimit="10"/>
<path d="M118.108 111.898L101.388 113.684" stroke="#CCDDE2" stroke-width="5.32" stroke-miterlimit="10"/>
<path d="M73.3314 286.366C73.5136 286.229 73.6931 286.089 73.8754 285.945C75.5346 284.616 75.7522 282.679 74.3758 280.973C68.5006 273.694 61.6789 267.466 54.1989 263.47C47.6546 259.971 39.9298 257.782 32.8686 258.945C29.6046 259.485 21.4283 261.619 23.5418 268.333C23.996 269.773 24.8555 270.918 25.7178 271.984C37.1173 286.017 58.336 297.695 73.3314 286.366Z" stroke="#CCDDE2" stroke-width="5.32" stroke-miterlimit="10"/>
<path d="M24.3168 270.256C13.5021 253.195 26.7648 206.089 32.4306 186.142C34.8623 177.559 34.9874 168.25 34.5821 159.185C34.457 155.967 31.4378 135.969 35.7898 136.53C36.4752 136.62 37.0138 137.272 37.468 137.97C38.7342 139.904 39.5105 142.316 39.6876 144.864C40.4753 143.825 41.3756 142.946 42.3586 142.258C42.9094 141.866 43.4844 141.537 44.0776 141.275C44.5395 141.013 45.0427 140.904 45.5437 140.958C47.1159 141.318 47.5892 144.061 47.26 146.142C46.7024 149.908 44.3768 151.366 42.87 154.289C42.6758 154.67 42.5049 155.071 42.3586 155.488C41.2216 158.605 41.3549 162.411 41.5426 165.834C41.8154 170.209 42.6641 174.486 44.0504 178.474" stroke="#CCDDE2" stroke-width="5.32" stroke-miterlimit="10"/>
<path d="M70.8018 242.612C73.5707 254.398 75.1837 266.642 75.2789 279.044C75.2979 280.333 75.2789 281.611 75.2517 282.899V283.051C75.2555 283.291 75.2481 283.531 75.2299 283.771" stroke="#CCDDE2" stroke-width="5.32" stroke-miterlimit="10"/>
<path d="M42.3585 155.487C42.3585 155.487 35.1315 153.129 33.6545 148.888" stroke="#CCDDE2" stroke-width="5.32" stroke-miterlimit="10"/>
<path d="M42.3587 142.261C42.3587 142.261 47.2329 114.901 37.1417 116.701C27.0505 118.501 33.6465 137.52 33.6465 137.52" stroke="#CCDDE2" stroke-width="5.32" stroke-miterlimit="10"/>
<path d="M37.4518 127.954C39.5532 127.954 41.257 125.699 41.257 122.918C41.257 120.136 39.5532 117.881 37.4518 117.881C35.3503 117.881 33.6465 120.136 33.6465 122.918C33.6465 125.699 35.3503 127.954 37.4518 127.954Z" stroke="#CCDDE2" stroke-width="5.32" stroke-miterlimit="10"/>
<path d="M189.698 199.918C190.621 201.023 191.822 201.633 193.066 201.632C195.593 201.632 197.649 199.206 197.649 196.232C197.649 189.21 197.643 182.19 197.63 175.172C197.63 171 198.304 163.069 193.066 163.069C189.475 163.069 188.472 166.809 188.483 170.359V174.229" stroke="#CCDDE2" stroke-width="5.32" stroke-miterlimit="10"/>
<path d="M189.698 155.444C190.137 156.04 190.66 156.514 191.238 156.841C191.816 157.167 192.437 157.338 193.066 157.345C193.666 157.345 194.261 157.189 194.816 156.885C195.371 156.581 195.875 156.135 196.3 155.573C196.724 155.011 197.061 154.344 197.291 153.61C197.52 152.875 197.638 152.088 197.638 151.293C197.638 143.452 197.632 135.611 197.619 127.771C197.619 123.123 198.304 114.249 193.066 114.249C189.475 114.249 188.472 118.436 188.472 122.396V125.636" stroke="#CCDDE2" stroke-width="5.32" stroke-miterlimit="10"/>
<path d="M192.26 163.052H193.876V156.284H192.26V163.052Z" fill="#D7E8F0"/>
<path d="M185.129 210.863C187.656 210.863 189.704 208.436 189.704 205.445C189.704 198.425 189.698 191.406 189.685 184.388C189.685 180.22 190.365 172.285 185.129 172.285C181.541 172.285 180.535 176.033 180.537 179.575C180.548 187.62 180.554 195.669 180.554 203.72C180.554 204.995 180.554 206.294 180.907 207.5C181.495 209.549 183.328 210.863 185.129 210.863Z" stroke="#CCDDE2" stroke-width="5.32" stroke-miterlimit="10"/>
<path d="M185.126 166.587C186.339 166.587 187.503 165.948 188.361 164.813C189.219 163.677 189.701 162.137 189.701 160.531C189.701 152.691 189.695 144.85 189.682 137.009C189.682 132.351 190.362 123.487 185.126 123.487C181.538 123.487 180.532 127.674 180.535 131.631C180.535 140.621 180.54 149.611 180.551 158.602C180.551 160.042 180.551 161.482 180.902 162.828C181.492 165.114 183.328 166.587 185.126 166.587Z" stroke="#CCDDE2" stroke-width="5.32" stroke-miterlimit="10"/>
<path d="M184.321 172.281H185.936V165.513H184.321V172.281Z" fill="#D7E8F0"/>
<path d="M185.504 123.57C184.163 119.204 184.397 114.812 184.96 110.751C185.153 109.383 185.384 108.069 185.605 106.791C185.818 105.568 186.337 104.476 187.078 103.693C187.818 102.908 188.736 102.478 189.685 102.471H189.704C190.746 102.47 191.75 102.983 192.522 103.911" stroke="#CCDDE2" stroke-width="5.32" stroke-miterlimit="10"/>
<path d="M193.982 109.8C193.914 112.68 193.066 114.257 193.066 114.257" stroke="#CCDDE2" stroke-width="5.32" stroke-miterlimit="10"/>
<path d="M163.162 312.865C163.031 314.016 162.772 315.135 162.392 316.184C162.343 314.87 163.162 312.865 163.162 312.865Z" fill="#2E2E2E"/>
<path d="M145.025 311.497C145.256 308.74 146.605 304.985 147.745 300.697C146.839 304.654 145.438 308.675 145.025 311.497Z" fill="#2E2E2E"/>
<path d="M148.512 315.251C147.835 315.737 146.959 316.159 145.963 315.176C146.793 315.498 147.672 315.525 148.512 315.251Z" fill="#2E2E2E"/>
<path d="M148.218 297.36C148.219 296.44 148.077 295.53 147.8 294.686C147.522 293.842 147.117 293.083 146.608 292.457C147.465 293.353 148.305 294.717 148.218 297.36Z" fill="#2E2E2E"/>
<path d="M149.741 314.676C150.075 314.458 150.392 314.197 150.688 313.898C150.402 314.513 150.178 315.174 150.022 315.864C149.992 315.151 149.896 314.806 149.741 314.676Z" fill="#2E2E2E"/>
<path d="M154.151 318.891C152.984 319.798 151.703 319.971 150.887 319.031C152.018 319.759 153.188 319.438 154.151 318.891Z" fill="#2E2E2E"/>
<path d="M156.381 318.395C156.169 318.035 155.938 317.768 155.565 317.858C155.728 317.718 155.864 317.588 155.978 317.498C156.4 317.117 156.313 317.718 156.381 318.395Z" fill="#2E2E2E"/>
<path d="M157.605 319.72C158.772 319.594 160.26 319.428 161.427 317.945C161.359 318.085 161.301 318.254 161.233 318.431C160.586 320.206 158.9 319.72 157.605 319.72Z" fill="#2E2E2E"/>
<path d="M162.73 317.127C162.476 317.044 162.211 317.044 161.957 317.127C162.122 316.829 162.267 316.514 162.392 316.184C162.384 316.366 162.41 316.548 162.469 316.713C162.528 316.878 162.618 317.021 162.73 317.127Z" fill="#2E2E2E"/>
<path d="M163.954 317.473C163.741 317.423 163.548 317.358 163.374 317.308C164.609 317.218 165.931 317.283 166.965 315.789C166.192 316.977 165.131 317.779 163.954 317.473Z" fill="#2E2E2E"/>
<path d="M167.28 315.252C167.407 315.003 167.52 314.742 167.62 314.471C167.52 314.741 167.406 315.002 167.28 315.252Z" fill="#2E2E2E"/>
<path d="M168.096 312.916C168.039 313.164 167.976 313.402 167.914 313.636C167.985 313.401 168.046 313.16 168.096 312.916Z" fill="#2E2E2E"/>
<path d="M167.623 314.472C167.73 314.195 167.826 313.912 167.911 313.622C167.83 313.914 167.734 314.198 167.623 314.472Z" fill="#2E2E2E"/>
<path d="M168.18 302.609C168.13 302.501 168.064 302.407 167.986 302.333C167.908 302.258 167.82 302.205 167.726 302.177L168.344 301.756C168.259 302.029 168.205 302.316 168.18 302.609Z" fill="#2E2E2E"/>
<path d="M212.677 275.958C204.139 287.349 193.063 291.053 193.063 291.053C193.536 301.133 191.877 335.034 191.752 336.514C191.627 337.994 185.469 337.497 185.469 337.497L158.976 337.446C159.792 337.126 160.567 336.795 161.291 336.424C174.132 329.944 174.983 316.952 173.101 307.592C172.04 302.303 171.044 300.752 170.207 300.554C172.521 299.114 176.139 297.094 179.642 295.971C185.431 294.12 204.544 287.208 210.631 278.154C211.226 277.291 211.916 276.55 212.677 275.958Z" fill="#2E2E2E"/>
<path d="M210.392 204.12C210.392 204.12 201.28 193.187 191.028 207.871C183.801 218.229 183.51 226.131 183.975 229.9C184.231 230.673 184.403 231.49 184.487 232.326L185.403 233.143L184.775 233.064C185.915 236.117 189.84 248.008 184.968 255.719C179.332 264.633 172.279 276.239 153.245 286.06C153.245 286.06 143.79 282.384 141.214 290.938C141.214 290.938 144.272 290.218 145.506 291.409C139.824 290.671 121.026 291.244 121.026 291.244C121.026 291.244 109.363 293.53 106.477 307.444C103.591 321.358 107.454 324.288 113.204 333.213C114.292 334.887 116.196 336.28 118.674 337.378L104.181 337.353L105.408 334.53C106.768 330.135 103.469 329.292 103.469 329.292C100.11 328.911 100.977 326.304 100.977 326.304C97.4087 296.604 98.1431 252.101 99.1848 240.811C100.227 229.522 98.7007 232.805 98.7007 232.805C96.0106 236.661 80.3516 240.811 80.3516 240.811C87.75 234.886 90.3068 227.131 91.5906 208.836C92.8445 191.059 85.6474 184.511 85.2312 184.14C85.2283 184.138 85.225 184.138 85.2217 184.138C85.2185 184.138 85.2152 184.138 85.2122 184.14L113.163 173.016L132.026 169.161C131.738 170.338 131.245 170.032 130.299 170.208L128.632 170.529C128.696 170.534 128.758 170.561 128.812 170.607C128.866 170.654 128.91 170.719 128.939 170.795C128.962 170.885 128.975 170.98 128.977 171.076C129.162 176.238 131.697 180.691 134.98 183.287C139.522 186.887 145.92 186.797 150.571 183.514C153.909 181.152 155.598 176.62 155.443 171.702C174.847 174.863 196.928 184.77 210.392 204.12Z" fill="#2E2E2E"/>
<path d="M128.738 290.492L132.51 294.056L132.192 293.786C129.479 291.639 126.376 290.51 123.216 290.521L128.738 290.492Z" fill="#D7E8F0"/>
<path d="M155.965 316.325C155.957 316.494 155.924 316.659 155.87 316.811C155.856 316.17 155.976 315.814 155.965 316.325Z" fill="#D7E8F0"/>
<path d="M173.824 313.657C173.823 319.797 171.98 325.684 168.699 330.026C165.419 334.367 160.971 336.807 156.332 336.809H123.216C126.848 336.809 130.39 335.313 133.351 332.528C136.311 329.743 138.543 325.807 139.736 321.267C140.93 316.726 141.026 311.807 140.01 307.191C138.995 302.575 136.92 298.493 134.072 295.509C133.57 294.993 133.048 294.512 132.508 294.069H147.74C148.202 295.077 148.858 297.72 147.239 303.545C145.02 311.511 143.891 314.78 146.967 315.482C150.043 316.184 150.503 312.242 150.683 313.913C150.862 315.583 148.645 316.976 150.876 319.046C152.872 320.897 155.353 318.369 155.864 316.825C155.864 317.959 156.27 319.979 158.478 319.799C161.952 319.518 162.558 315.201 162.558 315.201C162.618 315.81 162.832 316.373 163.165 316.8C163.498 317.227 163.93 317.492 164.391 317.552C166.059 317.808 168.83 314.715 168.569 310.043C168.308 305.37 167.286 301.565 169.63 300.542C169.924 300.429 170.188 300.208 170.392 299.905C172.628 303.878 173.833 308.703 173.824 313.657Z" fill="#D7E8F0"/>
<path d="M161.522 141.285C161.48 141.293 161.438 141.293 161.397 141.285C161.514 142.038 161.726 142.841 161.87 143.647C161.984 144.252 162.033 144.875 162.014 145.498C161.859 148.424 160.298 150.005 158.173 150.084C158.226 150.754 158.125 151.43 157.882 152.022C157.639 152.614 157.267 153.096 156.813 153.403C155.677 154.195 153.821 154.015 152.954 152.625C151.942 151.002 152.442 148.997 153.063 147.225C153.283 146.599 153.506 146.012 153.688 145.476C153.911 144.81 154.104 144.147 154.276 143.471C154.882 140.969 155.35 138.412 155.677 135.821C156.081 133.208 156.348 130.562 156.476 127.901C156.343 127.249 156.427 126.317 156.234 125.64C155.954 124.59 155.443 123.675 154.768 123.012C153.378 121.658 151.534 121.748 150.06 120.549C148.726 119.448 147.675 117.841 147.041 115.938C146.913 115.542 146.798 115.031 146.624 114.584C146.544 114.345 146.425 114.131 146.276 113.958C145.61 113.22 145.226 114.519 144.821 115.038C144.403 115.55 143.907 115.938 143.366 116.176C142.825 116.414 142.252 116.496 141.685 116.417C141.257 116.343 140.84 116.18 140.45 115.934C140.163 115.727 139.895 115.479 139.65 115.193C139.361 114.819 139.024 114.516 138.655 114.3C137.961 113.94 137.923 115.473 137.825 115.995C137.632 116.942 137.295 117.709 136.62 118.155C136.245 118.4 135.833 118.531 135.415 118.541C134.928 118.564 134.441 118.478 133.976 118.285C133.528 118.108 133.102 117.844 132.712 117.504C132.642 117.44 132.56 117.404 132.475 117.399C132.39 117.395 132.306 117.423 132.233 117.479C132.159 117.535 132.099 117.617 132.06 117.717C132.02 117.816 132.003 117.928 132.01 118.04C132.143 123.034 128.613 124.772 127.165 125.269C126.621 133.189 128.253 141.959 131.517 148.752C131.395 149.765 131.084 150.721 130.612 151.535C128.226 152.327 125.476 151.474 124.445 148.752C123.357 145.872 123.499 141.844 125.199 139.774C124.021 139.536 123.689 137.228 124.367 135.875C124.424 135.749 124.454 135.673 124.413 135.544C124.269 135.022 122.536 134.589 122.063 134.388C121.387 134.066 120.777 133.542 120.281 132.854C119.786 132.167 119.418 131.336 119.207 130.428C118.203 126.047 120.749 121.374 123.934 120.312C122.988 118.105 121.734 116.316 121.214 113.764C120.695 111.211 120.991 108.54 122.468 106.635C123.065 105.883 123.794 105.338 124.589 105.052C125.384 104.765 126.221 104.745 127.024 104.994C127.493 105.446 127.91 105.989 128.259 106.603C128.043 106.184 127.872 105.729 127.748 105.249C128.827 105.736 129.773 106.634 130.468 107.831C129.225 105.365 129.687 102.006 131.088 99.8351C132.774 97.2179 136.093 96.6419 138.41 97.9847C138.577 98.088 138.738 98.2083 138.891 98.3447C139.114 98.7047 139.335 99.0647 139.558 99.4031C139.583 99.3109 139.612 99.2209 139.645 99.1331C140.113 99.7717 140.557 100.441 140.975 101.138C142.482 95.4827 148.452 95.4683 151.607 98.4203C152.351 99.1209 152.959 100.043 153.384 101.113C153.545 102.052 153.532 103.029 153.345 103.961C153.152 104.857 153.307 105.534 153.74 105.725C154.066 105.829 154.41 105.77 154.705 105.559C155.864 104.868 156.819 104.025 158.16 104.216C162.55 104.832 165.732 112.363 163.137 117.281C162.984 117.586 162.81 117.873 162.618 118.138C162.251 118.634 161.429 119.185 161.258 119.873C161.253 119.889 161.253 119.907 161.258 119.923C160.932 121.363 163.352 121.698 164 122.083C169.695 125.233 168.488 140.799 161.522 141.285Z" fill="#3FBDF1"/>
<path d="M128.632 170.507L130.299 170.187C130.758 170.102 131.191 169.85 131.548 169.457C131.904 169.065 132.171 168.548 132.317 167.965C132.376 167.764 132.414 167.554 132.431 167.339L132.45 167.163L132.663 165.042L134.102 153.256" stroke="black" stroke-width="5.32" stroke-miterlimit="10"/>
<path d="M152.954 152.64L153.09 168.732V169.243C153.097 169.763 153.239 170.264 153.492 170.661C153.745 171.058 154.094 171.328 154.48 171.425L155.454 171.681" stroke="black" stroke-width="5.32" stroke-miterlimit="10"/>
<path d="M127.147 125.248C126.48 134.748 128.969 145.487 133.639 152.561C142.343 165.755 149.687 152.561 149.687 152.561" stroke="black" stroke-width="5.32" stroke-miterlimit="10"/>
<path d="M156.563 128.191C156.31 127.561 156.46 126.427 156.24 125.632C155.952 124.587 155.441 123.676 154.768 123.011C153.375 121.665 151.531 121.747 150.06 120.556C148.72 119.448 147.663 117.833 147.027 115.919C146.826 115.314 146.668 114.385 146.271 113.946C145.604 113.226 145.218 114.504 144.807 115.026C144.231 115.739 143.505 116.204 142.726 116.364C141.946 116.523 141.148 116.368 140.436 115.919C139.775 115.491 139.321 114.627 138.633 114.285C137.945 113.943 137.907 115.451 137.803 115.98C137.616 116.92 137.278 117.687 136.601 118.14C135.396 118.929 133.748 118.41 132.695 117.478C132.625 117.415 132.542 117.379 132.456 117.375C132.371 117.372 132.287 117.4 132.213 117.456C132.139 117.513 132.079 117.596 132.039 117.696C131.999 117.796 131.981 117.909 131.988 118.021C132.154 124.303 126.534 125.423 126.534 125.423" stroke="black" stroke-width="5.32" stroke-miterlimit="10"/>
<path d="M135.072 139.06C137.882 139.06 140.159 136.046 140.159 132.328C140.159 128.61 137.882 125.596 135.072 125.596C132.263 125.596 129.986 128.61 129.986 132.328C129.986 136.046 132.263 139.06 135.072 139.06Z" stroke="black" stroke-width="5.32" stroke-miterlimit="10"/>
<path d="M148.259 138.467C151.068 138.467 153.345 135.453 153.345 131.735C153.345 128.017 151.068 125.003 148.259 125.003C145.45 125.003 143.173 128.017 143.173 131.735C143.173 135.453 145.45 138.467 148.259 138.467Z" stroke="black" stroke-width="5.32" stroke-miterlimit="10"/>
<path d="M132.948 133.009C132.948 133.009 134.996 136.119 137.107 133.009" stroke="black" stroke-width="5.32" stroke-miterlimit="10"/>
<path d="M146.178 133.009C146.178 133.009 148.229 136.119 150.337 133.009" stroke="black" stroke-width="5.32" stroke-miterlimit="10"/>
<path d="M140.162 132.329C140.162 132.329 141.315 129.845 143.17 131.735" stroke="black" stroke-width="5.32" stroke-miterlimit="10"/>
<path d="M137.822 122.343C137.822 122.343 132.543 117 128.112 122.04" stroke="black" stroke-width="5.32" stroke-miterlimit="10"/>
<path d="M153.267 119.538C153.267 119.538 146.997 116.64 143.97 123.235" stroke="black" stroke-width="5.32" stroke-miterlimit="10"/>
<path d="M131.333 148.514C131.32 149.632 131.043 150.717 130.539 151.615C130.035 152.513 129.331 153.179 128.526 153.518C125.92 154.54 123.162 151.948 122.033 148.96C121.62 147.928 121.431 146.765 121.487 145.6C121.544 144.434 121.843 143.312 122.351 142.358C122.397 142.262 122.427 142.155 122.44 142.043C122.454 141.931 122.45 141.817 122.429 141.707C122.408 141.597 122.37 141.494 122.318 141.404C122.266 141.314 122.2 141.24 122.125 141.184C121.619 140.782 121.2 140.212 120.91 139.531C120.619 138.851 120.468 138.082 120.469 137.3C120.47 136.97 120.497 136.642 120.551 136.321C120.567 136.203 120.565 136.083 120.545 135.966C120.524 135.85 120.486 135.74 120.431 135.645C120.377 135.549 120.308 135.47 120.23 135.412C120.151 135.353 120.064 135.317 119.974 135.305C119.708 135.275 119.444 135.216 119.185 135.129C118.459 134.788 117.804 134.228 117.271 133.492C116.739 132.756 116.343 131.866 116.117 130.892C115.029 126.179 117.779 121.147 121.203 120.013C120.181 117.637 118.829 115.721 118.268 112.964C117.708 110.206 118.037 107.355 119.628 105.299C122.09 102.11 126.265 103.103 128.254 106.603C126.913 103.946 127.416 100.331 128.92 97.995C130.734 95.187 134.303 94.575 136.792 96.0042C137.98 96.6954 138.742 98.1246 139.552 99.3882C141.184 93.3222 147.59 93.2682 150.976 96.465C152.753 98.1354 153.911 101.177 153.332 103.946C153.033 105.353 153.582 106.196 154.692 105.544C155.851 104.867 156.805 104.011 158.146 104.201C162.798 104.853 166.097 113.281 162.604 118.123C162.237 118.634 161.416 119.17 161.244 119.858C160.847 121.327 163.32 121.683 163.964 122.054C169.734 125.261 168.469 140.993 161.397 141.31C161.609 142.653 162.093 144.133 162.014 145.511C161.859 148.438 160.298 150.019 158.174 150.109C158.329 151.426 157.711 152.791 156.814 153.417C155.677 154.22 153.822 154.029 152.954 152.639C151.594 150.443 152.995 147.567 153.688 145.475C154.711 142.408 155.212 139.103 155.677 135.82C156.1 133.101 156.373 130.345 156.493 127.573V127.457" stroke="black" stroke-width="5.32" stroke-miterlimit="10"/>
<path d="M75.8881 57.571L73.8154 68.2594H73.8725L74.577 65.8222L89.3276 50.7274L90.8236 42.9514L75.8881 57.571ZM81.2601 35.2798C80.8817 35.5459 80.5496 35.9141 80.2855 36.3605C80.0211 36.8069 79.8307 37.3217 79.726 37.8718L76.685 53.5246L91.7457 38.1238L94.0223 26.2798L81.2601 35.2798ZM83.7951 41.3998C83.6129 42.6274 83.0444 43.5202 82.5222 43.3906C81.9999 43.261 81.7306 42.1414 81.9237 40.903C82.1169 39.6646 82.6772 38.7682 83.1994 38.9086C83.7217 39.049 83.9801 40.1398 83.7951 41.3782V41.3998ZM76.1791 67.4638L76.6143 67.309C76.7865 67.2132 76.9717 67.1653 77.1583 67.1686C77.3645 67.1697 77.5677 67.2319 77.7532 67.3504C77.9387 67.4692 78.1019 67.6413 78.2305 67.8544C78.3592 68.0675 78.45 68.3159 78.4965 68.5816C78.5431 68.8473 78.5439 69.1234 78.4993 69.3898L76.0105 82.4398L83.787 79.6318L88.4273 55.4398L76.1791 67.4638Z" fill="#D7E8F0"/>
<path d="M71.4763 193.982C72.5371 183.067 73.0322 171.935 74.0685 160.937L74.2371 159.217C74.5282 156.243 74.8709 153.269 75.2898 150.328C75.3036 150.186 75.3238 150.046 75.3496 149.907C75.589 148.165 75.8528 146.437 76.1656 144.705C77.055 139.525 79.3126 135.734 81.5158 131.515L81.6546 131.061C86.417 121.885 89.0543 111.069 89.2434 99.9391C89.295 95.9143 89.1754 87.9583 85.6883 86.3095C83.7299 85.3807 81.6546 87.1915 80.5693 89.2615C80.1159 90.114 79.75 91.0424 79.4813 92.0227" stroke="black" stroke-width="5.32" stroke-miterlimit="10"/>
<path d="M54.0029 140.167C50.5377 156.601 44.7685 172.081 41.9316 188.741C39.3285 204.002 38.5452 226.21 49.4687 236.449C59.0676 245.449 73.0293 243.231 83.757 239.796C86.8798 238.814 89.954 237.576 92.9615 236.092C95.2789 234.955 97.4495 233.46 99.7153 232.236C99.7153 232.236 95.5564 287.057 101.347 329.044" stroke="black" stroke-width="5.32" stroke-miterlimit="10"/>
<path d="M54.0056 140.17L54.5795 137.441C55.3436 133.822 55.1594 129.968 54.0573 126.504L52.9203 122.904C52.1778 119.909 51.9466 118.458 52.8768 115.528C53.3188 114.146 53.9382 112.876 54.7074 111.773C56.9541 108.494 60.1175 106.863 63.3733 106.308C66.6291 105.754 70.2304 106.186 72.8525 108.98C74.6314 110.88 76.3069 115.395 75.1536 118.34C74.3077 120.5 72.5207 121.112 70.9975 120.341C70.4649 120.079 69.9853 119.658 69.5967 119.11C67.8015 116.619 63.8847 116.111 62.541 118.53" stroke="black" stroke-width="5.32" stroke-miterlimit="10"/>
<path d="M55.458 104.141C55.186 102.751 55.2268 100.994 55.8524 98.7405C56.75 95.5185 59.364 93.4017 61.9126 92.0121C62.8428 91.5009 63.7676 91.0833 64.5864 90.7557C67.3662 89.6217 70.4153 89.0241 73.3665 89.4201C74.3642 89.5501 75.3513 89.7996 76.315 90.1653C77.4261 90.5916 78.4891 91.2126 79.4756 92.0121C81.9236 93.9885 83.5556 96.9981 84.5539 100.947C85.4161 104.353 85.7507 108.403 83.6128 110.531" stroke="black" stroke-width="5.32" stroke-miterlimit="10"/>
<path d="M75.5127 115.643L76.2716 117.648C77.2209 119.027 78.5374 119.898 80.3516 119.301C83.8876 118.134 84.2412 114.261 83.6156 110.545C83.5101 109.871 83.3738 109.207 83.2076 108.555C82.3916 105.282 81.0942 102.647 79.299 100.725C78.0222 99.359 76.5477 98.3543 74.966 97.7725C73.6803 97.2804 72.354 96.9989 71.0166 96.9337C68.3814 96.8236 65.7512 97.3106 63.2401 98.3737C60.7268 99.3925 57.2914 101.146 55.4609 104.155C55.051 104.815 54.7276 105.561 54.5034 106.362C53.9404 108.385 53.8452 110.027 54.0438 111.352L54.2206 112.554" stroke="black" stroke-width="5.32" stroke-miterlimit="10"/>
<path d="M66.0581 97.4439V97.4331" stroke="black" stroke-width="3.55" stroke-miterlimit="10"/>
<path d="M105.582 333.295C105.56 334.377 105.22 335.405 104.634 336.161C104.049 336.917 103.264 337.342 102.446 337.345H75.888C75.2912 337.346 74.7075 337.115 74.2097 336.679C74.2296 335.6 74.5671 334.574 75.1506 333.819C75.7337 333.065 76.5166 332.642 77.3323 332.64H103.904C104.499 332.647 105.08 332.874 105.582 333.295Z" fill="#D7E8F0"/>
<path d="M105.582 333.295C105.56 334.377 105.22 335.405 104.634 336.161C104.049 336.917 103.264 337.342 102.446 337.345H75.888C75.2912 337.346 74.7075 337.115 74.2097 336.679C74.2296 335.6 74.5671 334.574 75.1506 333.819C75.7337 333.065 76.5166 332.642 77.3323 332.64H103.904C104.499 332.647 105.08 332.874 105.582 333.295Z" fill="#D7E8F0"/>
<path d="M73.8235 68.2671L79.7286 37.8651C79.8366 37.3168 80.0292 36.8042 80.2941 36.3596C80.559 35.9145 80.8906 35.5471 81.2681 35.2802L99.4921 22.4282L88.8297 77.8035L75.9777 82.4403" stroke="black" stroke-width="5.32" stroke-miterlimit="10"/>
<path d="M69.1698 118.598V118.609L68.3157 123.113L61.6653 123.134L62.5357 118.541L62.5466 118.53" stroke="black" stroke-width="5.32" stroke-linecap="round" stroke-linejoin="round"/>
<path d="M68.0408 89.6938L72.0065 68.9002L76.6142 67.2946C76.7818 67.1984 76.9621 67.1484 77.1446 67.147C77.3511 67.1488 77.5542 67.2121 77.7398 67.3317C77.9253 67.4512 78.0882 67.624 78.2168 67.8375C78.3452 68.0513 78.4361 68.3001 78.4826 68.5661C78.5291 68.8321 78.5302 69.1086 78.4856 69.3754L74.6477 89.6722" stroke="black" stroke-width="5.32" stroke-linecap="round" stroke-linejoin="round"/>
<path d="M79.3153 84.1714L78.0505 91.015" stroke="black" stroke-width="5.32" stroke-linecap="round" stroke-linejoin="round"/>
<path d="M72.5725 120.644L71.2642 127.714" stroke="black" stroke-width="5.32" stroke-linecap="round" stroke-linejoin="round"/>
<path d="M68.3157 123.113L71.2642 127.714H64.709L61.6653 123.134L68.3157 123.113Z" stroke="black" stroke-width="5.32" stroke-linecap="round" stroke-linejoin="round"/>
<path d="M83.8028 41.3805C83.9889 40.1443 83.7204 39.0315 83.2031 38.8951C82.686 38.759 82.1162 39.6507 81.9301 40.8869C81.7441 42.1232 82.0125 43.2359 82.5299 43.372C83.0469 43.5085 83.6168 42.6167 83.8028 41.3805Z" fill="black"/>
<path d="M105.724 314.211C105.724 318.79 106.75 323.266 108.673 327.072C110.595 330.879 113.327 333.846 116.524 335.598C119.72 337.35 123.237 337.807 126.63 336.914C130.023 336.02 133.14 333.815 135.586 330.577C138.032 327.339 139.698 323.214 140.372 318.723C141.047 314.232 140.701 309.577 139.377 305.347C138.052 301.117 135.81 297.501 132.934 294.957C130.057 292.414 126.676 291.056 123.216 291.056C120.918 291.055 118.643 291.653 116.52 292.816C114.398 293.98 112.469 295.686 110.845 297.836C109.22 299.986 107.931 302.539 107.053 305.349C106.174 308.159 105.723 311.17 105.724 314.211Z" stroke="black" stroke-width="5.32" stroke-miterlimit="10"/>
<path d="M75.8882 337.357H102.446C104.181 337.357 105.588 335.495 105.588 333.199C105.588 330.902 104.181 329.041 102.446 329.041H75.8882C74.1531 329.041 72.7466 330.902 72.7466 333.199C72.7466 335.495 74.1531 337.357 75.8882 337.357Z" stroke="black" stroke-width="5.32" stroke-miterlimit="10"/>
<path d="M71.4763 188.907C76.1547 187.798 80.708 186.027 85.2232 184.119C89.461 182.319 93.677 180.404 97.9419 178.755C103.007 176.814 108.109 175.004 113.272 173.52C115.897 172.768 118.54 172.102 121.192 171.58C121.598 171.504 122.008 171.425 122.408 171.364C123.363 171.195 124.329 171.044 125.294 170.903C126.26 170.763 127.28 170.648 128.286 170.493C128.404 170.468 128.525 170.468 128.643 170.493C128.707 170.498 128.769 170.525 128.823 170.572C128.877 170.619 128.921 170.683 128.95 170.759C128.973 170.85 128.986 170.945 128.988 171.04C129.173 176.202 131.708 180.656 134.991 183.251C139.533 186.851 145.931 186.761 150.582 183.478C153.92 181.116 155.609 176.584 155.454 171.666C174.847 174.849 196.923 184.756 210.398 204.088L210.455 204.167C214.172 209.463 217.171 215.567 219.322 222.21C225.578 241.823 222.621 266.163 209.402 279.45C202.659 286.233 194.526 290.61 186.217 293.804C180.361 296.079 172.663 297.177 167.721 302.17" stroke="black" stroke-width="5.32" stroke-miterlimit="10"/>
<path d="M150.688 313.163C150.612 313.142 150.528 313.106 150.449 313.073" stroke="black" stroke-width="5.32" stroke-miterlimit="10"/>
<path d="M177.265 220.179C182.112 224.06 185.175 233.193 186.63 240.127C188.681 249.894 184.691 258.343 179.332 264.632C176.702 267.724 173.789 270.298 170.933 272.995C165.73 277.92 160.418 282.488 154.496 285.753C153.623 286.236 152.693 286.059 151.776 285.825C150.617 285.537 149.491 285.044 148.319 284.86C147.013 284.659 145.901 285.264 144.783 286.135C143.106 287.456 141.572 289.073 140.224 290.941L123.216 291.06C127.855 291.06 132.305 293.499 135.585 297.841C138.865 302.183 140.708 308.071 140.708 314.211C140.708 320.351 138.865 326.24 135.585 330.582C132.305 334.924 127.855 337.363 123.216 337.363H156.335C159.611 337.363 162.822 336.145 165.601 333.847C168.38 331.55 170.615 328.265 172.052 324.368C173.489 320.471 174.071 316.117 173.729 311.805C173.388 307.491 172.138 303.392 170.122 299.973" stroke="black" stroke-width="5.32" stroke-miterlimit="10"/>
<path d="M127.905 314.611C127.906 315.443 127.783 316.266 127.543 317.035C127.303 317.803 126.951 318.501 126.506 319.089C126.063 319.678 125.535 320.144 124.954 320.462C124.374 320.78 123.752 320.944 123.124 320.943C121.875 320.904 120.687 320.22 119.814 319.037C118.942 317.854 118.453 316.266 118.453 314.613C118.453 312.959 118.942 311.372 119.814 310.189C120.687 309.006 121.875 308.321 123.124 308.282C123.752 308.282 124.374 308.445 124.954 308.763C125.534 309.081 126.062 309.547 126.506 310.135C126.95 310.723 127.302 311.42 127.542 312.189C127.782 312.956 127.906 313.78 127.905 314.611Z" fill="#D7E8F0"/>
<path d="M163.627 304.161C163.902 305.296 164.027 306.486 163.994 307.678C163.98 308.897 163.839 310.109 163.576 311.278C163.488 311.674 163.396 312.059 163.304 312.433C163.26 312.581 163.219 312.714 163.176 312.851C162.913 313.598 162.71 314.378 162.569 315.18C162.458 316.066 162.594 316.901 163.385 317.297C163.804 317.468 164.247 317.515 164.681 317.435C165.115 317.355 165.531 317.149 165.898 316.833C169.336 313.564 168.89 307.253 167.745 302.173C167.49 301.039 167.201 299.967 166.899 299.005" stroke="black" stroke-width="5.32" stroke-miterlimit="10"/>
<path d="M162.656 314.589C162.194 316.173 161.296 318.189 160.208 319.103C160.208 319.103 160.192 319.103 160.184 319.125C159.698 319.496 159.157 319.721 158.598 319.783C158.04 319.845 157.478 319.743 156.952 319.485C155.508 318.628 155.916 316.727 156.455 315.133C156.626 314.643 156.797 314.193 156.944 313.808C158.138 310.503 158.383 307.151 158.1 303.328" stroke="black" stroke-width="5.32" stroke-miterlimit="10"/>
<path d="M156.465 315.123C156.177 316.07 154.983 318.431 153.811 319.281C152.935 319.918 151.67 319.882 150.881 319.036C149.355 317.409 150.209 314.45 150.906 312.538C152.108 309.233 152.701 305.126 151.972 301.519" stroke="black" stroke-width="5.32" stroke-miterlimit="10"/>
<path d="M140.246 290.942C142.466 290.942 143.907 291.039 144.598 291.111C144.911 291.137 145.218 291.239 145.504 291.41C150.473 294.581 146.614 306.4 145.558 309.295C145.014 310.81 144.283 314.173 145.969 315.177C146.444 315.409 146.951 315.5 147.456 315.445C147.961 315.391 148.45 315.191 148.89 314.86C149.849 314.06 150.644 312.961 151.208 311.66C151.208 311.66 151.208 311.638 151.224 311.613" stroke="black" stroke-width="5.32" stroke-miterlimit="10"/>
<path d="M192.932 290.278C193.267 305.459 193.003 321.648 191.673 337.499" stroke="black" stroke-width="5.32" stroke-miterlimit="10"/>
<path d="M55.4553 337.356H228.396" stroke="black" stroke-width="5.32" stroke-miterlimit="10"/>
<path d="M143.815 148.806C143.815 148.806 146.608 149.166 148.539 144.9" stroke="black" stroke-width="5.32" stroke-miterlimit="10"/>
<path d="M129.905 92.0698C129.905 92.1382 151.469 92.7502 151.469 92.7502L150.432 106.103C150.432 106.103 149.453 107.838 145.213 109.569C140.972 111.301 132.858 112.399 131.368 105.224C130.472 100.936 129.981 96.5176 129.905 92.0698Z" fill="white"/>
<path d="M149.986 84.4386C156.604 81.6774 161.737 72.3606 158.07 63.3966C154.787 55.3686 147.035 53.4102 142.588 61.0278C142.588 61.0278 137.765 49.1082 129.725 53.7882C126.33 55.7682 123.659 60.495 122.688 65.1642C120.811 74.1858 125.335 81.1842 131.664 83.4666C131.664 83.4666 137.831 85.713 140.858 80.1798C140.858 80.1798 142.278 82.4946 146.137 83.4666" stroke="black" stroke-width="5.32" stroke-miterlimit="10"/>
<path d="M128.789 82.0112L131.384 105.375C131.442 105.923 131.585 106.449 131.805 106.919C132.025 107.389 132.317 107.792 132.663 108.104C134.768 109.958 139.944 112.856 148.711 107.924C149.212 107.64 149.647 107.183 149.971 106.601C150.294 106.02 150.494 105.334 150.549 104.616L152.209 83.2244" stroke="black" stroke-width="5.32" stroke-miterlimit="10"/>
<path d="M162.384 316.184C162.335 314.87 163.154 312.865 163.154 312.865C163.023 314.016 162.764 315.135 162.384 316.184Z" fill="#2E2E2E"/>
<path d="M184.487 232.327L185.403 233.144L184.775 233.065C184.593 232.582 184.487 232.327 184.487 232.327Z" fill="#2E2E2E"/>
<path d="M145.969 315.176C144.908 314.766 144.734 313.412 145.025 311.497C144.889 313.081 145.12 314.334 145.969 315.176Z" fill="black"/>
<path d="M145.536 291.438C145.908 291.701 146.251 292.026 146.559 292.407C146.192 292.025 145.825 291.719 145.536 291.438Z" fill="black"/>
<path d="M147.756 300.694C147.981 299.758 148.13 298.793 148.199 297.814C148.163 298.799 148.013 299.77 147.756 300.694Z" fill="black"/>
<path d="M149.742 314.676C149.35 314.924 148.94 315.118 148.518 315.252C149.056 314.87 149.48 314.445 149.742 314.676Z" fill="black"/>
<path d="M150.041 316.184C150.071 317.562 150.389 318.495 150.881 319.031C149.809 318.354 149.793 317.012 150.022 315.863C150.034 315.969 150.04 316.076 150.041 316.184Z" fill="black"/>
<path d="M154.643 318.456C154.904 318.162 155.216 317.956 155.551 317.859C155.111 318.264 154.642 318.61 154.151 318.892C154.321 318.76 154.486 318.615 154.643 318.456Z" fill="black"/>
<path d="M157.605 319.719C156.631 319.824 156.438 319.071 156.381 318.395C156.708 318.96 156.969 319.719 157.605 319.719Z" fill="black"/>
<path d="M161.946 317.127C161.795 317.423 161.621 317.697 161.427 317.945C161.527 317.604 161.709 317.316 161.946 317.127Z" fill="black"/>
<path d="M162.749 317.127C162.923 317.181 163.124 317.243 163.366 317.307C163.151 317.348 162.931 317.284 162.749 317.127Z" fill="black"/>
<path d="M170.207 300.554C169.415 301.054 168.768 301.476 168.344 301.756C168.392 301.612 168.469 301.488 168.567 301.396C169.01 301.04 169.559 300.403 170.207 300.554Z" fill="black"/>
<path d="M155.965 316.325C155.957 316.494 155.924 316.659 155.87 316.811C155.856 316.17 155.976 315.814 155.965 316.325Z" fill="#D7E8F0"/>
<path d="M31.5521 127.219L16.0481 128.879C15.7503 128.911 15.4508 128.864 15.1667 128.743C14.8825 128.621 14.6192 128.426 14.3919 128.17C14.1646 127.914 13.9776 127.6 13.8418 127.248C13.7059 126.896 13.6238 126.512 13.6001 126.118C13.5527 125.323 13.7454 124.536 14.1359 123.928C14.5265 123.321 15.083 122.943 15.6836 122.878L32.1831 121.103" stroke="#CCDDE2" stroke-width="5.32" stroke-miterlimit="10"/>
<path d="M33.9647 120.914H33.9565" stroke="#CCDDE2" stroke-width="5.32" stroke-miterlimit="10"/>
<path d="M97.9936 121.957C100.227 121.957 102.038 119.561 102.038 116.604C102.038 113.648 100.227 111.251 97.9936 111.251C95.7599 111.251 93.949 113.648 93.949 116.604C93.949 119.561 95.7599 121.957 97.9936 121.957Z" stroke="#CCDDE2" stroke-width="5.32" stroke-miterlimit="10"/>
<path d="M234.217 336.621V233.146H254.005C255.564 239.427 256.675 245.887 257.323 252.442C260.361 283.701 258.229 330.249 234.217 336.621Z" stroke="#CCDDE2" stroke-width="5.32" stroke-miterlimit="10"/>
<path d="M234.217 266.181H258.329" stroke="#CCDDE2" stroke-width="5.32" stroke-miterlimit="10"/>
<path d="M234.217 296.612H257.067" stroke="#CCDDE2" stroke-width="5.32" stroke-miterlimit="10"/>
</svg>
