<svg width="272" height="360" viewBox="0 0 272 360" fill="none" xmlns="http://www.w3.org/2000/svg">
<g filter="url(#filter0_d_139_1081)">
<path d="M68.5845 203.04C69.2212 203.093 69.8221 203.448 70.2763 204.041C70.9808 205.009 85.7803 225.598 85.9898 226.145C86.1992 226.692 81.0285 226.696 80.5253 226.696C80.0221 226.696 69.1611 226.883 68.8728 226.145C68.5845 225.407 68.5845 203.04 68.5845 203.04Z" fill="#3FBDF1"/>
<path d="M58.5806 111.176C58.5806 111.176 58.8526 109.16 61.5726 109.926C64.2926 110.693 74.547 114.21 74.8571 114.293C75.1671 114.376 78.8364 113.886 76.6931 117.015L50.66 155.013C50.66 155.013 43.5608 162.908 47.9563 172.498L57.0628 185.76L62.9462 193.889C62.9462 193.889 64.3551 192.86 64.0967 198.497C63.8383 204.135 64.3225 223.913 64.3225 223.913C64.3225 223.913 64.5945 225.645 62.938 223.838C61.2816 222.03 39.002 190.199 39.002 190.199L28.5192 174.903C28.5192 174.903 25.228 170.453 26.7076 162.594C28.1873 154.736 35.4361 146.16 35.4361 146.16L58.5806 111.176Z" fill="#3FBDF1"/>
<path d="M117.996 205.873C113.579 209.643 109.345 213.776 105.318 218.246C98.4038 208.627 85.5191 190.213 85.5191 190.213L75.0417 174.916C75.0417 174.916 71.7423 170.463 73.2275 162.604C73.2547 162.468 73.2791 162.327 73.3145 162.18C79.0265 172.072 86.9145 187.322 103.912 186.228L117.996 205.873Z" fill="#3FBDF1"/>
<path d="M123.216 117C121.774 119.113 110.407 135.698 103.183 146.242L97.1989 154.99C96.1985 156.189 95.337 157.575 94.6421 159.105C89.2402 156.42 83.8192 153.781 78.4526 150.994C79.5531 149.294 80.7285 147.681 81.9723 146.163L103.403 113.763C103.637 113.727 103.86 113.706 104.094 113.67C107.297 113.252 110.481 112.6 113.63 111.718C114.547 111.456 115.469 111.182 116.383 110.894C119.647 113.248 115.132 118.069 121.391 114.278C121.494 114.3 121.935 114.278 122.443 114.31C123.452 114.433 124.652 114.901 123.216 117Z" fill="#3FBDF1"/>
<path d="M98.567 226.688H86.6752H69.871H68.5845" stroke="#CCDDE2" stroke-width="4.76" stroke-miterlimit="10"/>
<path d="M46.8001 109.555L22.6955 146.005L16.6435 155.16C14.6426 158.186 13.5581 162.085 13.5988 166.106C13.6395 170.127 14.8024 173.986 16.8638 176.94L47.9915 221.468C49.1442 223.114 50.5407 224.426 52.0941 225.324C53.6474 226.223 55.3241 226.687 57.0192 226.688H64.0912" stroke="#CCDDE2" stroke-width="4.76" stroke-miterlimit="10"/>
<path d="M59.7202 109.44L29.4955 155.16C27.4947 158.187 26.4106 162.087 26.4523 166.109C26.494 170.131 27.6585 173.99 29.7213 176.944L60.8436 221.468C61.7841 222.806 62.8874 223.925 64.1076 224.78" stroke="#CCDDE2" stroke-width="4.76" stroke-miterlimit="10"/>
<path d="M64.0967 195.479L49.648 175.535C47.8044 173.041 46.755 169.705 46.7164 166.215C46.6781 162.726 47.6535 159.351 49.4413 156.786L78.0013 115.105" stroke="#CCDDE2" stroke-width="4.76" stroke-miterlimit="10"/>
<path d="M68.5845 226.596C69.0118 226.656 69.4413 226.687 69.871 226.689H86.6752L68.5845 201.694" stroke="#CCDDE2" stroke-width="4.76" stroke-miterlimit="10"/>
<path d="M103.746 186.182L103.781 186.239L117.996 205.874" stroke="#CCDDE2" stroke-width="4.76" stroke-miterlimit="10"/>
<path d="M104.075 113.688L78.5806 151.089" stroke="#CCDDE2" stroke-width="4.76" stroke-miterlimit="10"/>
<path d="M73.2033 161.975C72.7132 164.591 72.7222 167.327 73.2297 169.938C73.7373 172.549 74.7274 174.951 76.111 176.929L105.128 218.451" stroke="#CCDDE2" stroke-width="4.76" stroke-miterlimit="10"/>
<path d="M94.4165 159.358C94.46 159.268 94.4954 159.178 94.5471 159.084C94.911 158.259 95.3424 157.488 95.8336 156.787L103.15 146.095L103.221 146.005" stroke="#CCDDE2" stroke-width="4.76" stroke-miterlimit="10"/>
<path d="M22.6953 146.006C22.6953 146.006 25.1624 114.776 46.8 109.556C52.8764 108.094 59.1352 108.962 65.0811 110.96C69.958 112.594 74.7806 114.808 79.8398 115.208C85.2254 115.633 90.6872 114.945 96.0646 114.524C98.4908 114.33 100.942 114.103 103.384 113.782C103.618 113.746 103.841 113.725 104.075 113.689C107.278 113.271 110.462 112.619 113.611 111.738C114.528 111.475 115.45 111.201 116.364 110.913C116.824 110.787 117.281 110.64 117.738 110.503" stroke="#CCDDE2" stroke-width="4.76" stroke-miterlimit="10"/>
<path d="M194.958 318.337C207.264 304.199 214.774 280.695 217.45 259.484" stroke="#CCDDE2" stroke-width="4.76" stroke-miterlimit="10"/>
<path d="M130.718 105.43C135.674 103.63 142.378 100.62 151.338 95.6415C177.869 80.8815 187.31 95.0223 187.31 95.0223C188.863 96.8435 190.182 98.9855 191.216 101.365C191.344 101.65 191.466 101.945 191.578 102.233C200.605 124.632 184.506 148.997 191.094 171.713C194.831 184.644 204.109 192.913 208.744 205.229C211.209 211.843 212.989 218.866 214.034 226.109" stroke="#CCDDE2" stroke-width="4.76" stroke-miterlimit="10"/>
<path d="M117.376 104.677C117.349 104.679 117.322 104.686 117.297 104.699" stroke="#CCDDE2" stroke-width="4.76" stroke-miterlimit="10"/>
<path d="M176.158 186.286C173.784 229.45 140.774 229.486 140.219 229.007C140.219 229.007 142.357 231.973 129.352 218.261C116.348 204.548 111.009 184.19 111.009 184.19C105.536 187.56 95.472 185.821 95.472 185.821C88.9712 183.229 83.5285 177.793 79.3696 172.267C85.1061 162.947 83.9936 155.819 83.5612 154.012C89.0175 156.956 95.2571 160.074 97.8058 160.438C102.748 161.14 102.302 151.852 102.302 151.852C106.73 116.158 122.373 114.347 122.373 114.347C139.318 111.755 149.14 121.424 157.319 145.667C165.498 169.909 176.158 186.286 176.158 186.286Z" fill="#2E2E2E"/>
<path d="M144.543 324H114.784C114.201 323.599 113.737 322.951 113.466 322.16C113.195 321.368 113.133 320.479 113.29 319.635C113.447 318.792 113.814 318.042 114.332 317.508C114.849 316.973 115.487 316.685 116.144 316.688H123.366C123.366 316.688 123.077 316.411 122.55 315.875H139.479C141.984 319.953 143.847 322.898 144.543 324Z" fill="#3FBDF1"/>
<path d="M252.184 263.116L250.784 283.838C250.77 283.967 250.754 284.09 250.74 284.23C250.351 288.363 248.648 288.41 248.648 288.41L250.177 292.805L250.049 294.674V305.571C250.049 306.359 250.222 307.131 250.546 307.792C250.871 308.454 251.333 308.976 251.877 309.298C252.421 309.619 253.023 309.725 253.612 309.603C254.2 309.481 254.749 309.136 255.193 308.609C255.761 307.942 256.12 307.017 256.199 306.017C256.849 297.989 258.353 279.496 258.353 279.496C258.944 275.601 253.759 265.463 252.184 263.116Z" fill="#3FBDF1"/>
<path d="M147.065 234.216C131.762 251.136 112.689 254.491 114.604 265.745C116.574 277.265 131.34 302.573 139.487 315.868C141.973 319.957 143.839 322.895 144.546 323.978C144.726 324.288 144.818 324.436 144.818 324.436H116.144C115.664 324.439 115.192 324.282 114.77 323.978C114.194 323.573 113.737 322.924 113.472 322.135C113.207 321.346 113.149 320.463 113.307 319.625C113.465 318.788 113.83 318.044 114.344 317.512C114.858 316.981 115.492 316.692 116.144 316.692H123.368L122.552 315.868C117.036 310.259 85.2881 276.653 88.495 250.232C89.9094 238.532 97.1664 227.383 105.315 218.246C109.342 213.776 113.576 209.643 117.993 205.873C118.554 205.394 119.098 204.926 119.625 204.48" stroke="black" stroke-width="4.76" stroke-miterlimit="10"/>
<path d="M68.5818 157.029V324.832C68.5818 325.62 68.3454 326.375 67.9246 326.932C67.5035 327.489 66.9329 327.802 66.3378 327.802C65.7426 327.802 65.172 327.489 64.7509 326.932C64.3301 326.375 64.0938 325.62 64.0938 324.832V157.029C64.0948 156.442 64.2273 155.868 64.4743 155.381C64.7213 154.893 65.0716 154.513 65.4815 154.289C65.8914 154.064 66.3421 154.006 66.7773 154.12C67.2122 154.234 67.6121 154.516 67.9262 154.93C68.1354 155.204 68.3013 155.532 68.4139 155.892C68.5265 156.252 68.5834 156.639 68.5818 157.029Z" stroke="black" stroke-width="4.76" stroke-miterlimit="10"/>
<path d="M79.6063 324.439C79.6076 327.787 78.8857 331.065 77.5263 333.889C76.1666 336.712 74.2256 338.962 71.9321 340.374C69.6383 341.785 67.0877 342.3 64.5804 341.857C62.0732 341.415 59.7136 340.033 57.7799 337.874C55.8463 335.716 54.4188 332.871 53.6659 329.675C52.913 326.479 52.866 323.064 53.5305 319.834C54.1949 316.604 55.543 313.692 57.416 311.442C59.289 309.192 61.6089 307.697 64.1023 307.133V324.831C64.1023 325.619 64.3386 326.374 64.7594 326.931C65.1805 327.488 65.7511 327.801 66.3463 327.801C66.9414 327.801 67.5121 327.488 67.9331 326.931C68.3539 326.374 68.5903 325.619 68.5903 324.831V307.133C71.6739 307.834 74.4709 309.956 76.487 313.123C78.5028 316.289 79.6076 320.298 79.6063 324.439Z" stroke="black" stroke-width="4.76" stroke-miterlimit="10"/>
<path d="M178.41 342.003C185.739 342.003 191.681 334.139 191.681 324.439C191.681 314.738 185.739 306.875 178.41 306.875C171.081 306.875 165.139 314.738 165.139 324.439C165.139 334.139 171.081 342.003 178.41 342.003Z" stroke="black" stroke-width="4.76" stroke-miterlimit="10"/>
<path d="M135.129 141.138C133.144 158.832 124.644 179.485 111.074 184.763C110.06 185.158 109.028 185.464 107.984 185.677C106.632 185.956 105.27 186.14 103.904 186.228C86.9175 187.308 79.0213 172.073 73.3066 162.18C70.7525 157.727 68.6282 154.368 66.3325 154.059" stroke="black" stroke-width="4.76" stroke-miterlimit="10"/>
<path d="M64.0964 157.028V158.353C64.1068 159.293 63.8734 160.209 63.4355 160.949C62.9975 161.689 62.3812 162.209 61.6892 162.421C61.2429 162.548 60.7807 162.542 60.3368 162.402C59.8927 162.262 59.4779 161.992 59.1229 161.612C58.7677 161.233 58.4815 160.752 58.2849 160.207C58.0885 159.662 57.9868 159.065 57.9873 158.461V157.445C57.9873 153.766 59.2031 150.04 61.3873 147.725C65.3231 143.535 70.5945 146.847 74.6174 148.993C75.8876 149.68 77.1551 150.343 78.4254 151.005C83.7919 153.791 89.2129 156.43 94.6148 159.116L96.6086 160.109C97.1444 160.384 97.72 160.494 98.2925 160.432C98.8651 160.37 99.4197 160.138 99.9147 159.752C100.41 159.366 100.832 158.837 101.151 158.205C101.47 157.572 101.676 156.852 101.755 156.099C102.1 152.96 102.549 149.619 103.161 146.253C105.707 132.155 110.981 117.453 122.348 114.346L122.416 114.325C136.639 110.519 149.844 122.975 155.312 139.733C160.042 154.252 165.816 168.281 173.013 180.935C186.393 204.458 197.673 214.315 216.61 228.002C229.78 237.527 242.926 249.242 252.979 264.189C254.559 266.543 258.963 275.601 258.356 279.496C258.356 279.496 256.855 297.989 256.207 306.021C256.126 307.064 255.745 308.027 255.142 308.707C254.539 309.388 253.761 309.736 252.97 309.679C252.179 309.621 251.435 309.163 250.892 308.399C250.349 307.635 250.049 306.624 250.055 305.575V294.677C250.056 293.923 249.99 293.171 249.856 292.438C248.474 284.075 239.792 276.148 235.261 272.116C226.252 264.118 216.344 258.058 205.904 254.159C197.499 251.006 189.083 250.354 180.54 248.587C179.961 248.471 179.383 248.351 178.804 248.227C167.886 245.707 156.976 241.063 147.067 234.233C136.367 226.864 126.82 216.953 119.639 204.497C116.143 198.452 113.263 191.822 111.076 184.78" stroke="black" stroke-width="4.76" stroke-miterlimit="10"/>
<path d="M79.6089 324.439H137.156H165.205" stroke="black" stroke-width="4.76" stroke-miterlimit="10"/>
<path d="M178.475 327.794C179.713 327.794 180.716 326.466 180.716 324.828C180.716 323.189 179.713 321.861 178.475 321.861C177.237 321.861 176.234 323.189 176.234 324.828C176.234 326.466 177.237 327.794 178.475 327.794Z" stroke="black" stroke-width="4.76" stroke-miterlimit="10"/>
<path d="M191.681 324.438H195.587C195.587 318.41 193.778 312.628 190.557 308.365C187.336 304.103 182.968 301.708 178.413 301.708C173.858 301.708 169.49 304.103 166.269 308.365C163.048 312.628 161.239 318.41 161.239 324.438" stroke="black" stroke-width="4.76" stroke-miterlimit="10"/>
<path d="M49.1611 324.439C49.1595 318.924 50.6737 313.596 53.4215 309.45C56.1689 305.304 59.9625 302.623 64.0939 301.906" stroke="black" stroke-width="4.76" stroke-miterlimit="10"/>
<path d="M68.582 301.906C72.7118 302.626 76.5029 305.308 79.2485 309.454C81.9941 313.6 83.5067 318.926 83.504 324.439H79.6062" stroke="black" stroke-width="4.76" stroke-miterlimit="10"/>
<path d="M106.33 77.0905C107.432 78.6061 109.227 78.8401 110.726 78.7825C112.63 78.7141 114.555 78.2713 116.438 77.9185L117.572 77.9401H117.588C117.806 77.9592 118.019 78.0344 118.215 78.1622C118.41 78.29 118.585 78.4679 118.729 78.6853C118.873 78.9027 118.983 79.1555 119.052 79.4291C119.122 79.7027 119.151 79.9921 119.136 80.2801C119.001 83.5151 118.597 86.7205 117.931 89.8381L120.023 91.5841C120.354 90.5689 120.112 89.0641 120.784 88.9993C121.263 87.9841 121.932 87.3541 122.887 88.2253C124.758 89.9281 125.302 94.4929 123.322 96.3901L124.377 99.4753C125.136 101.707 128.281 102.769 130.076 102.219C129.456 100.019 127.728 98.6545 127.728 98.6545C130.579 99.5833 132.834 94.9969 132.099 92.0089C131.602 89.9605 131.708 88.4089 132.611 86.5369C132.671 86.4109 132.135 86.1769 132.189 86.0545C132.287 84.6361 132.064 83.0809 131.583 82.3069C130.737 80.9281 128.912 80.5285 129.385 78.5953C129.594 77.7518 129.7 76.8695 129.698 75.9817C129.657 74.8171 129.428 73.6777 129.026 72.6398C128.625 71.6023 128.06 70.6904 127.369 69.9661C125.917 68.5261 124.157 69.5593 122.536 69.3829C120.567 69.1849 119.272 66.8629 117.202 66.6361C116.174 66.5245 115.32 66.9961 114.411 67.5649C113.647 68.0581 112.893 68.5837 112.156 69.1561C111.419 69.7285 110.769 70.2361 109.929 70.1533C108.841 70.0777 107.821 69.0733 106.697 69.3973C106.134 69.5499 105.626 69.9495 105.256 70.5313C104.769 72.7597 105.264 75.6253 106.33 77.0905Z" fill="#3FBDF1"/>
<path d="M120.033 91.2673C120.079 91.0945 120.126 90.9289 120.18 90.7417V90.7201C120.332 90.1283 120.528 89.5577 120.765 89.0173C121.249 88.0021 121.913 87.3721 122.873 88.2397C124.747 89.9461 125.286 94.5109 123.311 96.4153L124.363 99.4933C124.401 99.6078 124.446 99.7187 124.497 99.8245C125.082 101.167 126.354 102.129 127.799 102.229H127.823C128.345 102.263 128.867 102.183 129.368 101.992" stroke="black" stroke-width="4.76" stroke-linecap="round" stroke-linejoin="round"/>
<path d="M108.528 83.9914C108.528 83.9914 112.197 83.1202 113.592 86.8714" stroke="black" stroke-width="4.76" stroke-miterlimit="10"/>
<path d="M109.039 94.8957C108.046 95.1621 106.722 95.3673 106.031 94.1757L107.891 89.7621C108.344 88.6807 108.505 87.4275 108.348 86.2089C108.093 84.1605 107.353 81.0141 108.441 78.4365" stroke="black" stroke-width="4.76" stroke-miterlimit="10"/>
<path d="M111.78 89.0152C112.084 88.4377 111.915 87.5859 111.402 87.1133C110.889 86.6406 110.227 86.7256 109.923 87.303C109.619 87.8808 109.788 88.7322 110.301 89.2049C110.814 89.6776 111.476 89.5926 111.78 89.0152Z" fill="black"/>
<path d="M117.594 116.507L117.376 104.508" stroke="black" stroke-width="4.76" stroke-miterlimit="10"/>
<path d="M120.009 91.5947C120.009 91.4831 120.028 91.3715 120.033 91.2599C120.039 91.1483 120.058 91.0259 120.06 90.8999" stroke="black" stroke-width="4.76" stroke-linecap="round" stroke-linejoin="round"/>
<path d="M120.009 91.5941L119.291 91.0001L117.917 89.8481" stroke="black" stroke-width="4.76" stroke-linecap="round" stroke-linejoin="round"/>
<path d="M113.813 95.6421C113.813 95.6421 113.582 98.8209 110.764 99.8937" stroke="black" stroke-width="4.76" stroke-miterlimit="10"/>
<path d="M127.715 98.6651C130.565 99.5939 132.82 95.0075 132.086 92.0195C131.588 89.9711 131.694 88.4195 132.597 86.5475C132.657 86.4215 132.709 86.2955 132.76 86.1875C133.095 85.4107 133.246 84.5189 133.193 83.6272C133.14 82.7355 132.886 81.8855 132.464 81.1871C131.648 79.7111 130.337 79.1027 130.832 77.1011C131.05 76.2328 131.16 75.3235 131.158 74.4083C131.116 73.2077 130.88 72.0327 130.465 70.9631C130.05 69.8936 129.467 68.9543 128.754 68.2091C127.26 66.7007 125.441 67.7915 123.762 67.6115C121.742 67.3955 120.392 64.9871 118.271 64.7675C117.213 64.6595 116.326 65.1275 115.39 65.7251C114.602 66.2399 113.821 66.7835 113.07 67.3703C112.319 67.9571 111.631 68.4719 110.766 68.3999C109.635 68.3135 108.59 67.2767 107.44 67.6187C106.289 67.9607 105.555 69.1271 105.264 70.5419C104.79 72.7595 105.286 75.6251 106.352 77.0903C107.418 78.5555 109.249 78.8399 110.747 78.7823C112.651 78.7139 114.577 78.2711 116.459 77.9183L117.594 77.9399H117.61C118.046 77.9853 118.451 78.2564 118.736 78.6945C119.022 79.133 119.166 79.7025 119.136 80.2799C119.001 83.5149 118.597 86.7203 117.931 89.8379" stroke="black" stroke-width="4.76" stroke-miterlimit="10"/>
<path d="M119.952 101.498C119.952 101.498 115.273 108.698 111.536 106.656C107.799 104.615 108.071 95.248 108.071 95.248" stroke="black" stroke-width="4.76" stroke-linecap="round" stroke-linejoin="round"/>
<path d="M79.1218 171.958L79.3557 172.267C79.2061 172.526 79.0429 172.782 78.8716 173.041L79.1218 171.958Z" fill="#2E2E2E"/>
<path d="M83.5391 154.012L83.3433 153.907L83.4221 153.547C83.4695 153.698 83.5086 153.853 83.5391 154.012Z" fill="#2E2E2E"/>
<path d="M66.335 342H218.758" stroke="black" stroke-width="4.76" stroke-miterlimit="10"/>
<path d="M128.093 98.7554L134.553 115.139" stroke="black" stroke-width="4.76" stroke-linecap="round" stroke-linejoin="round"/>
<path d="M205.526 214.412C205.526 214.412 230.98 228.902 236.096 237.866" stroke="black" stroke-width="4.76" stroke-miterlimit="10"/>
<path d="M200.926 323.981H211.858" stroke="black" stroke-width="4.76" stroke-miterlimit="10"/>
<path d="M206.391 319.929H222.79" stroke="black" stroke-width="4.76" stroke-miterlimit="10"/>
<path d="M175.037 137.232C185.066 137.232 193.196 126.471 193.196 113.198C193.196 99.9246 185.066 89.1646 175.037 89.1646C165.008 89.1646 156.878 99.9246 156.878 113.198C156.878 126.471 165.008 137.232 175.037 137.232Z" stroke="#CCDDE2" stroke-width="4.76" stroke-miterlimit="10"/>
<path d="M175.037 126.399C180.546 126.399 185.011 120.489 185.011 113.198C185.011 105.907 180.546 99.9971 175.037 99.9971C169.529 99.9971 165.063 105.907 165.063 113.198C165.063 120.489 169.529 126.399 175.037 126.399Z" stroke="#CCDDE2" stroke-width="4.76" stroke-miterlimit="10"/>
<path d="M175.037 115.462C175.982 115.462 176.748 114.448 176.748 113.197C176.748 111.947 175.982 110.933 175.037 110.933C174.092 110.933 173.326 111.947 173.326 113.197C173.326 114.448 174.092 115.462 175.037 115.462Z" stroke="#CCDDE2" stroke-width="4.76" stroke-miterlimit="10"/>
<path d="M178.576 105.642L175.938 111.272" stroke="#CCDDE2" stroke-width="4.76" stroke-miterlimit="10"/>
<path d="M175.037 99.9971V102.344" stroke="#CCDDE2" stroke-width="4.76" stroke-miterlimit="10"/>
<path d="M185.012 113.199H183.331" stroke="#CCDDE2" stroke-width="4.76" stroke-miterlimit="10"/>
<path d="M175.037 126.4V124.117" stroke="#CCDDE2" stroke-width="4.76" stroke-miterlimit="10"/>
<path d="M165.063 113.199H166.578" stroke="#CCDDE2" stroke-width="4.76" stroke-miterlimit="10"/>
</g>
<defs>
<filter id="filter0_d_139_1081" x="-4" y="0" width="280" height="368" filterUnits="userSpaceOnUse" color-interpolation-filters="sRGB">
<feFlood flood-opacity="0" result="BackgroundImageFix"/>
<feColorMatrix in="SourceAlpha" type="matrix" values="0 0 0 0 0 0 0 0 0 0 0 0 0 0 0 0 0 0 127 0" result="hardAlpha"/>
<feOffset dy="4"/>
<feGaussianBlur stdDeviation="2"/>
<feComposite in2="hardAlpha" operator="out"/>
<feColorMatrix type="matrix" values="0 0 0 0 0 0 0 0 0 0 0 0 0 0 0 0 0 0 0.25 0"/>
<feBlend mode="normal" in2="BackgroundImageFix" result="effect1_dropShadow_139_1081"/>
<feBlend mode="normal" in="SourceGraphic" in2="effect1_dropShadow_139_1081" result="shape"/>
</filter>
</defs>
</svg>
