<svg width="23" height="27" viewBox="0 0 23 27" fill="none" xmlns="http://www.w3.org/2000/svg">
<g id="&#240;&#159;&#166;&#134; icon &#34;user male&#34;">
<path id="Vector" d="M11.5001 1C13.9073 1 15.8587 3.23858 15.8587 6V7.66667C15.8587 10.4281 13.9073 12.6667 11.5001 12.6667C9.09293 12.6667 7.14152 10.4281 7.14152 7.66667V6C7.14152 3.23858 9.09293 1 11.5001 1ZM21.6701 24.3333C21.6701 23.9288 21.6701 23.5242 21.6701 23.1197C21.6701 17.809 16.3145 14.3333 11.5001 14.3333C6.68575 14.3333 1.33008 17.809 1.33008 23.1197V24.3333C1.33008 25.2538 1.98055 26 2.78294 26H20.2173C21.0197 26 21.6701 25.2538 21.6701 24.3333Z" stroke="white" stroke-linecap="round" stroke-linejoin="round"/>
</g>
</svg>
