<svg width="136" height="118" viewBox="0 0 136 118" fill="none" xmlns="http://www.w3.org/2000/svg">
<path d="M112 23L113 15.5L116 20L117 25V30L116 35L112 41L106.5 47L103.5 51.5L102.5 55.5L101 60.5L102.5 65L103.5 68.5L105 71L106.5 75L103.5 72L99.5 68.5L97 65C97 65 95.0177 61.8019 94.5 59.5C93.943 57.0235 94.5 53 94.5 53L97 46L101 41L109.5 30L112 23Z" fill="#FFC244" stroke="#FFC244"/>
<path d="M122 35.5C123.215 32.4109 122 27 122 27L124 32C124 32 126.062 35.8449 126 38.5C125.942 40.9692 124 44.5 124 44.5L119.5 51.5L116.5 56.5C116.5 56.5 114.692 59.1126 114 61C113.314 62.8695 112.95 64.0093 113 66C113.085 69.409 116.5 74 116.5 74C116.5 74 110.042 70.1403 108.5 66C107.205 62.5234 106.352 59.6242 108.5 56.5L114 48.5C115.586 45.6837 117.5 41 117.5 41C117.5 41 120.984 38.0826 122 35.5Z" fill="#FFC244" stroke="#FFC244"/>
<path d="M101 4.5V1L103 2.5L104 4.5L105 6.5L106.5 10V13.5V19L106 23L105 27L103 30L100.5 34.5L96.5 38.5L92 44.5L89 49.5L88 53.5V56.5V60L88.5 63L89 66L92 70.5L93.5 73.5L92.5 73L89 70.5L85.5 66.5L83 63L81 60L80 55.5V48.5L80.5 43L83 38.5L85.5 34.5L89 31L92.5 27L95.5 23L98.5 17L100.5 12.5L101 9V4.5Z" fill="#FFC244" stroke="#FFC244"/>
<path d="M21.925 77.66V76.4H30.655V77.66L28.18 77.975C27.7 78.035 27.415 78.17 27.325 78.38C27.235 78.56 27.19 79.16 27.19 80.18V107H24.715L8.2 80.315V103.22C8.2 104.24 8.245 104.855 8.335 105.065C8.425 105.245 8.71 105.365 9.19 105.425L11.665 105.74V107H2.935V105.74L5.41 105.425C5.89 105.365 6.175 105.245 6.265 105.065C6.355 104.855 6.4 104.24 6.4 103.22V80.18C6.4 79.16 6.355 78.56 6.265 78.38C6.175 78.17 5.89 78.035 5.41 77.975L2.935 77.66V76.4H11.98L25.39 97.955V80.18C25.39 79.16 25.345 78.56 25.255 78.38C25.165 78.17 24.88 78.035 24.4 77.975L21.925 77.66ZM55.4391 105.875C54.9591 106.325 54.3741 106.7 53.6841 107C53.0241 107.3 52.2141 107.45 51.2541 107.45C50.0241 107.45 48.9891 107.18 48.1491 106.64C47.3391 106.1 46.7991 105.335 46.5291 104.345C45.5391 105.425 44.4441 106.22 43.2441 106.73C42.0741 107.21 40.8741 107.45 39.6441 107.45C37.5741 107.45 36.0291 106.88 35.0091 105.74C33.9891 104.57 33.4791 103.115 33.4791 101.375C33.4791 99.605 34.1241 98.18 35.4141 97.1C36.7041 95.99 38.9841 95.435 42.2541 95.435H46.3491V91.79C46.3491 89.3 46.0191 87.605 45.3591 86.705C44.7291 85.775 43.8441 85.31 42.7041 85.31C41.9541 85.31 41.2641 85.505 40.6341 85.895C40.0041 86.255 39.5541 86.945 39.2841 87.965C39.0441 88.955 39.0891 90.395 39.4191 92.285L34.4691 91.565C34.2291 90.185 34.3791 88.91 34.9191 87.74C35.4891 86.54 36.4341 85.58 37.7541 84.86C39.0741 84.11 40.7541 83.735 42.7941 83.735C45.1041 83.735 46.8891 84.11 48.1491 84.86C49.4091 85.61 50.2791 86.6 50.7591 87.83C51.2691 89.06 51.5241 90.38 51.5241 91.79V102.185C51.5241 103.715 51.6591 104.675 51.9291 105.065C52.1991 105.455 52.4991 105.65 52.8291 105.65C53.3691 105.65 53.9691 105.335 54.6291 104.705L55.4391 105.875ZM41.6241 105.065C42.4041 105.065 43.1691 104.87 43.9191 104.48C44.6991 104.06 45.5091 103.295 46.3491 102.185V97.01H42.9741C41.5041 97.01 40.4391 97.355 39.7791 98.045C39.1191 98.735 38.7891 99.815 38.7891 101.285C38.7891 102.485 39.0291 103.415 39.5091 104.075C39.9891 104.735 40.6941 105.065 41.6241 105.065ZM67.7209 109.25C67.0309 111.14 66.2659 112.655 65.4259 113.795C64.6159 114.935 63.6109 115.76 62.4109 116.27C61.2109 116.78 59.7109 117.035 57.9109 117.035V112.085C59.7409 112.085 61.2109 111.95 62.3209 111.68C63.4609 111.44 64.3309 111.035 64.9309 110.465C65.5609 109.925 66.0259 109.22 66.3259 108.35L66.7759 107H64.4359L58.0459 87.965C57.8359 87.275 57.6559 86.795 57.5059 86.525C57.3859 86.225 57.2359 86.03 57.0559 85.94C56.9059 85.85 56.6659 85.79 56.3359 85.76L53.8609 85.445V84.185H66.0109V85.445L63.5359 85.76C63.1759 85.79 62.9509 85.91 62.8609 86.12C62.8009 86.3 62.9359 86.915 63.2659 87.965L68.1709 102.815L73.2559 87.785C73.5859 86.825 73.7209 86.27 73.6609 86.12C73.6309 85.94 73.3909 85.82 72.9409 85.76L70.4659 85.445V84.185H79.0609V85.445L76.5859 85.76C76.1359 85.82 75.8359 85.94 75.6859 86.12C75.5359 86.3 75.2959 86.855 74.9659 87.785L67.7209 109.25ZM95.8821 102.32C95.4921 104.15 94.7421 105.47 93.6321 106.28C92.5521 107.06 91.2321 107.45 89.6721 107.45C88.0821 107.45 86.7771 107.105 85.7571 106.415C84.7371 105.695 83.9871 104.75 83.5071 103.58C83.0271 102.41 82.7871 101.165 82.7871 99.845V87.965C82.7871 86.945 82.7421 86.345 82.6521 86.165C82.5621 85.955 82.2771 85.82 81.7971 85.76L79.3221 85.445V84.185H82.7871V78.965L87.9621 77.93V84.185H95.1621V85.76H87.9621V100.745C87.9621 102.665 88.2021 104 88.6821 104.75C89.1621 105.47 89.7771 105.83 90.5271 105.83C91.3071 105.83 91.9071 105.53 92.3271 104.93C92.7771 104.33 93.0621 103.235 93.1821 101.645L95.8821 102.32ZM103.646 80.315C102.716 80.315 101.966 80.03 101.396 79.46C100.826 78.86 100.541 78.095 100.541 77.165C100.541 76.235 100.826 75.485 101.396 74.915C101.966 74.345 102.716 74.06 103.646 74.06C104.546 74.06 105.296 74.345 105.896 74.915C106.496 75.485 106.796 76.235 106.796 77.165C106.796 78.095 106.496 78.86 105.896 79.46C105.296 80.03 104.546 80.315 103.646 80.315ZM97.6161 85.445V84.185H106.256V103.22C106.256 104.24 106.301 104.855 106.391 105.065C106.481 105.245 106.766 105.365 107.246 105.425L109.721 105.74V107H97.6161V105.74L100.091 105.425C100.571 105.365 100.856 105.245 100.946 105.065C101.036 104.855 101.081 104.24 101.081 103.22V87.965C101.081 86.945 101.036 86.345 100.946 86.165C100.856 85.955 100.571 85.82 100.091 85.76L97.6161 85.445ZM130.38 87.965L123.99 107H119.895L113.505 87.965C113.295 87.275 113.115 86.795 112.965 86.525C112.845 86.225 112.695 86.03 112.515 85.94C112.365 85.85 112.125 85.79 111.795 85.76L109.32 85.445V84.185H121.47V85.445L118.995 85.76C118.545 85.82 118.305 85.94 118.275 86.12C118.245 86.3 118.395 86.915 118.725 87.965L123.675 102.905L128.67 87.965C129 86.915 129.15 86.3 129.12 86.12C129.12 85.94 128.88 85.82 128.4 85.76L125.925 85.445V84.185H134.52V85.445L132.045 85.76C131.745 85.79 131.505 85.85 131.325 85.94C131.175 86.03 131.04 86.225 130.92 86.525C130.8 86.795 130.62 87.275 130.38 87.965Z" fill="#00A082"/>
</svg>
