<svg width="451" height="450" viewBox="0 0 451 450" fill="none" xmlns="http://www.w3.org/2000/svg">
<path d="M113.967 253.8C115.02 253.866 116.014 254.31 116.766 255.051C117.931 256.262 142.416 281.997 142.762 282.681C143.109 283.365 134.554 283.369 133.722 283.369C132.889 283.369 114.921 283.603 114.444 282.681C113.967 281.758 113.967 253.8 113.967 253.8Z" fill="#00A082"/>
<path d="M97.4165 138.969C97.4165 138.969 97.8665 136.449 102.366 137.408C106.866 138.366 123.831 142.763 124.344 142.866C124.857 142.97 130.928 142.358 127.382 146.268L84.3125 193.766C84.3125 193.766 72.5675 203.634 79.8395 215.622L94.9055 232.2L104.639 242.361C104.639 242.361 106.97 241.074 106.542 248.121C106.115 255.168 106.916 279.891 106.916 279.891C106.916 279.891 107.366 282.056 104.625 279.797C101.885 277.538 65.0255 237.749 65.0255 237.749L47.6824 218.628C47.6824 218.628 42.2374 213.066 44.6854 203.243C47.1334 193.419 59.1259 182.7 59.1259 182.7L97.4165 138.969Z" fill="#00A082"/>
<path d="M195.714 257.342C188.406 262.054 181.401 267.22 174.739 272.808C163.3 260.784 141.984 237.767 141.984 237.767L124.65 218.646C124.65 218.646 119.191 213.08 121.648 203.256C121.693 203.085 121.734 202.91 121.792 202.725C131.242 215.091 144.292 234.153 172.413 232.785L195.714 257.342Z" fill="#00A082"/>
<path d="M204.349 146.25C201.964 148.891 183.159 169.623 171.207 182.803L161.307 193.738C159.652 195.236 158.227 196.969 157.077 198.882C148.14 195.525 139.171 192.226 130.293 188.743C132.114 186.618 134.058 184.601 136.116 182.704L171.571 142.204C171.958 142.159 172.327 142.132 172.714 142.087C178.014 141.565 183.281 140.751 188.491 139.648C190.008 139.32 191.533 138.978 193.045 138.618C198.445 141.561 190.975 147.586 201.33 142.848C201.501 142.875 202.23 142.848 203.071 142.888C204.741 143.041 206.725 143.626 204.349 146.25Z" fill="#00A082"/>
<path d="M163.57 283.361H143.896H116.095H113.967" stroke="#00A082" stroke-width="4.76" stroke-miterlimit="10"/>
<path d="M77.9266 136.944L38.0476 182.506L28.0351 193.95C24.7248 197.733 22.9306 202.606 22.9979 207.633C23.0652 212.659 24.9893 217.482 28.3996 221.175L79.8976 276.835C81.8047 278.892 84.115 280.533 86.685 281.655C89.2549 282.778 92.0287 283.359 94.8331 283.36H106.533" stroke="#00A082" stroke-width="4.76" stroke-miterlimit="10"/>
<path d="M99.3014 136.8L49.2974 193.95C45.9872 197.734 44.1937 202.609 44.2627 207.636C44.3316 212.664 46.2581 217.488 49.6709 221.179L101.16 276.835C102.716 278.507 104.541 279.907 106.56 280.975" stroke="#00A082" stroke-width="4.76" stroke-miterlimit="10"/>
<path d="M106.542 244.349L82.638 219.419C79.5879 216.301 77.8518 212.131 77.7879 207.77C77.7245 203.408 79.3382 199.189 82.296 195.983L129.546 143.882" stroke="#00A082" stroke-width="4.76" stroke-miterlimit="10"/>
<path d="M113.967 283.244C114.674 283.32 115.384 283.359 116.095 283.361H143.896L113.967 252.118" stroke="#00A082" stroke-width="4.76" stroke-miterlimit="10"/>
<path d="M172.139 232.727L172.197 232.799L195.714 257.342" stroke="#00A082" stroke-width="4.76" stroke-miterlimit="10"/>
<path d="M172.683 142.11L130.505 188.861" stroke="#00A082" stroke-width="4.76" stroke-miterlimit="10"/>
<path d="M121.608 202.469C120.797 205.739 120.812 209.16 121.652 212.423C122.491 215.686 124.129 218.689 126.419 221.162L174.425 273.065" stroke="#00A082" stroke-width="4.76" stroke-miterlimit="10"/>
<path d="M156.703 199.197C156.775 199.084 156.834 198.972 156.919 198.855C157.521 197.823 158.235 196.86 159.048 195.984L171.153 182.619L171.27 182.507" stroke="#00A082" stroke-width="4.76" stroke-miterlimit="10"/>
<path d="M38.0479 182.507C38.0479 182.507 42.1293 143.47 77.9269 136.945C87.9799 135.118 98.3344 136.202 108.171 138.7C116.24 140.743 124.218 143.51 132.588 144.01C141.498 144.541 150.534 143.681 159.431 143.155C163.445 142.912 167.499 142.628 171.54 142.228C171.927 142.183 172.296 142.156 172.683 142.111C177.983 141.588 183.25 140.774 188.46 139.672C189.977 139.343 191.502 139.001 193.014 138.641C193.775 138.484 194.531 138.299 195.287 138.128" stroke="#00A082" stroke-width="4.76" stroke-miterlimit="10"/>
<path d="M323.042 397.921C343.4 380.25 355.824 350.869 360.252 324.355" stroke="#00A082" stroke-width="4.76" stroke-miterlimit="10"/>
<path d="M216.761 131.787C224.96 129.537 236.052 125.775 250.875 119.552C294.768 101.102 310.388 118.778 310.388 118.778C312.956 121.055 315.138 123.732 316.85 126.707C317.061 127.062 317.264 127.431 317.448 127.791C332.384 155.79 305.748 186.246 316.647 214.641C322.83 230.805 338.18 241.142 345.848 256.536C349.926 264.803 352.87 273.582 354.6 282.636" stroke="#00A082" stroke-width="4.76" stroke-miterlimit="10"/>
<path d="M194.687 130.846C194.643 130.849 194.599 130.858 194.558 130.873" stroke="#00A082" stroke-width="4.76" stroke-miterlimit="10"/>
<path d="M291.938 232.857C288.009 286.812 233.397 286.857 232.479 286.258C232.479 286.258 236.016 289.967 214.502 272.826C192.987 255.686 184.154 230.238 184.154 230.238C175.1 234.45 158.45 232.276 158.45 232.276C147.695 229.036 138.69 222.241 131.81 215.334C141.3 203.683 139.46 194.774 138.744 192.514C147.771 196.195 158.094 200.093 162.311 200.547C170.487 201.425 169.749 189.815 169.749 189.815C177.075 145.197 202.955 142.934 202.955 142.934C230.99 139.694 247.239 151.781 260.771 182.084C274.302 212.386 291.938 232.857 291.938 232.857Z" fill="#FFC244"/>
<path d="M239.634 405H190.399C189.435 404.5 188.668 403.69 188.22 402.7C187.771 401.711 187.669 400.599 187.928 399.545C188.188 398.49 188.795 397.553 189.651 396.885C190.507 396.217 191.563 395.856 192.649 395.861H204.597C204.597 395.861 204.12 395.514 203.247 394.844H231.255C235.399 399.942 238.482 403.623 239.634 405Z" fill="#00A082"/>
<path d="M417.717 328.896L415.4 354.798C415.377 354.96 415.35 355.113 415.328 355.288C414.684 360.454 411.867 360.513 411.867 360.513L414.396 366.007L414.185 368.343V381.964C414.185 382.95 414.47 383.914 415.007 384.741C415.544 385.567 416.308 386.221 417.208 386.622C418.108 387.024 419.105 387.157 420.078 387.004C421.052 386.851 421.96 386.42 422.694 385.762C423.635 384.928 424.229 383.772 424.359 382.522C425.435 372.487 427.923 349.371 427.923 349.371C428.9 344.502 420.323 331.83 417.717 328.896Z" fill="#00A082"/>
<path d="M243.805 292.77C218.488 313.92 186.934 318.114 190.102 332.181C193.36 346.581 217.791 378.216 231.268 394.834C235.381 399.946 238.468 403.619 239.638 404.973C239.935 405.36 240.088 405.545 240.088 405.545H192.649C191.855 405.549 191.074 405.352 190.377 404.973C189.424 404.466 188.668 403.655 188.229 402.669C187.791 401.683 187.694 400.579 187.956 399.532C188.217 398.484 188.821 397.555 189.671 396.89C190.522 396.226 191.57 395.865 192.649 395.865H204.601L203.251 394.834C194.125 387.823 141.601 345.816 146.907 312.791C149.247 298.166 161.253 284.229 174.735 272.808C181.397 267.22 188.402 262.054 195.709 257.342C196.636 256.743 197.536 256.158 198.409 255.6" stroke="black" stroke-width="4.76" stroke-miterlimit="10"/>
<path d="M113.963 196.286V406.04C113.963 407.025 113.572 407.969 112.876 408.665C112.179 409.362 111.235 409.753 110.251 409.753C109.266 409.753 108.322 409.362 107.625 408.665C106.929 407.969 106.538 407.025 106.538 406.04V196.286C106.54 195.552 106.759 194.836 107.168 194.226C107.576 193.617 108.156 193.142 108.834 192.861C109.512 192.581 110.258 192.507 110.978 192.65C111.697 192.793 112.359 193.145 112.879 193.663C113.225 194.006 113.499 194.415 113.685 194.865C113.872 195.316 113.966 195.799 113.963 196.286Z" stroke="black" stroke-width="4.76" stroke-miterlimit="10"/>
<path d="M132.201 405.548C132.203 409.733 131.009 413.832 128.76 417.361C126.51 420.89 123.299 423.702 119.505 425.467C115.71 427.232 111.49 427.875 107.342 427.322C103.194 426.768 99.2904 425.041 96.0913 422.343C92.8923 419.645 90.5307 416.089 89.2851 412.094C88.0395 408.099 87.9616 403.83 89.061 399.793C90.1603 395.755 92.3905 392.115 95.4892 389.302C98.5879 386.49 102.426 384.621 106.551 383.917V406.039C106.551 407.023 106.942 407.968 107.638 408.664C108.335 409.36 109.279 409.751 110.264 409.751C111.248 409.751 112.192 409.36 112.889 408.664C113.585 407.968 113.976 407.023 113.976 406.039V383.917C119.078 384.793 123.705 387.445 127.041 391.403C130.375 395.361 132.203 400.372 132.201 405.548Z" stroke="black" stroke-width="4.76" stroke-miterlimit="10"/>
<path d="M295.663 427.505C307.789 427.505 317.619 417.675 317.619 405.549C317.619 393.423 307.789 383.594 295.663 383.594C283.538 383.594 273.708 393.423 273.708 405.549C273.708 417.675 283.538 427.505 295.663 427.505Z" stroke="black" stroke-width="4.76" stroke-miterlimit="10"/>
<path d="M224.06 176.423C220.775 198.54 206.712 224.357 184.262 230.954C182.585 231.448 180.877 231.83 179.15 232.097C176.913 232.445 174.66 232.675 172.4 232.785C144.297 234.135 131.234 215.091 121.779 202.725C117.554 197.159 114.039 192.96 110.241 192.573" stroke="black" stroke-width="4.76" stroke-miterlimit="10"/>
<path d="M106.543 196.285V197.941C106.56 199.116 106.174 200.261 105.449 201.186C104.725 202.112 103.705 202.761 102.56 203.026C101.822 203.185 101.057 203.177 100.323 203.002C99.5878 202.827 98.9016 202.49 98.3143 202.015C97.7266 201.541 97.2532 200.94 96.9278 200.259C96.6029 199.577 96.4347 198.831 96.4356 198.076V196.807C96.4356 192.208 98.447 187.55 102.061 184.657C108.572 179.419 117.293 183.559 123.949 186.241C126.05 187.1 128.147 187.928 130.249 188.756C139.127 192.239 148.096 195.538 157.033 198.895L160.331 200.137C161.218 200.479 162.17 200.618 163.117 200.54C164.064 200.463 164.982 200.172 165.801 199.69C166.62 199.208 167.319 198.547 167.846 197.756C168.373 196.965 168.715 196.065 168.845 195.124C169.417 191.2 170.159 187.024 171.172 182.816C175.384 165.194 184.109 146.816 202.915 142.933L203.027 142.906C226.558 138.149 248.405 153.719 257.45 174.667C265.276 192.815 274.829 210.352 286.736 226.169C308.872 255.572 327.533 267.893 358.862 285.002C380.651 296.909 402.399 311.552 419.031 330.236C421.646 333.179 428.931 344.501 427.928 349.37C427.928 349.37 425.444 372.487 424.373 382.526C424.238 383.83 423.608 385.033 422.61 385.884C421.613 386.735 420.327 387.17 419.018 387.099C417.708 387.027 416.477 386.454 415.579 385.499C414.681 384.543 414.185 383.279 414.194 381.968V368.347C414.197 367.404 414.086 366.464 413.865 365.548C411.579 355.094 397.215 345.185 389.718 340.145C374.814 330.148 358.422 322.572 341.15 317.699C327.245 313.757 313.322 312.943 299.188 310.733C298.23 310.589 297.274 310.439 296.316 310.283C278.254 307.133 260.204 301.328 243.811 292.792C226.108 283.58 210.313 271.192 198.433 255.622C192.648 248.064 187.885 239.778 184.267 230.975" stroke="black" stroke-width="4.76" stroke-miterlimit="10"/>
<path d="M132.206 405.549H227.413H273.817" stroke="black" stroke-width="4.76" stroke-miterlimit="10"/>
<path d="M295.771 409.743C297.819 409.743 299.479 408.082 299.479 406.035C299.479 403.987 297.819 402.327 295.771 402.327C293.724 402.327 292.063 403.987 292.063 406.035C292.063 408.082 293.724 409.743 295.771 409.743Z" stroke="black" stroke-width="4.76" stroke-miterlimit="10"/>
<path d="M317.619 405.548H324.081C324.081 398.012 321.088 390.785 315.759 385.457C310.431 380.129 303.204 377.135 295.668 377.135C288.132 377.135 280.905 380.129 275.577 385.457C270.248 390.785 267.255 398.012 267.255 405.548" stroke="black" stroke-width="4.76" stroke-miterlimit="10"/>
<path d="M81.833 405.549C81.8303 398.655 84.3355 391.995 88.8814 386.813C93.4268 381.631 99.703 378.279 106.538 377.383" stroke="black" stroke-width="4.76" stroke-miterlimit="10"/>
<path d="M113.963 377.383C120.795 378.282 127.067 381.635 131.61 386.818C136.152 392 138.654 398.657 138.65 405.549H132.201" stroke="black" stroke-width="4.76" stroke-miterlimit="10"/>
<path d="M176.414 96.363C178.236 98.2575 181.206 98.55 183.685 98.478C186.835 98.3925 190.021 97.839 193.135 97.398L195.012 97.425H195.039C195.399 97.4488 195.751 97.5429 196.075 97.7027C196.399 97.8624 196.688 98.0847 196.926 98.3565C197.164 98.6283 197.346 98.9442 197.461 99.2862C197.577 99.6282 197.624 99.99 197.599 100.35C197.376 104.394 196.708 108.401 195.606 112.298L199.067 114.48C199.616 113.211 199.215 111.33 200.326 111.249C201.118 109.98 202.226 109.193 203.805 110.282C206.901 112.41 207.801 118.116 204.525 120.488L206.271 124.344C207.526 127.134 212.728 128.462 215.698 127.773C214.672 125.024 211.815 123.318 211.815 123.318C216.531 124.479 220.261 118.746 219.046 115.011C218.223 112.451 218.398 110.511 219.892 108.171C219.991 108.014 219.105 107.721 219.195 107.568C219.357 105.795 218.988 103.851 218.191 102.884C216.792 101.16 213.772 100.661 214.555 98.244C214.901 97.1897 215.076 96.0867 215.073 94.977C215.005 93.5212 214.627 92.097 213.962 90.7996C213.298 89.5027 212.363 88.3629 211.221 87.4575C208.818 85.6575 205.906 86.949 203.224 86.7285C199.966 86.481 197.825 83.5785 194.4 83.295C192.699 83.1555 191.286 83.745 189.783 84.456C188.519 85.0725 187.272 85.7295 186.052 86.445C184.833 87.1605 183.757 87.795 182.367 87.6915C180.567 87.597 178.879 86.3415 177.021 86.7465C176.089 86.9373 175.249 87.4368 174.636 88.164C173.831 90.9495 174.65 94.5315 176.414 96.363Z" fill="#00A082"/>
<path d="M199.085 114.084C199.161 113.868 199.238 113.661 199.328 113.427V113.4C199.579 112.661 199.903 111.947 200.295 111.272C201.096 110.003 202.194 109.215 203.783 110.3C206.883 112.433 207.774 118.139 204.507 120.519L206.249 124.367C206.312 124.51 206.385 124.649 206.469 124.781C207.437 126.459 209.543 127.661 211.932 127.787H211.973C212.836 127.829 213.699 127.728 214.529 127.49" stroke="black" stroke-width="4.76" stroke-linecap="round" stroke-linejoin="round"/>
<path d="M180.05 104.989C180.05 104.989 186.12 103.9 188.429 108.589" stroke="black" stroke-width="4.76" stroke-miterlimit="10"/>
<path d="M180.896 118.62C179.253 118.953 177.062 119.209 175.919 117.72L178.997 112.203C179.746 110.851 180.013 109.284 179.753 107.761C179.33 105.201 178.106 101.268 179.906 98.0456" stroke="black" stroke-width="4.76" stroke-miterlimit="10"/>
<path d="M185.431 111.269C185.933 110.547 185.653 109.483 184.805 108.892C183.956 108.301 182.861 108.407 182.358 109.129C181.855 109.851 182.136 110.916 182.984 111.506C183.832 112.097 184.927 111.991 185.431 111.269Z" fill="black"/>
<path d="M195.044 145.634L194.688 130.635" stroke="black" stroke-width="4.76" stroke-miterlimit="10"/>
<path d="M199.044 114.493C199.044 114.354 199.075 114.215 199.084 114.075C199.093 113.936 199.124 113.783 199.128 113.625" stroke="black" stroke-width="4.76" stroke-linecap="round" stroke-linejoin="round"/>
<path d="M199.044 114.493L197.856 113.75L195.584 112.31" stroke="black" stroke-width="4.76" stroke-linecap="round" stroke-linejoin="round"/>
<path d="M188.794 119.552C188.794 119.552 188.411 123.526 183.749 124.867" stroke="black" stroke-width="4.76" stroke-miterlimit="10"/>
<path d="M211.793 123.332C216.509 124.493 220.239 118.76 219.024 115.025C218.201 112.464 218.376 110.525 219.87 108.185C219.969 108.027 220.055 107.87 220.14 107.735C220.694 106.763 220.944 105.649 220.856 104.534C220.769 103.419 220.348 102.357 219.65 101.484C218.3 99.639 216.131 98.8785 216.95 96.3765C217.31 95.2911 217.493 94.1544 217.49 93.0105C217.42 91.5098 217.029 90.041 216.343 88.704C215.657 87.3671 214.691 86.193 213.512 85.2615C211.041 83.376 208.031 84.7395 205.254 84.5145C201.911 84.2445 199.679 81.234 196.169 80.9595C194.418 80.8245 192.951 81.4095 191.403 82.1565C190.098 82.8 188.807 83.4795 187.565 84.213C186.323 84.9465 185.184 85.59 183.753 85.5C181.881 85.392 180.153 84.096 178.25 84.5235C176.346 84.951 175.131 86.409 174.65 88.1775C173.867 90.9495 174.686 94.5315 176.45 96.363C178.214 98.1945 181.242 98.55 183.722 98.478C186.872 98.3925 190.058 97.839 193.172 97.398L195.048 97.425H195.075C195.797 97.4817 196.467 97.8206 196.939 98.3682C197.412 98.9163 197.649 99.6282 197.6 100.35C197.377 104.394 196.708 108.401 195.606 112.298" stroke="black" stroke-width="4.76" stroke-miterlimit="10"/>
<path d="M198.949 126.872C198.949 126.872 191.209 135.872 185.026 133.321C178.843 130.769 179.293 119.06 179.293 119.06" stroke="black" stroke-width="4.76" stroke-linecap="round" stroke-linejoin="round"/>
<path d="M131.4 214.947L131.787 215.334C131.54 215.658 131.27 215.978 130.986 216.302L131.4 214.947Z" fill="#2E2E2E"/>
<path d="M138.704 192.514L138.384 192.384L138.513 191.934C138.59 192.123 138.654 192.316 138.704 192.514Z" fill="#2E2E2E"/>
<path d="M110.246 427.5H362.417" stroke="black" stroke-width="4.76" stroke-miterlimit="10"/>
<path d="M212.418 123.444L223.105 143.923" stroke="black" stroke-width="4.76" stroke-linecap="round" stroke-linejoin="round"/>
<path d="M340.524 268.016C340.524 268.016 382.635 286.128 391.1 297.333" stroke="black" stroke-width="4.76" stroke-miterlimit="10"/>
<path d="M332.915 404.977H351.001" stroke="black" stroke-width="4.76" stroke-miterlimit="10"/>
<path d="M341.955 399.911H369.086" stroke="black" stroke-width="4.76" stroke-miterlimit="10"/>
<path d="M290.084 171.54C306.676 171.54 320.126 158.089 320.126 141.498C320.126 124.906 306.676 111.456 290.084 111.456C273.492 111.456 260.042 124.906 260.042 141.498C260.042 158.089 273.492 171.54 290.084 171.54Z" stroke="#00A082" stroke-width="4.76" stroke-miterlimit="10"/>
<path d="M290.084 157.999C299.197 157.999 306.585 150.611 306.585 141.498C306.585 132.384 299.197 124.996 290.084 124.996C280.97 124.996 273.582 132.384 273.582 141.498C273.582 150.611 280.97 157.999 290.084 157.999Z" stroke="#00A082" stroke-width="4.76" stroke-miterlimit="10"/>
<path d="M290.083 144.328C291.647 144.328 292.914 143.06 292.914 141.497C292.914 139.934 291.647 138.667 290.083 138.667C288.52 138.667 287.253 139.934 287.253 141.497C287.253 143.06 288.52 144.328 290.083 144.328Z" stroke="#00A082" stroke-width="4.76" stroke-miterlimit="10"/>
<path d="M295.938 132.052L291.573 139.09" stroke="#00A082" stroke-width="4.76" stroke-miterlimit="10"/>
<path d="M290.084 124.996V127.93" stroke="#00A082" stroke-width="4.76" stroke-miterlimit="10"/>
<path d="M306.585 141.498H303.804" stroke="#00A082" stroke-width="4.76" stroke-miterlimit="10"/>
<path d="M290.084 157.999V155.146" stroke="#00A082" stroke-width="4.76" stroke-miterlimit="10"/>
<path d="M273.582 141.498H276.089" stroke="#00A082" stroke-width="4.76" stroke-miterlimit="10"/>
</svg>
