<svg width="40" height="30" viewBox="0 0 40 30" fill="none" xmlns="http://www.w3.org/2000/svg">
<g id="fa-brands:whatsapp">
<path id="Vector" d="M34.0089 5.68945C30.2679 3.22852 25.2857 1.875 19.9911 1.875C9.0625 1.875 0.169643 7.71094 0.169643 14.8828C0.169643 17.1738 1.08036 19.4121 2.8125 21.3867L0 28.125L10.5089 26.3145C13.4018 27.3516 16.6607 27.8965 19.9821 27.8965H19.9911C30.9107 27.8965 40 22.0605 40 14.8887C40 11.4141 37.75 8.15039 34.0089 5.68945ZM19.9911 25.7051C17.0268 25.7051 14.125 25.1836 11.5982 24.1992L11 23.9648L4.76786 25.0371L6.42857 21.0469L6.03571 20.6367C4.38393 18.9141 3.51786 16.9277 3.51786 14.8828C3.51786 8.92383 10.9107 4.07227 20 4.07227C24.4018 4.07227 28.5357 5.19727 31.6429 7.24219C34.75 9.28711 36.6607 12 36.6518 14.8887C36.6518 20.8535 29.0714 25.7051 19.9911 25.7051ZM29.0268 17.6074C28.5357 17.4434 26.0982 16.6582 25.6429 16.5527C25.1875 16.4414 24.8571 16.3887 24.5268 16.7168C24.1964 17.0449 23.25 17.7715 22.9554 17.9941C22.6696 18.2109 22.375 18.2402 21.8839 18.0762C18.9732 17.1211 17.0625 16.3711 15.1429 14.209C14.6339 13.6348 15.6518 13.6758 16.5982 12.4336C16.7589 12.2168 16.6786 12.0293 16.5536 11.8652C16.4286 11.7012 15.4375 10.1016 15.0268 9.45117C14.625 8.81836 14.2143 8.90625 13.9107 8.89453C13.625 8.88281 13.2946 8.88281 12.9643 8.88281C12.6339 8.88281 12.0982 8.96484 11.6429 9.28711C11.1875 9.61523 9.91071 10.4004 9.91071 12C9.91071 13.5996 11.6875 15.1465 11.9286 15.3633C12.1786 15.5801 15.4196 18.8613 20.3929 20.2734C23.5357 21.1641 24.7679 21.2402 26.3393 21.0879C27.2946 20.9941 29.2679 20.3027 29.6786 19.541C30.0893 18.7793 30.0893 18.1289 29.9643 17.9941C29.8482 17.8477 29.5179 17.7656 29.0268 17.6074Z" fill="black"/>
</g>
</svg>
