<svg width="91" height="142" viewBox="0 0 91 142" fill="none" xmlns="http://www.w3.org/2000/svg">
<path d="M63.0871 49.1092L64.6696 36L69.4174 43.8655L71 52.605V61.3445L69.4174 70.084L63.0871 80.5714L54.3828 91.0588L49.6351 98.9244L48.0525 105.916L45.6786 114.655L48.0525 122.521L49.6351 128.639L52.009 133.008L54.3828 140L49.6351 134.756L43.3047 128.639L39.3483 122.521C39.3483 122.521 36.2111 116.931 35.3918 112.908C34.5103 108.579 35.3918 101.546 35.3918 101.546L39.3483 89.3109L45.6786 80.5714L59.1306 61.3445L63.0871 49.1092Z" fill="#FFC244" stroke="#FFC244"/>
<path d="M84.0442 70.3723C85.8527 64.7857 84.0442 55 84.0442 55L87.0211 64.0426C87.0211 64.0426 90.0899 70.996 89.998 75.7979C89.9125 80.2635 87.0211 86.6489 87.0211 86.6489L80.3232 99.3085L75.8579 108.351C75.8579 108.351 73.1671 113.076 72.1368 116.489C71.1163 119.87 70.5742 121.932 70.6484 125.532C70.7754 131.697 75.8579 140 75.8579 140C75.8579 140 66.2463 133.02 63.9504 125.532C62.0226 119.245 60.7534 114.001 63.9504 108.351L72.1368 93.883C74.4973 88.7896 77.3463 80.3191 77.3463 80.3191C77.3463 80.3191 82.5323 75.043 84.0442 70.3723Z" fill="#FFC244" stroke="#FFC244"/>
<path d="M43.4528 8.66207V2L46.9245 4.85517L48.6604 8.66207L50.3962 12.469L53 19.131V25.7931V36.2621L52.1321 43.8759L50.3962 51.4897L46.9245 57.2L42.5849 65.7655L35.6415 73.3793L27.8302 84.8L22.6226 94.3172L20.8868 101.931V107.641V114.303L21.7547 120.014L22.6226 125.724L27.8302 134.29L30.434 140L28.6981 139.048L22.6226 134.29L16.5472 126.676L12.2075 120.014L8.73585 114.303L7 105.738V92.4138L7.86792 81.9448L12.2075 73.3793L16.5472 65.7655L22.6226 59.1034L28.6981 51.4897L33.9057 43.8759L39.1132 32.4552L42.5849 23.8897L43.4528 17.2276V8.66207Z" fill="#FFC244" stroke="#FFC244"/>
</svg>
